<?xml version="1.0" encoding="utf-8"?>
<svg id="master-artboard" viewBox="0 0 3000 2000" version="1.1" xmlns="http://www.w3.org/2000/svg" x="0px" y="0px" width="3000px" height="2000px" style="enable-background:new 0 0 3000 2000;">

<path class="st1" d="M2310.3,444.5c-10.2-17.7-27.1-31.1-44.6-41.1c-15.6-8.9-33.6-14.5-51.2-17.7c-21.5-3.9-43.5-4.4-65.3-5.5&#10;&#9;&#9;&#9;c-33.6-2.2-66.7-8.3-98.8-18.6c-30-10.5-58.7-24.4-85.5-41.5c-7.4-5-14.7-10.3-21.8-15.8c-7.8-6-15-12.8-22.8-18.7&#10;&#9;&#9;&#9;c-14.5-10.9-31.9-19.9-50.7-17.3c-19.8,2.7-37.2,15.2-44.8,33.8c-10.5,25.5-7.2,54.2-0.8,80.3c5.2,21.4,15.7,42.2,28.4,60.1&#10;&#9;&#9;&#9;c26.3,37.3,64.4,65.3,106.6,82.3c42,16.9,86.4,25,131.2,29.5c52.5,5.2,105.6,6.6,157.3,18.1c6.1,1.4,12.5,0.8,18.5-1.1&#10;&#9;&#9;&#9;c3.2,0.6,6.5,0.8,9.8,0.4c10.6-1.3,18.3-5.8,25.9-13.2c13.1-12.6,21.7-32.2,23-50.3c1-13.7,0.2-24.4-3-37.8&#10;&#9;&#9;&#9;C2319.3,461.2,2315,452.8,2310.3,444.5z" style="fill: rgb(198, 183, 202);" transform="matrix(1, 0, 0, 1, 0, 0)"/><g transform="matrix(1, 0, 0, 1, 0, 0)">
				<path class="st1" d="M1104.2,1566.7c-5,0-10,0-15,0c-82.5,0-164.9,3-246.9,12.6c-1.1,0.1-2.1,0.2-3.2,0.2&#10;&#9;&#9;&#9;&#9;&#9;c-11.6,0-23.3-7-31.5-14.5c-4.3-3.9-7.5-8.7-9.8-14c-9.5-7.9-17.1-15.9-25.1-26.6c-7.4-10-12-20.8-16.7-32.2&#10;&#9;&#9;&#9;&#9;&#9;c-8.1-19.8-11.2-41.9-11.7-63.1c-1.1-45.3,14.3-88.7,21.4-133c1.5-14.8,1.6-29.5,0.1-44.3c-7.2-43.2-24.8-83.7-41-124.2&#10;&#9;&#9;&#9;&#9;&#9;c-16.4-40.9-30-81.8-33.8-126c-4.2-48.9,9.9-98.2,35.3-139.7c24.6-40.3,58.1-74.1,93-105.5c32-28.8,65-56.7,92.2-90.2&#10;&#9;&#9;&#9;&#9;&#9;c14.5-19.9,25.8-41.3,36-63.5c-24.8,11.7-49.6,23.4-74.3,35.2c-54.5,25.8-110.7,49.5-163.2,79.2C657,746.7,606,788.2,579.4,844&#10;&#9;&#9;&#9;&#9;&#9;c-14.5,30.5-24.1,63.4-22.7,97.5c1.4,33,10.6,62.5,24.6,92.1c21,44.6,54.7,81.6,79.6,123.8c5.4,9.1,10.2,18.5,14.6,28.1&#10;&#9;&#9;&#9;&#9;&#9;c26.4,68.2,28.9,142.4,43.7,213.5c13.9,66.6,44.3,135.5,95.3,182.2c13.9,12.7,29.3,24.7,46,33.5c5.1,11.8,13.2,22.7,24.8,28.8&#10;&#9;&#9;&#9;&#9;&#9;c10,5.3,19.7,7.4,30,7.4c5.1,0,10.3-0.5,15.8-1.4c139.4-22.6,278.8-45.3,418.3-67.9c-12.1-0.7-24.1-1.5-36.2-2.2&#10;&#9;&#9;&#9;&#9;&#9;C1243.6,1575.1,1173.9,1570.9,1104.2,1566.7z" style="fill: rgb(198, 183, 202);"/>
				<path class="st1" d="M2200.6,631.4c-82.5-17.1-163.7-40.7-242.6-70.5c-17-6.4-34-13.2-50.8-20.2&#10;&#9;&#9;&#9;&#9;&#9;c-51.2-22.1-100.7-47.4-150.4-72.6c-53.4-27.2-108.6-53.8-167.1-67.8c-30.2-7.2-60.6-10.8-91-10.8c-34.5,0-69,4.6-103.1,13.5&#10;&#9;&#9;&#9;&#9;&#9;c-19.7,5.1-39.1,11.5-58.2,18.7c13.6,6.2,26.8,13.2,39.5,21c104.8,63.8,174,166.8,263.4,248c57.1-31.3,112.8-64.8,173.6-88.8&#10;&#9;&#9;&#9;&#9;&#9;c32.8-12.9,66.7-20.8,101.9-23.5c4.5-0.3,9-0.5,13.5-0.5c14.8,0,29.4,1.7,44.1,3.9c14.5,2.1,28.5,5.9,42,11.4&#10;&#9;&#9;&#9;&#9;&#9;c16.8,6.9,32.9,14,47.9,24.3c14.4,9.9,28.4,20.9,41,33.1c22.5,21.9,41.9,47.8,57.8,74.9c7.9,13.4,15,27.2,21.6,41.3&#10;&#9;&#9;&#9;&#9;&#9;c6.4,2.3,12.7,5,18.9,8.3c18.5,9.9,32.9,25,44.7,42c19.8,28.4,25.9,63.9,29.7,97.4c3,26.6,4.2,53.5,4.8,80.4&#10;&#9;&#9;&#9;&#9;&#9;c20.9,42.4,41.8,84.8,58.8,129.1c8.1,21.1,15.1,42.9,20.5,65.1c51.7-61.8,97.2-133.5,114.7-212.9c19.3-87.5,3.7-179-55-248.4&#10;&#9;&#9;&#9;&#9;&#9;C2365.7,662.5,2279.6,647.8,2200.6,631.4z" style="fill: rgb(198, 183, 202);"/>
				<path class="st1" d="M1187.5,391.8c-35.6,2.1-69,10.3-101.2,25.7c-32.7,15.6-58.9,40.4-80.3,69.2c-20.8,27.8-34.3,60-47.9,91.7&#10;&#9;&#9;&#9;&#9;&#9;c-3.5,8.1-7,16.2-10.7,24.2c91.1-43.1,182.1-86.1,273.2-129.2c38.3-18.1,77-36.7,116.8-51.7c-41.8-19.1-87.5-30.4-133.4-30.4&#10;&#9;&#9;&#9;&#9;&#9;C1198.5,391.3,1193,391.5,1187.5,391.8z" style="fill: rgb(198, 183, 202);"/>
				<path class="st2" d="M2247.4,817.1c-11.9-17-26.2-32.1-44.7-42c-6.1-3.3-12.5-6-18.9-8.3c20.6,44.2,36,91,54.5,136.1&#10;&#9;&#9;&#9;&#9;&#9;c5.1,11.8,10.4,23.4,15.9,35c9,19.1,18.4,38,27.7,56.9c-0.6-26.8-1.8-53.8-4.8-80.4C2273.3,880.9,2267.1,845.4,2247.4,817.1z" style="fill: rgb(166, 142, 172);"/>
				<path class="st2" d="M1376.9,442.7c-12.7-7.7-25.9-14.8-39.5-21c-39.9,15-78.5,33.6-116.8,51.7&#10;&#9;&#9;&#9;&#9;&#9;c-91.1,43.1-182.1,86.1-273.2,129.2c-10.2,22.2-21.5,43.6-36,63.5c-27.2,33.5-60.2,61.5-92.2,90.2&#10;&#9;&#9;&#9;&#9;&#9;c-34.9,31.4-68.3,65.2-93,105.5c-25.4,41.6-39.5,90.9-35.3,139.7c3.8,44.2,17.5,85.1,33.8,126c16.2,40.4,33.9,81,41,124.2&#10;&#9;&#9;&#9;&#9;&#9;c1.5,14.8,1.4,29.5-0.1,44.3c-7.1,44.3-22.5,87.6-21.4,133c0.5,21.2,3.6,43.4,11.7,63.1c4.7,11.5,9.3,22.3,16.7,32.2&#10;&#9;&#9;&#9;&#9;&#9;c7.9,10.7,15.6,18.7,25.1,26.6c2.3,5.2,5.5,10,9.8,14c8.2,7.5,19.9,14.5,31.5,14.5c1.1,0,2.1-0.1,3.2-0.2&#10;&#9;&#9;&#9;&#9;&#9;c82-9.6,164.4-12.6,246.9-12.6c5,0,10,0,15,0c-69.2-4.2-138.4-8.4-207.7-12.6c-17.2-1-31.6-6.7-44.2-18.3&#10;&#9;&#9;&#9;&#9;&#9;c-7-6.4-11.7-14.6-14.6-23.5c-6.3-7.2-11.1-15.7-13.2-24.3c-21.5-91-30.3-184.4-12.9-276.8c13.8-73,47.2-142.9,97.6-197.7&#10;&#9;&#9;&#9;&#9;&#9;c47.3-51.3,108.7-84.7,172.8-110.3c56.5-22.5,115.8-37.2,174.5-52.9c64.7-17.4,128-38.2,189.8-63.8&#10;&#9;&#9;&#9;&#9;&#9;c64.1-27.5,126.4-58.9,187.6-92.2c2.2-1.2,4.3-2.4,6.5-3.5C1550.9,609.5,1481.7,506.5,1376.9,442.7z" style="fill: rgb(166, 142, 172);"/>
				<path class="st1" d="M2355.1,1196.2c-37.5,43.9-80.3,82.7-126.7,116.7c-19.7,41.1-45.9,79-80.1,111.5&#10;&#9;&#9;&#9;&#9;&#9;c-106.3,100.9-262,126.5-402.1,141.2c-74.7,7.8-149.8,10.4-224.8,10.4c-41.9,0-83.8-0.8-125.7-1.9c-15.4,2.5-30.8,5-46.2,7.5&#10;&#9;&#9;&#9;&#9;&#9;c126.9,7.7,253.7,15.4,380.6,23.1c67.9,4.1,135.9,9.5,204,11.6c11.2,0.3,22.5,0.5,33.8,0.5c57.4,0,115.7-5.1,170.4-22.2&#10;&#9;&#9;&#9;&#9;&#9;c59-18.4,116.7-49.7,158.7-95.8c11.7-12.9,22.6-26.9,32-41.5c10.2-15.8,17.6-32.9,24.7-50.3c12.4-30.5,17.8-63.9,19.7-96.6&#10;&#9;&#9;&#9;&#9;&#9;c2.4-40.5-2.5-81.6-12.2-121.3C2359.1,1191.4,2357.1,1193.8,2355.1,1196.2z" style="fill: rgb(198, 183, 202);"/>
				<path class="st2" d="M1104.2,1566.7c69.7,4.2,139.4,8.5,209.1,12.7c12.1,0.7,24.1,1.5,36.2,2.2c15.4-2.5,30.8-5,46.2-7.5&#10;&#9;&#9;&#9;&#9;&#9;c-33.7-0.9-67.4-2-101-3.1C1231.2,1568.9,1167.7,1567,1104.2,1566.7z" style="fill: rgb(166, 142, 172);"/>
				<path class="st2" d="M863.2,1479c0.1,0,0.2,0,0.3,0c-1.1-0.9-2.2-1.7-3.3-2.6C861.2,1477.2,862.2,1478.1,863.2,1479z" style="fill: rgb(166, 142, 172);"/>
				<path class="st2" d="M2281.9,994.8c0.2,8.5,0.3,17,0.4,25.5c1.3,98.4-11,203.1-53.9,292.6c46.4-34.1,89.2-72.8,126.7-116.7&#10;&#9;&#9;&#9;&#9;&#9;c2-2.4,4-4.7,6-7.1c-5.4-22.2-12.4-44-20.5-65.1C2323.6,1079.7,2302.8,1037.3,2281.9,994.8z" style="fill: rgb(166, 142, 172);"/>
				<path class="st2" d="M2104.4,650.6c-12.6-12.2-26.6-23.2-41-33.1c-15-10.3-31.1-17.5-47.9-24.3c-13.5-5.5-27.5-9.3-42-11.4&#10;&#9;&#9;&#9;&#9;&#9;c-14.8-2.2-29.4-3.9-44.1-3.9c-4.5,0-9,0.2-13.5,0.5c-35.2,2.7-69.2,10.6-101.9,23.5c-60.8,24-116.5,57.5-173.6,88.8&#10;&#9;&#9;&#9;&#9;&#9;c10.3,9.4,20.9,18.4,31.8,27.1c23.5,17.6,48.4,33,75.1,45.1c24.6,9.7,50.2,16.3,76.3,20.4c18.7,2.2,37.5,3.1,56.3,3.1&#10;&#9;&#9;&#9;&#9;&#9;c33.3,0,66.6-2.9,99.7-7.1c15.4-2.1,30.9-4.5,46.2-7c33.9-5.5,68.8-14.1,103.3-14.1c2.5,0,5.1,0,7.6,0.1&#10;&#9;&#9;&#9;&#9;&#9;c16.2,0.6,32,3.2,47.1,8.5c-6.6-14.1-13.7-27.9-21.6-41.3C2146.3,698.4,2126.9,672.5,2104.4,650.6z" style="fill: rgb(166, 142, 172);"/>
				<path class="st2" d="M1470.2,1562c-24.8,4-49.7,8.1-74.5,12.1c41.9,1.1,83.8,1.9,125.7,1.9c75.1,0,150.1-2.6,224.8-10.4&#10;&#9;&#9;&#9;&#9;&#9;c140.1-14.7,295.9-40.3,402.1-141.2c34.3-32.5,60.4-70.4,80.1-111.5c-77.6,57-165.2,101-254.8,134.7&#10;&#9;&#9;&#9;&#9;&#9;C1811.9,1508.4,1640,1534.4,1470.2,1562z" style="fill: rgb(166, 142, 172);"/>
				<path class="st3" d="M2281.9,994.8c-9.3-18.9-18.7-37.8-27.7-56.9c-5.5-11.6-10.8-23.3-15.9-35c-18.5-45.1-33.8-91.9-54.5-136.1&#10;&#9;&#9;&#9;&#9;&#9;c-15.1-5.3-30.9-7.9-47.1-8.5c-2.5-0.1-5.1-0.1-7.6-0.1c-34.5,0-69.4,8.6-103.3,14.1c-15.4,2.5-30.8,4.8-46.2,7&#10;&#9;&#9;&#9;&#9;&#9;c-33.1,4.2-66.4,7.1-99.7,7.1c-18.8,0-37.5-0.9-56.3-3.1c-26.1-4-51.7-10.6-76.3-20.4c-26.7-12-51.7-27.5-75.1-45.1&#10;&#9;&#9;&#9;&#9;&#9;c-10.9-8.7-21.5-17.8-31.8-27.1c-2.2,1.2-4.3,2.4-6.5,3.5c-61.2,33.3-123.5,64.7-187.6,92.2c-61.9,25.6-125.1,46.5-189.8,63.8&#10;&#9;&#9;&#9;&#9;&#9;c-58.7,15.8-117.9,30.4-174.5,52.9c-64.1,25.5-125.5,58.9-172.8,110.3c-50.4,54.7-83.8,124.7-97.6,197.7&#10;&#9;&#9;&#9;&#9;&#9;c-17.4,92.4-8.6,185.9,12.9,276.8c2,8.6,6.9,17.1,13.2,24.3c2.9,8.9,7.6,17.1,14.6,23.5c12.6,11.6,27,17.3,44.2,18.3&#10;&#9;&#9;&#9;&#9;&#9;c69.2,4.2,138.4,8.4,207.7,12.6c63.5,0.3,127,2.2,190.5,4.3c33.6,1.1,67.3,2.2,101,3.1c24.8-4,49.7-8.1,74.5-12.1&#10;&#9;&#9;&#9;&#9;&#9;c169.8-27.6,341.6-53.6,503.4-114.4c89.6-33.7,177.2-77.7,254.8-134.7c42.9-89.5,55.2-194.2,53.9-292.6&#10;&#9;&#9;&#9;&#9;&#9;C2282.2,1011.8,2282,1003.4,2281.9,994.8z M863.2,1479c-1-0.9-2-1.8-3-2.6c1.1,0.9,2.2,1.7,3.3,2.6&#10;&#9;&#9;&#9;&#9;&#9;C863.4,1479,863.3,1479,863.2,1479z" style="fill: rgb(148, 120, 155);"/>
			</g><path class="st4" d="M883.1,1476c-40.5,0.8-80.9,4-120.9,9.8c72.2-3.3,144.4-6.2,216.6-8.7c-23.3-0.8-46.5-1.4-69.8-1.4&#10;&#9;&#9;&#9;&#9;&#9;C900.4,1475.7,891.8,1475.8,883.1,1476z" style="fill: rgb(198, 230, 236);" transform="matrix(1, 0, 0, 1, 0, 0)"/><path class="st4" d="M646,1572.4c-12.1-15.7-10-40.1,0-56c1.6-2.6,3.4-5,5.4-7.2c-15,4.1-30,8.6-44.8,13.3&#10;&#9;&#9;&#9;&#9;&#9;c-65.4,8.5-100.1,73.3-87.7,131.4c6.8,32.2,31.9,58.3,59.1,77.4c24.8,17.5,55,28.7,84.7,36.6c53.3,14.1,107.3,19,161.6,19&#10;&#9;&#9;&#9;&#9;&#9;c15.8,0,31.6-0.4,47.5-1.1c-40-23-76.5-52-109.4-82.6C719.3,1663.1,681.4,1618.4,646,1572.4z" style="fill: rgb(198, 230, 236);" transform="matrix(1, 0, 0, 1, 0, 0)"/><path class="st4" d="M2332.2,1509.1c-92.9-36.7-192.7-47.3-292.7-47.3c-31.3,0-62.6,1-93.7,2.6c-27.2,1.4-54.4,3.1-81.6,4.9&#10;&#9;&#9;&#9;&#9;&#9;c25.9,0.4,51.7,0.9,77.6,1.4c49.8,1,99.6,2.3,149.5,3.7c25.4,0.7,50.8,1.5,76.2,2.4c28.1,0.9,58.8-0.5,84.5,11.8&#10;&#9;&#9;&#9;&#9;&#9;c2.3,0.9,4.4,2,6.3,3.4c3.7,2.2,7.1,4.7,10.1,7.4c6.9,5.4,12.8,11.1,18.1,19.1c4.5,6.9,8.3,15.1,10.2,23.1&#10;&#9;&#9;&#9;&#9;&#9;c3.8,16.6,3.8,34.7-2.5,50.8c-6.2,15.6-14.8,30.6-28.6,41.6c-15.4,12.3-33.7,21.6-53.7,25.6c-5.9,1.2-11.7,2.1-17.6,2.7&#10;&#9;&#9;&#9;&#9;&#9;c-0.6,2.6-1.2,5.1-1.9,7.6c-6.1,24.1-14.7,49.7-30.5,69.8c-1.2,1.6-2.5,3.1-3.7,4.6c34.3,3.2,68.5,5.5,102.9,5.5&#10;&#9;&#9;&#9;&#9;&#9;c19.9,0,39.8-0.8,59.7-2.5c32.9-2.9,65.4-7.6,94.7-22.9c31.8-16.6,54.4-46.7,54.6-81.4&#10;&#9;&#9;&#9;&#9;&#9;C2470.3,1573.5,2391.7,1532.6,2332.2,1509.1z M2368.2,1657.2c1.1-0.4,2-0.7,2-0.7C2370.2,1656.5,2369.7,1656.7,2368.2,1657.2z&#10;&#9;&#9;&#9;&#9;&#9; M2384.5,1644.1c0-0.1,0-0.3,0-0.5l0,0.1c0,0,0-0.1,0-0.2c0-0.1,0-0.3,0-0.4C2384.7,1643.1,2384.8,1643.5,2384.5,1644.1z" style="fill: rgb(198, 230, 236);" transform="matrix(1, 0, 0, 1, 0, 0)"/><path class="st4" d="M1688.9,1652.3c-17.4,1.1-34.7,2.7-52.1,4.7c-58.7,7.9-116,21.6-171,42.5c-56.3,22.9-109.9,51.1-165.2,75.9&#10;&#9;&#9;&#9;&#9;&#9;c57.6,8.8,115.6,19.3,174,19.3c8.7,0,17.4-0.2,26.1-0.7c71.6-4.2,139.9-24,208.3-42.5c32.4-8.8,65.1-17.1,98.4-22.7&#10;&#9;&#9;&#9;&#9;&#9;c4.4-0.7,8.9-1.5,13.3-2.1c1.6-0.2,3.2-0.4,4.8-0.7c8.8-0.9,17.5-1.8,26.3-2.4c11.6-0.8,23.2-1.3,34.9-1.5&#10;&#9;&#9;&#9;&#9;&#9;c-22.2-11.2-45-21.4-68.2-30.8C1776.5,1675.1,1733.1,1662.1,1688.9,1652.3z" style="fill: rgb(198, 230, 236);" transform="matrix(1, 0, 0, 1, 0, 0)"/><path class="st4" d="M1264.5,1770.1c-1-0.1-1.7-0.2-2.3-0.3c-1.3-0.1-2.6-0.3-3.9-0.4c-8.2-0.9-16.5-1.8-24.7-2.4&#10;&#9;&#9;&#9;&#9;&#9;c-16.9-1.4-33.9-2.1-50.9-2.3c-3.5,0-6.9-0.1-10.4-0.1c-31.2,0-62.3,1.6-93.3,4c-68.6,5.2-138,14-207.1,17.1&#10;&#9;&#9;&#9;&#9;&#9;c12.1,6.9,24.5,13.3,37.2,19c27.9,12.5,57.2,23.2,87.7,28.4c20.9,3.5,41.7,5.5,62.6,5.5c11.5,0,23-0.6,34.6-1.8&#10;&#9;&#9;&#9;&#9;&#9;c34.2-3.6,67.5-9.8,100.2-20c32.4-10.1,63.9-22.8,94.7-36.3c3.9-1.7,7.8-3.4,11.7-5.2c-7.4-1.1-14.7-2.2-22.1-3.3&#10;&#9;&#9;&#9;&#9;&#9;C1273.8,1771.4,1269.2,1770.8,1264.5,1770.1z" style="fill: rgb(198, 230, 236);" transform="matrix(1, 0, 0, 1, 0, 0)"/><path class="st4" d="M651.4,1509.1c16.2-4.5,32.5-8.5,48.9-12.1c20.5-4.5,41.1-8.2,61.9-11.2c-21.6,1-43.2,2-64.9,3.1&#10;&#9;&#9;&#9;&#9;&#9;C679.2,1489.8,662.7,1496.3,651.4,1509.1z" style="fill: rgb(198, 230, 236);" transform="matrix(1, 0, 0, 1, 0, 0)"/><path class="st4" d="M1577.3,1467c-180.6,0-361.1,2.8-541.6,8.3c-19,0.6-38,1.2-56.9,1.8c30.1,1.1,60.2,2.5,90.3,3.8&#10;&#9;&#9;&#9;&#9;&#9;c99.6,4.2,199.2,6.4,298.9,6.4c49.8,0,99.6-0.5,149.4-1.6c75.2-1.6,150.4-4.5,225.4-8.6c40.5-2.2,80.9-5.1,121.4-7.7&#10;&#9;&#9;&#9;&#9;&#9;c-74.8-1.2-149.6-1.9-224.5-2.2C1619,1467,1598.2,1467,1577.3,1467z" style="fill: rgb(198, 230, 236);" transform="matrix(1, 0, 0, 1, 0, 0)"/><path class="st5" d="M2286.5,1518.5c-5.3-8-11.2-13.7-18.1-19.1c-3-2.7-6.4-5.2-10.1-7.4c-1.9-1.3-4-2.4-6.3-3.4&#10;&#9;&#9;&#9;&#9;&#9;c-25.6-12.3-56.3-10.9-84.5-11.8c-25.4-0.8-50.8-1.6-76.2-2.4c-49.8-1.4-99.6-2.7-149.5-3.7c-25.9-0.5-51.7-1-77.6-1.4&#10;&#9;&#9;&#9;&#9;&#9;c-40.4,2.7-80.9,5.5-121.4,7.7c-75.1,4.1-150.2,7-225.4,8.6c-49.8,1.1-99.6,1.6-149.4,1.6c-99.7,0-199.3-2.2-298.9-6.4&#10;&#9;&#9;&#9;&#9;&#9;c-30.1-1.3-60.2-2.8-90.3-3.8c-72.2,2.4-144.4,5.3-216.6,8.7c-20.8,3-41.4,6.8-61.9,11.2c-16.4,3.6-32.8,7.7-48.9,12.1&#10;&#9;&#9;&#9;&#9;&#9;c-2,2.2-3.8,4.6-5.4,7.2c-10,15.9-12.1,40.3,0,56c35.4,46,73.3,90.7,116.4,130.7c32.9,30.6,69.4,59.7,109.4,82.6&#10;&#9;&#9;&#9;&#9;&#9;c69.2-3.1,138.5-11.9,207.1-17.1c31-2.4,62.2-4,93.3-4c3.5,0,6.9,0,10.4,0.1c17,0.2,34,0.9,50.9,2.3c8.2,0.7,16.5,1.5,24.7,2.4&#10;&#9;&#9;&#9;&#9;&#9;c1.3,0.1,2.6,0.3,3.9,0.4c0.6,0.1,1.3,0.2,2.3,0.3c4.7,0.6,9.4,1.3,14.1,1.9c7.4,1,14.7,2.1,22.1,3.3&#10;&#9;&#9;&#9;&#9;&#9;c55.3-24.9,108.9-53.1,165.2-75.9c54.9-20.9,112.3-34.6,171-42.5c17.3-2,34.7-3.5,52.1-4.7c-25.7-5.7-51.7-10.3-77.9-13.9&#10;&#9;&#9;&#9;&#9;&#9;c-35.1-4.1-70.2-6-105.3-6c-40.1,0-80.2,2.5-120.2,7.2c-48.1,6.3-95.8,14.8-143.5,23c-78.2,13.3-157.5,25.9-237.3,25.9&#10;&#9;&#9;&#9;&#9;&#9;c-8.2,0-16.3-0.1-24.5-0.4c-85.3-2.9-171.4-20.3-244.8-62.2c-21.8-12.4-29.9-36.1-22.2-57.6c-0.3-1.7-0.4-3.4-0.5-5.1&#10;&#9;&#9;&#9;&#9;&#9;c-1.3-26.1,24.6-47.8,51.5-48c16.6-0.1,33.2-0.3,49.7-0.4c131.7-1.1,263.5-1.6,395.2-1.7c8.8,0,17.6,0,26.5,0&#10;&#9;&#9;&#9;&#9;&#9;c123.4,0,246.7,0.4,370.1,1.3c132.2,0.9,264.4,2.4,396.6,4.3c32.4,0.5,65,0.1,97.4,1.6c20.4,0.9,42.3,4.2,59.4,15.4&#10;&#9;&#9;&#9;&#9;&#9;c18.5,12.2,31.9,28.6,37.9,49.3c7.3,25.3,3.4,51.9-2.6,77.1c5.9-0.7,11.7-1.5,17.6-2.7c20-4,38.3-13.2,53.7-25.6&#10;&#9;&#9;&#9;&#9;&#9;c13.8-11,22.4-25.9,28.6-41.6c6.3-16.1,6.3-34.2,2.5-50.8C2294.9,1533.5,2291.1,1525.3,2286.5,1518.5z" style="fill: rgb(165, 215, 225);" transform="matrix(1, 0, 0, 1, 0, 0)"/><path class="st4" d="M1899.8,1721.8c-4.4,0-8.7,0-13.1,0.1c1.5,0.7,2.9,1.5,4.4,2.2c25.2,12.9,48.9,28,74.1,40.8&#10;&#9;&#9;&#9;&#9;&#9;c27.5,14,59.5,26.8,91.6,26.8c2.7,0,5.4-0.1,8.1-0.3c20.4-1.4,40.4-6,58-16.3c14.6-8.6,25.3-18.7,35.4-30.9&#10;&#9;&#9;&#9;&#9;&#9;c-84.9-8-169.6-22-255-22.4C1902.1,1721.8,1901,1721.8,1899.8,1721.8z" style="fill: rgb(198, 230, 236);" transform="matrix(1, 0, 0, 1, 0, 0)"/><path class="st5" d="M2131.1,1663.5c-23.8-0.6-47.6-1.5-71.4-2.6c-48.3-2.3-96.5-5.3-144.8-7.7c-44.1-2.2-88.4-3.8-132.7-3.8&#10;&#9;&#9;&#9;&#9;&#9;c-31.1,0-62.2,0.8-93.3,2.9c44.2,9.8,87.6,22.8,129.6,38.9c23.2,9.3,46,19.6,68.2,30.8c4.4-0.1,8.7-0.1,13.1-0.1&#10;&#9;&#9;&#9;&#9;&#9;c1.1,0,2.3,0,3.4,0c85.4,0.4,170.1,14.4,255,22.4c1.2-1.5,2.5-3,3.7-4.6c15.8-20.1,24.5-45.7,30.5-69.8c0.6-2.5,1.3-5.1,1.9-7.6&#10;&#9;&#9;&#9;&#9;&#9;c-12.2,1.4-24.4,1.8-36.6,1.8C2148.8,1663.9,2140,1663.7,2131.1,1663.5z" style="fill: rgb(165, 215, 225);" transform="matrix(1, 0, 0, 1, 0, 0)"/><path class="st6" d="M2159,1535.8c-17.1-11.2-39-14.5-59.4-15.4c-32.4-1.5-65-1.1-97.4-1.6c-132.2-1.9-264.4-3.4-396.6-4.3&#10;&#9;&#9;&#9;&#9;&#9;c-123.4-0.9-246.7-1.3-370.1-1.3c-8.8,0-17.6,0-26.5,0c-131.7,0.1-263.5,0.6-395.2,1.7c-16.6,0.1-33.2,0.3-49.7,0.4&#10;&#9;&#9;&#9;&#9;&#9;c-26.9,0.2-52.8,21.9-51.5,48c0.1,1.7,0.3,3.4,0.5,5.1c-7.7,21.5,0.4,45.2,22.2,57.6c73.5,41.9,159.5,59.3,244.8,62.2&#10;&#9;&#9;&#9;&#9;&#9;c8.2,0.3,16.3,0.4,24.5,0.4c79.7,0,159-12.5,237.3-25.9c47.7-8.1,95.4-16.7,143.5-23c40-4.7,80.1-7.2,120.2-7.2&#10;&#9;&#9;&#9;&#9;&#9;c35.1,0,70.2,1.9,105.3,6c26.2,3.5,52.2,8.1,77.9,13.9c31-2,62.1-2.9,93.3-2.9c44.3,0,88.5,1.7,132.7,3.8&#10;&#9;&#9;&#9;&#9;&#9;c48.3,2.4,96.5,5.4,144.8,7.7c23.8,1.1,47.6,2,71.4,2.6c8.9,0.2,17.8,0.4,26.7,0.4c12.2,0,24.4-0.4,36.6-1.8&#10;&#9;&#9;&#9;&#9;&#9;c6-25.3,9.9-51.8,2.6-77.1C2190.9,1564.4,2177.5,1548,2159,1535.8z" style="fill: rgb(146, 207, 218);" transform="matrix(1, 0, 0, 1, 0, 0)"/><g transform="matrix(1, 0, 0, 1, 0, 0)">
					<path class="st7" d="M1589.6,268.3h-492c-6.3,0-11.5,5.1-11.5,11.5V615c0,6.3,5.1,11.5,11.5,11.5h492c6.3,0,11.5-5.1,11.5-11.5&#10;&#9;&#9;&#9;&#9;&#9;&#9;V279.8C1601.1,273.4,1595.9,268.3,1589.6,268.3z" style="fill: rgb(179, 223, 222);"/>
					<linearGradient id="SVGID_1_" gradientUnits="userSpaceOnUse" x1="1343.8956" y1="114.4715" x2="1343.531" y2="567.7581">
						<stop offset="0.2522" style="stop-color:#939598"/>
						<stop offset="0.4156" style="stop-color:#8A8C8F"/>
						<stop offset="0.6803" style="stop-color:#737477"/>
						<stop offset="0.738" style="stop-color:#6D6E71"/>
					</linearGradient>
					<path d="M 1106.400024 289.700012 H 1580.800018 V 605.100006 H 1106.400024 V 289.700012 Z" class="st8" style="fill: url('#SVGID_1_');"/>
					<g>
						<path d="M 1221.900024 363.399994 H 1465.500031 V 374.399994 H 1221.900024 V 363.399994 Z" class="st9" style="fill: rgb(249, 249, 249);"/>
						<g>
							<g>
								<path d="M 1161 428.399994 H 1326.5 V 439.399994 H 1161 V 428.399994 Z" class="st9" style="fill: rgb(249, 249, 249);"/>
								<path d="M 1360.800049 428.399994 H 1526.300049 V 439.399994 H 1360.800049 V 428.399994 Z" class="st9" style="fill: rgb(249, 249, 249);"/>
							</g>
							<g>
								<path d="M 1161 459 H 1326.5 V 470 H 1161 V 459 Z" class="st9" style="fill: rgb(249, 249, 249);"/>
								<path d="M 1360.800049 459 H 1526.300049 V 470 H 1360.800049 V 459 Z" class="st9" style="fill: rgb(249, 249, 249);"/>
							</g>
							<g>
								<path d="M 1161 489.700012 H 1326.5 V 500.700012 H 1161 V 489.700012 Z" class="st9" style="fill: rgb(249, 249, 249);"/>
								<path d="M 1360.800049 489.700012 H 1526.300049 V 500.700012 H 1360.800049 V 489.700012 Z" class="st9" style="fill: rgb(249, 249, 249);"/>
							</g>
							<g>
								<path d="M 1161 520.400024 H 1326.5 V 531.400024 H 1161 V 520.400024 Z" class="st9" style="fill: rgb(249, 249, 249);"/>
								<path d="M 1360.800049 520.400024 H 1526.300049 V 531.400024 H 1360.800049 V 520.400024 Z" class="st9" style="fill: rgb(249, 249, 249);"/>
							</g>
						</g>
					</g>
				</g><linearGradient id="SVGID_2_" gradientUnits="userSpaceOnUse" x1="1539.6954" y1="1649.4609" x2="1539.6954" y2="1172.3112">
						<stop offset="0" style="stop-color:#FFE3E3"/>
						<stop offset="1" style="stop-color:#F7BAB7"/>
					</linearGradient><path d="M 905.900024 1089.599976 H 2173.5 V 1579.299988 H 905.900024 V 1089.599976 Z" class="st10" style="fill: url('#SVGID_2_');" transform="matrix(1, 0, 0, 1, 0, 0)"/><path class="st11" d="M1752.3,1125.7c0,0,0-0.1,0-0.3C1752.3,1125.6,1752.3,1125.7,1752.3,1125.7z" style="fill: rgb(240, 241, 245);" transform="matrix(1, 0, 0, 1, 0, 0)"/><path class="st12" d="M2196.4,1067H883c-0.7,0-1.3,0.6-1.3,1.3v19.9c0,0.7,0.6,1.3,1.3,1.3h1313.4c0.7,0,1.3-0.6,1.3-1.3v-19.9&#10;&#9;&#9;&#9;&#9;&#9;&#9;C2197.8,1067.6,2197.2,1067,2196.4,1067z" style="fill: rgb(252, 205, 205);" transform="matrix(1, 0, 0, 1, 0, 0)"/><path d="M 867.900024 1025.400024 H 2211.5 V 1067.000023 H 867.900024 V 1025.400024 Z" class="st13" style="fill: rgb(255, 227, 227);" transform="matrix(1, 0, 0, 1, 0, 0)"/><path d="M 985.799988 1089.599976 H 992.599988 V 1580.199982 H 985.799988 V 1089.599976 Z" class="st12" style="fill: rgb(252, 205, 205);" transform="matrix(1, 0, 0, 1, 0, 0)"/><path d="M 1077.599976 1089.599976 H 1084.399976 V 1580.199982 H 1077.599976 V 1089.599976 Z" class="st12" style="fill: rgb(252, 205, 205);" transform="matrix(1, 0, 0, 1, 0, 0)"/><path d="M 1169.300049 1089.599976 H 1176.100049 V 1580.199982 H 1169.300049 V 1089.599976 Z" class="st12" style="fill: rgb(252, 205, 205);" transform="matrix(1, 0, 0, 1, 0, 0)"/><path d="M 1261.099976 1089.599976 H 1267.899976 V 1580.199982 H 1261.099976 V 1089.599976 Z" class="st12" style="fill: rgb(252, 205, 205);" transform="matrix(1, 0, 0, 1, 0, 0)"/><path d="M 1352.800049 1089.599976 H 1359.600049 V 1580.199982 H 1352.800049 V 1089.599976 Z" class="st12" style="fill: rgb(252, 205, 205);" transform="matrix(1, 0, 0, 1, 0, 0)"/><path d="M 1444.5 1089.599976 H 1451.3 V 1580.199982 H 1444.5 V 1089.599976 Z" class="st12" style="fill: rgb(252, 205, 205);" transform="matrix(1, 0, 0, 1, 0, 0)"/><path d="M 1536.300049 1089.599976 H 1543.100049 V 1580.199982 H 1536.300049 V 1089.599976 Z" class="st12" style="fill: rgb(252, 205, 205);" transform="matrix(1, 0, 0, 1, 0, 0)"/><path d="M 1628 1089.599976 H 1634.8 V 1580.199982 H 1628 V 1089.599976 Z" class="st12" style="fill: rgb(252, 205, 205);" transform="matrix(1, 0, 0, 1, 0, 0)"/><path d="M 1719.800049 1089.599976 H 1726.600049 V 1580.199982 H 1719.800049 V 1089.599976 Z" class="st12" style="fill: rgb(252, 205, 205);" transform="matrix(1, 0, 0, 1, 0, 0)"/><path d="M 1811.5 1089.599976 H 1818.3 V 1580.199982 H 1811.5 V 1089.599976 Z" class="st12" style="fill: rgb(252, 205, 205);" transform="matrix(1, 0, 0, 1, 0, 0)"/><path d="M 1903.300049 1089.599976 H 1910.100049 V 1580.199982 H 1903.300049 V 1089.599976 Z" class="st12" style="fill: rgb(252, 205, 205);" transform="matrix(1, 0, 0, 1, 0, 0)"/><path d="M 1995 1089.599976 H 2001.8 V 1580.199982 H 1995 V 1089.599976 Z" class="st12" style="fill: rgb(252, 205, 205);" transform="matrix(1, 0, 0, 1, 0, 0)"/><path d="M 2086.800049 1089.599976 H 2093.600049 V 1580.199982 H 2086.800049 V 1089.599976 Z" class="st12" style="fill: rgb(252, 205, 205);" transform="matrix(1, 0, 0, 1, 0, 0)"/><path d="M 905.900024 1131.199951 H 992.600021 V 1139.199951 H 905.900024 V 1131.199951 Z" class="st12" style="fill: rgb(252, 205, 205);" transform="matrix(1, 0, 0, 1, 0, 0)"/><path d="M 905.900024 1304.199951 H 992.600021 V 1312.199951 H 905.900024 V 1304.199951 Z" class="st12" style="fill: rgb(252, 205, 205);" transform="matrix(1, 0, 0, 1, 0, 0)"/><path d="M 989.200012 1198.199951 H 1080.900009 V 1206.199951 H 989.200012 V 1198.199951 Z" class="st12" style="fill: rgb(252, 205, 205);" transform="matrix(1, 0, 0, 1, 0, 0)"/><path d="M 989.200012 1382.199951 H 1080.900009 V 1390.199951 H 989.200012 V 1382.199951 Z" class="st12" style="fill: rgb(252, 205, 205);" transform="matrix(1, 0, 0, 1, 0, 0)"/><path d="M 905.900024 1477.199951 H 992.600021 V 1485.199951 H 905.900024 V 1477.199951 Z" class="st12" style="fill: rgb(252, 205, 205);" transform="matrix(1, 0, 0, 1, 0, 0)"/><path d="M 1081.800049 1131.199951 H 1172.300049 V 1139.199951 H 1081.800049 V 1131.199951 Z" class="st12" style="fill: rgb(252, 205, 205);" transform="matrix(1, 0, 0, 1, 0, 0)"/><path d="M 1081.800049 1304.199951 H 1172.300049 V 1312.199951 H 1081.800049 V 1304.199951 Z" class="st12" style="fill: rgb(252, 205, 205);" transform="matrix(1, 0, 0, 1, 0, 0)"/><path d="M 1172.300049 1198.199951 H 1264.500046 V 1206.199951 H 1172.300049 V 1198.199951 Z" class="st12" style="fill: rgb(252, 205, 205);" transform="matrix(1, 0, 0, 1, 0, 0)"/><path d="M 1172.699951 1382.199951 H 1264.399948 V 1390.199951 H 1172.699951 V 1382.199951 Z" class="st12" style="fill: rgb(252, 205, 205);" transform="matrix(1, 0, 0, 1, 0, 0)"/><path d="M 1081.800049 1477.199951 H 1172.300049 V 1485.199951 H 1081.800049 V 1477.199951 Z" class="st12" style="fill: rgb(252, 205, 205);" transform="matrix(1, 0, 0, 1, 0, 0)"/><path d="M 1264.900024 1131.199951 H 1355.400024 V 1139.199951 H 1264.900024 V 1131.199951 Z" class="st12" style="fill: rgb(252, 205, 205);" transform="matrix(1, 0, 0, 1, 0, 0)"/><path d="M 1264.900024 1304.199951 H 1355.400024 V 1312.199951 H 1264.900024 V 1304.199951 Z" class="st12" style="fill: rgb(252, 205, 205);" transform="matrix(1, 0, 0, 1, 0, 0)"/><path d="M 1355.400024 1198.199951 H 1447.600021 V 1206.199951 H 1355.400024 V 1198.199951 Z" class="st12" style="fill: rgb(252, 205, 205);" transform="matrix(1, 0, 0, 1, 0, 0)"/><path d="M 1355.800049 1382.199951 H 1447.500046 V 1390.199951 H 1355.800049 V 1382.199951 Z" class="st12" style="fill: rgb(252, 205, 205);" transform="matrix(1, 0, 0, 1, 0, 0)"/><path d="M 1264.900024 1477.199951 H 1355.400024 V 1485.199951 H 1264.900024 V 1477.199951 Z" class="st12" style="fill: rgb(252, 205, 205);" transform="matrix(1, 0, 0, 1, 0, 0)"/><path d="M 1447.900024 1131.199951 H 1538.400024 V 1139.199951 H 1447.900024 V 1131.199951 Z" class="st12" style="fill: rgb(252, 205, 205);" transform="matrix(1, 0, 0, 1, 0, 0)"/><path d="M 1447.900024 1304.199951 H 1538.400024 V 1312.199951 H 1447.900024 V 1304.199951 Z" class="st12" style="fill: rgb(252, 205, 205);" transform="matrix(1, 0, 0, 1, 0, 0)"/><path d="M 1538.5 1198.199951 H 1630.699997 V 1206.199951 H 1538.5 V 1198.199951 Z" class="st12" style="fill: rgb(252, 205, 205);" transform="matrix(1, 0, 0, 1, 0, 0)"/><path d="M 1538.900024 1382.199951 H 1630.600021 V 1390.199951 H 1538.900024 V 1382.199951 Z" class="st12" style="fill: rgb(252, 205, 205);" transform="matrix(1, 0, 0, 1, 0, 0)"/><path d="M 1447.900024 1477.199951 H 1538.400024 V 1485.199951 H 1447.900024 V 1477.199951 Z" class="st12" style="fill: rgb(252, 205, 205);" transform="matrix(1, 0, 0, 1, 0, 0)"/><path d="M 1631 1131.199951 H 1721.5 V 1139.199951 H 1631 V 1131.199951 Z" class="st12" style="fill: rgb(252, 205, 205);" transform="matrix(1, 0, 0, 1, 0, 0)"/><path d="M 1631 1304.199951 H 1721.5 V 1312.199951 H 1631 V 1304.199951 Z" class="st12" style="fill: rgb(252, 205, 205);" transform="matrix(1, 0, 0, 1, 0, 0)"/><path d="M 1721.599976 1198.199951 H 1813.799973 V 1206.199951 H 1721.599976 V 1198.199951 Z" class="st12" style="fill: rgb(252, 205, 205);" transform="matrix(1, 0, 0, 1, 0, 0)"/><path d="M 1722 1382.199951 H 1813.699997 V 1390.199951 H 1722 V 1382.199951 Z" class="st12" style="fill: rgb(252, 205, 205);" transform="matrix(1, 0, 0, 1, 0, 0)"/><path d="M 1631 1477.199951 H 1721.5 V 1485.199951 H 1631 V 1477.199951 Z" class="st12" style="fill: rgb(252, 205, 205);" transform="matrix(1, 0, 0, 1, 0, 0)"/><path d="M 1814.099976 1131.199951 H 1904.599976 V 1139.199951 H 1814.099976 V 1131.199951 Z" class="st12" style="fill: rgb(252, 205, 205);" transform="matrix(1, 0, 0, 1, 0, 0)"/><path d="M 1814.099976 1304.199951 H 1904.599976 V 1312.199951 H 1814.099976 V 1304.199951 Z" class="st12" style="fill: rgb(252, 205, 205);" transform="matrix(1, 0, 0, 1, 0, 0)"/><path d="M 1904.699951 1198.199951 H 1996.899948 V 1206.199951 H 1904.699951 V 1198.199951 Z" class="st12" style="fill: rgb(252, 205, 205);" transform="matrix(1, 0, 0, 1, 0, 0)"/><path d="M 1905.099976 1382.199951 H 1996.799973 V 1390.199951 H 1905.099976 V 1382.199951 Z" class="st12" style="fill: rgb(252, 205, 205);" transform="matrix(1, 0, 0, 1, 0, 0)"/><path d="M 1814.099976 1477.199951 H 1904.599976 V 1485.199951 H 1814.099976 V 1477.199951 Z" class="st12" style="fill: rgb(252, 205, 205);" transform="matrix(1, 0, 0, 1, 0, 0)"/><path d="M 1997.199951 1131.199951 H 2090.099953 V 1139.199951 H 1997.199951 V 1131.199951 Z" class="st12" style="fill: rgb(252, 205, 205);" transform="matrix(1, 0, 0, 1, 0, 0)"/><path d="M 1997.199951 1304.199951 H 2090.099953 V 1312.199951 H 1997.199951 V 1304.199951 Z" class="st12" style="fill: rgb(252, 205, 205);" transform="matrix(1, 0, 0, 1, 0, 0)"/><path d="M 2090.199951 1198.199951 H 2173.499954 V 1206.199951 H 2090.199951 V 1198.199951 Z" class="st12" style="fill: rgb(252, 205, 205);" transform="matrix(1, 0, 0, 1, 0, 0)"/><path d="M 2086.800049 1382.199951 H 2173.500046 V 1390.199951 H 2086.800049 V 1382.199951 Z" class="st12" style="fill: rgb(252, 205, 205);" transform="matrix(1, 0, 0, 1, 0, 0)"/><path d="M 1997.199951 1477.199951 H 2090.099953 V 1485.199951 H 1997.199951 V 1477.199951 Z" class="st12" style="fill: rgb(252, 205, 205);" transform="matrix(1, 0, 0, 1, 0, 0)"/><g transform="matrix(1, 0, 0, 1, 0, 0)">
						<path class="st14" d="M1620.6,603.6c-27.4-17.8-64-20.2-95.3-14.1c-16.7,3.3-35.3,8.9-48,20.6c-11,10.1-15.3,25.4-10.2,38.7&#10;&#9;&#9;&#9;&#9;&#9;&#9;&#9;c-0.1,13.1,4.6,26,18.4,30.9c7.5,2.7,15.4,1.5,23,0.5c9-1.1,18.1-2.2,27.2-2.6c8.5-0.4,17.1-0.2,25.5,1.3&#10;&#9;&#9;&#9;&#9;&#9;&#9;&#9;c8.4,1.5,16.7,3.9,25.1,5.5c14.8,2.7,31.5,2.7,44.4-6.4c13-9.2,17.9-24.5,15.1-39.9C1643.2,623.4,1632.9,611.6,1620.6,603.6z" style="fill: rgb(84, 57, 91);"/>
						<linearGradient id="SVGID_3_" gradientUnits="userSpaceOnUse" x1="1561.674" y1="734.3942" x2="1561.674" y2="705.8052">
							<stop offset="0.5205" style="stop-color:#FFA099"/>
							<stop offset="1" style="stop-color:#E0706E"/>
						</linearGradient>
						<path class="st15" d="M1577.2,656.8c-7.2-4.7-17.8-6.7-25.9-3.8c-8.1,2.9-16,8.5-20.1,17.2c-4.4,9.3-5.2,18.4-3.4,28.8&#10;&#9;&#9;&#9;&#9;&#9;&#9;&#9;c0.2,1.4,0.5,2.8,0.7,4.2c1.1,11.9,1,23.8-0.2,35.7c-0.9,8.9,4.4,20.4,9.8,26.4c5.8,6.5,15.4,11.3,23.8,10.9&#10;&#9;&#9;&#9;&#9;&#9;&#9;&#9;c8.7-0.4,17.7-3.6,23.8-10.9c1.8-2.5,3.5-5,5.3-7.6c3-5.8,4.6-12.1,4.6-18.8c2.1-20,0.5-40-2.8-59.7&#10;&#9;&#9;&#9;&#9;&#9;&#9;&#9;C1591.2,670.4,1583.9,661.2,1577.2,656.8z" style="fill: url('#SVGID_3_');"/>
						<linearGradient id="SVGID_4_" gradientUnits="userSpaceOnUse" x1="1465.916" y1="616.6389" x2="1489.3094" y2="616.6389">
							<stop offset="0.5205" style="stop-color:#FFAB92"/>
							<stop offset="1" style="stop-color:#EF907B"/>
						</linearGradient>
						<path class="st16" d="M1488.4,599.4c-7.5,1.4-12.1,10.3-10.3,19.8c1.8,9.5,9.3,16.1,16.8,14.7c7.5-1.4,12.1-10.3,10.3-19.8&#10;&#9;&#9;&#9;&#9;&#9;&#9;&#9;C1503.3,604.6,1495.8,598,1488.4,599.4z" style="fill: url('#SVGID_4_');"/>
						<linearGradient id="SVGID_5_" gradientUnits="userSpaceOnUse" x1="1654.274" y1="616.6389" x2="1626.465" y2="616.6389">
							<stop offset="0.5205" style="stop-color:#FFAB92"/>
							<stop offset="1" style="stop-color:#EF907B"/>
						</linearGradient>
						<path class="st17" d="M1628,599.4c-7.5-1.4-15,5.2-16.8,14.7s2.8,18.4,10.3,19.8c7.5,1.4,15-5.2,16.8-14.7&#10;&#9;&#9;&#9;&#9;&#9;&#9;&#9;C1640.1,609.7,1635.5,600.8,1628,599.4z" style="fill: url('#SVGID_5_');"/>
						<linearGradient id="SVGID_6_" gradientUnits="userSpaceOnUse" x1="1557.9949" y1="680.0324" x2="1557.9949" y2="540.2658">
							<stop offset="0.5205" style="stop-color:#FFA099"/>
							<stop offset="1" style="stop-color:#E0706E"/>
						</linearGradient>
						<path class="st18" d="M1625.7,560.2c-8.4-47.8-67.7-46.6-67.7-46.6s-59.3-1.2-67.7,46.6c-7.2,40.6,5.8,37.2,2.9,64.2&#10;&#9;&#9;&#9;&#9;&#9;&#9;&#9;c-2.7,25.3,29.8,80.2,64.8,80.2s67.5-54.9,64.8-80.2C1619.9,597.4,1632.9,600.8,1625.7,560.2z" style="fill: url('#SVGID_6_');"/>
						<linearGradient id="SVGID_7_" gradientUnits="userSpaceOnUse" x1="1514.6025" y1="648.1784" x2="1514.6027" y2="966.1923">
							<stop offset="0.1812" style="stop-color:#F26DAA"/>
							<stop offset="0.3031" style="stop-color:#EF67A3"/>
							<stop offset="0.4748" style="stop-color:#E75691"/>
							<stop offset="0.5621" style="stop-color:#E24B85"/>
						</linearGradient>
						<path class="st19" d="M1665.7,721.6c-24.2-7.2-43.7-2.3-59.4,1.8c7.2-8.8-5.6-21.3-13.8-12.7c-16.8,17.7-42.8,9.6-60.7-1.8&#10;&#9;&#9;&#9;&#9;&#9;&#9;&#9;c-7.6-4.9-14.8,3-13.7,10c-18.6-7.4-28.5-14.9-58.5-4.9c-32,10.7-148.8,159.2-148.8,159.2l49.5,34.1l84.3-73.5v19.9&#10;&#9;&#9;&#9;&#9;&#9;&#9;&#9;c0.7,15.7,3.3,37,11.6,49.4c14.4,21.4,6.6,122.3,6.6,122.3h99.6h86.7c0,0-17.5-93.8-4.8-120.1c7.7-16,11.2-30.8,12.6-42.5&#10;&#9;&#9;&#9;&#9;&#9;&#9;&#9;v-26.9l3.9,146.3l57.6-11.3C1718.3,970.9,1712.4,735.4,1665.7,721.6z" style="fill: url('#SVGID_7_');"/>
						<linearGradient id="SVGID_8_" gradientUnits="userSpaceOnUse" x1="1555.7843" y1="467.6548" x2="1555.7843" y2="710.243">
							<stop offset="0.1812" style="stop-color:#906A99"/>
							<stop offset="0.297" style="stop-color:#8A6592"/>
							<stop offset="0.4601" style="stop-color:#785680"/>
							<stop offset="0.5621" style="stop-color:#6A4A71"/>
						</linearGradient>
						<path class="st20" d="M1668.9,618.3c-1.1-2.4-2.5-4.7-3.9-6.9c-1.6-12.2-2-24.6-4.8-36.6c-4.5-18.9-13-37-25.9-51.6&#10;&#9;&#9;&#9;&#9;&#9;&#9;&#9;c-12.5-14.1-29.6-24.7-48.2-28.3c-0.2,0-0.4-0.1-0.6-0.1c-0.2,0-0.4-0.1-0.7-0.1c-0.8-0.1-1.6-0.3-2.4-0.4&#10;&#9;&#9;&#9;&#9;&#9;&#9;&#9;c-0.7-0.1-1.3-0.1-2-0.1c-19.4-2.1-39.1-0.6-57.8,5.4c-17.8,5.7-35.8,14.8-46.4,30.8c-7.5,11.3-8.3,25.4-13.4,37.6&#10;&#9;&#9;&#9;&#9;&#9;&#9;&#9;c-2.7,2.2-5.4,4.3-8,6.6c-5,4.2-8.5,9.3-8.8,16c0,0.9,0,1.8,0,2.7c-1.4,2.9-2.3,6.1-2.5,9.6c-0.3,5,1.4,9.9,1.3,14.9&#10;&#9;&#9;&#9;&#9;&#9;&#9;&#9;c-0.1,4.4-3.2,8-5.2,11.8c-5.5,10.1-6,22.1-0.5,32.3c1,1.9,2.2,3.6,3.5,5.2c0,5,2.7,10.4,7.2,13.4c4,2.7,10,4.6,14.4,1.9&#10;&#9;&#9;&#9;&#9;&#9;&#9;&#9;c1.4-0.8,2.5-2,3.4-3.5c11-0.4,20.9-9.1,21.9-20.6c0.6-6.8-2.4-12.7-3.2-19.3c-0.6-5,3.2-7.6,6.6-10.7&#10;&#9;&#9;&#9;&#9;&#9;&#9;&#9;c4.8-4.4,8.9-9.3,10.8-15.7c1.7-6,0.6-13,3.3-18.7c10.5-7.6,25.4-8.7,36-16.4c7-5.1,12.6-11.8,16.4-19.5c3.1-3,6-6.1,8.9-9.4&#10;&#9;&#9;&#9;&#9;&#9;&#9;&#9;c3.6,7.8,8.3,15.1,13.9,21.6c4.3,5.1,9.3,9.4,14.7,13.4c5.2,7.1,12.1,13,17.8,19.8c2.9,3.5,5.4,7.2,7.6,11.1&#10;&#9;&#9;&#9;&#9;&#9;&#9;&#9;c-0.2,5.6-1.2,11.2-0.7,16.8c0.7,7.6,4,14,6.3,21.2c0.9,2.7,2.3,6.9,0.9,9.8c-0.2,0.4-1.3,2.1-1.5,2c-0.1,0-0.3,0-0.4-0.1&#10;&#9;&#9;&#9;&#9;&#9;&#9;&#9;c-1.2-0.2-2.4-0.2-3.6,0.1c-3.2,0.6-6,2.6-7,6.2c0,0.2-0.1,0.4-0.1,0.6c-0.7,2.4-0.3,5.1,1.8,7.5c0.6,0.8,1.3,1.5,2.2,2.1&#10;&#9;&#9;&#9;&#9;&#9;&#9;&#9;c1.7,1.5,3.6,2.9,5.6,4.1c3.1,6.7,10,11.1,17.8,10.9c6.2-0.2,11.5-2.9,15.5-7c2.5-1.1,4.9-2.6,7.1-4.5&#10;&#9;&#9;&#9;&#9;&#9;&#9;&#9;c6.6-5.7,9.3-14.8,9.9-23.2c0.5-6.8-1.3-13.3-3.5-19.7C1673.6,633.5,1672.4,625.6,1668.9,618.3z M1448.6,586.4&#10;&#9;&#9;&#9;&#9;&#9;&#9;&#9;c1.8-6.4,7.2-10.4,12.3-14.2c-1.3,2.4-2.8,4.7-4.7,6.9c-3,3.4-5.9,6.9-8.2,10.6C1448.1,588.6,1448.3,587.5,1448.6,586.4z&#10;&#9;&#9;&#9;&#9;&#9;&#9;&#9; M1452,679.5c-3.8-2.3-6.5-6.3-7.2-10.4c3.8,3.6,8.5,6.2,13.5,7.8c0.6,0.4,1.3,0.7,2.2,1c1.6,0.5,3.3,0.8,4.9,0.9&#10;&#9;&#9;&#9;&#9;&#9;&#9;&#9;C1461.9,682.8,1456.4,682.1,1452,679.5z M1536.3,579.4c-8.6,4.6-18.6,6.3-26.9,10.9c3.2-3.6,8.1-5.9,12.2-7.8&#10;&#9;&#9;&#9;&#9;&#9;&#9;&#9;c6.7-3.1,13.5-5.7,19.7-9.7c4.8-3.1,9.2-6.6,13.4-10.4C1550.2,569.4,1543.9,575.3,1536.3,579.4z M1619.2,606&#10;&#9;&#9;&#9;&#9;&#9;&#9;&#9;c-5-6.8-11.4-12.5-16.9-18.9c4.2,2.7,8.4,5.3,12.1,8.6c4.3,3.9,7.7,8.4,8.1,14.4c0,0.2,0,0.4,0,0.7&#10;&#9;&#9;&#9;&#9;&#9;&#9;&#9;C1621.4,609.1,1620.3,607.5,1619.2,606z M1645.7,693.4c-6.7,0.9-13.2-1.9-16.8-7c7.9,4,17,5.7,25.4,3.7&#10;&#9;&#9;&#9;&#9;&#9;&#9;&#9;C1651.8,691.8,1649,693,1645.7,693.4z M1669.8,633.3c-2-5.5-3.2-11.1-4.1-16.8c3.3,6.4,5.2,13.1,5.3,19.9&#10;&#9;&#9;&#9;&#9;&#9;&#9;&#9;C1670.6,635.4,1670.2,634.3,1669.8,633.3z" style="fill: url('#SVGID_8_');"/>
						<path class="st21" d="M1548.5,735.6c-13.2-2.3-30.3-16.8-30.3-16.8C1530.8,737,1548.5,735.6,1548.5,735.6z" style="fill: rgb(226, 75, 133);"/>
						<path class="st21" d="M1575.6,735.6c0,0,19,6.5,30.8-12.2C1606.4,723.4,1592.6,737.4,1575.6,735.6z" style="fill: rgb(226, 75, 133);"/>
						<path class="st22" d="M1641.4,880.2c-13.6,6.7-3.8,20.9,1.9,27.5c0.3-0.8,0.6-1.6,1-2.4c5.9-12.3,9.3-23.9,11.2-34l1.3-35.5&#10;&#9;&#9;&#9;&#9;&#9;&#9;&#9;l-3.7-18.7C1653.1,817.3,1659.5,871.3,1641.4,880.2z" style="fill: rgb(206, 65, 122);"/>
						<path class="st22" d="M1449.2,816.1c0,0-13.2,10.6-13.4,11.3c-0.2,0.7-3.3,12.7-3.3,12.7l2.3,2.2l9.7-8.5v17.7&#10;&#9;&#9;&#9;&#9;&#9;&#9;&#9;c0,0,14.3-16.1,20.9-11.5c6.6,4.6,8.9,12.6,8.9,12.6l17.9-15.6l-17.7-21.2L1449.2,816.1z" style="fill: rgb(206, 65, 122);"/>
						<path class="st21" d="M1619.5,764.7c3.4-11.6-6-43.2-6-43.2s-1.4,96.9-11.9,106.2l11.9-5.3l6.9-32&#10;&#9;&#9;&#9;&#9;&#9;&#9;&#9;C1620.4,790.4,1616,776.3,1619.5,764.7z" style="fill: rgb(226, 75, 133);"/>
						<path class="st21" d="M1487.4,709.2c0,0,0.8,84-11.4,91.5l20.4-2.8l5.7-28.8c0,0-7.3-26-7.3-29.4S1487.4,709.2,1487.4,709.2z" style="fill: rgb(226, 75, 133);"/>
						<g>
							<path class="st23" d="M1635.8,718.6c-8.4-0.5-15.1,0.9-22.3,2.9c2.2,30.8,1.6,61.8-2.3,92.4c-0.6,4.7-4.1,8.6-8.7,9.7&#10;&#9;&#9;&#9;&#9;&#9;&#9;&#9;&#9;c-29.7,6.7-62.1,2.1-84.8-3.3c-5.6-1.3-9.4-6.6-8.7-12.4c3.4-30.6,4-61.5,1.6-92.2c-7.7-3.3-14.5-6-23.1-6.5&#10;&#9;&#9;&#9;&#9;&#9;&#9;&#9;&#9;c3.6,38.6,2.6,77.7-3.4,116c-13,39.7-32.5,68-32.7,68.2c1.3,3.6,2.9,6.8,4.8,9.7c14.4,21.4,6.6,122.3,6.6,122.3h99.6h86.7&#10;&#9;&#9;&#9;&#9;&#9;&#9;&#9;&#9;c0,0-17.5-93.8-4.8-120.1c2.4-5,4.4-10,6.1-14.7c1-9.7-13.1-62.7-16.7-76.1C1637.5,782.7,1638.3,750.6,1635.8,718.6z" style="fill: rgb(106, 74, 113);"/>
							<path class="st0" d="M1620,833c-10.2,4.7-21.2,7-32.5,7c-4.8,0-4.8,7.5,0,7.5c12.6,0,24.8-2.7,36.3-8&#10;&#9;&#9;&#9;&#9;&#9;&#9;&#9;&#9;C1628.2,837.5,1624.4,831,1620,833z" style="fill: rgb(255, 255, 255);"/>
						</g>
						<linearGradient id="SVGID_9_" gradientUnits="userSpaceOnUse" x1="1696.2941" y1="1026.447" x2="1691.0983" y2="984.1194">
							<stop offset="0.5205" style="stop-color:#FFA099"/>
							<stop offset="1" style="stop-color:#E0706E"/>
						</linearGradient>
						<path d="M 1673.199951171875 1025.4000244140625 L 1710.800048828125 1025.4000244140625 L 1712.5999755859375 972.0999755859375 L 1670 980.4000244140625 Z" class="st24" style="fill: url('#SVGID_9_');"/>
						<path class="st21" d="M1672.2,977.3c-0.5,0.2-4.2,1.1-4.4,1.5c1.4,0.2,2,1.3,1.9,3.2c0.3-0.4,0.7-0.8,1.1-1.1&#10;&#9;&#9;&#9;&#9;&#9;&#9;&#9;c1.3-0.8,2.7-2.1,3.8-3.1c1-0.9,1.9-1.8,2.6-2.9c-0.2,0.1-0.3,0.1-0.5,0.2C1675.3,975.8,1673.8,976.6,1672.2,977.3z" style="fill: rgb(226, 75, 133);"/>
						<path class="st21" d="M1710.6,979.4c0.4-1.3,0.7-2.7,1.1-4c4.7-0.6,5.8-1.4,3.3-2.5c-0.6-0.4-1.2-0.7-1.8-1&#10;&#9;&#9;&#9;&#9;&#9;&#9;&#9;c-1.7-0.9-3.6-1.7-5.5-2.2c-0.6-0.2-1.3-0.3-2-0.4c0.2,0.3,0.3,0.7,0.5,1C1707.3,972.5,1710.4,976.8,1710.6,979.4z" style="fill: rgb(226, 75, 133);"/>
						<path class="st21" d="M1664.2,965.6c0.1,0.3,0.3,0.5,0.5,0.8C1664,965.4,1665.1,964.7,1664.2,965.6z" style="fill: rgb(226, 75, 133);"/>
						<path class="st21" d="M1715.2,951.9c-1.8-3.9-7.5-4.9-10.9-2.9c-4,2.3-4.7,7-2.9,10.9c1.4,3.1,2.9,6.1,4.3,9.2&#10;&#9;&#9;&#9;&#9;&#9;&#9;&#9;c0.7,0.1,1.3,0.3,2,0.4c1.9,0.5,3.7,1.3,5.5,2.2c0.6,0.3,1.2,0.6,1.8,1c2.5,1.1,1.4,2-3.3,2.5c-0.4,1.3-0.7,2.7-1.1,4&#10;&#9;&#9;&#9;&#9;&#9;&#9;&#9;c-0.1-2.6-3.2-6.9-4.4-9.2c-0.2-0.3-0.3-0.7-0.5-1c-2.6-0.5-5.2-0.7-7.8-0.5c-7.4,0.4-14.1,3.2-20.7,6.3c-0.8,1-1.7,2-2.6,2.9&#10;&#9;&#9;&#9;&#9;&#9;&#9;&#9;c-1.1,1-2.5,2.3-3.8,3.1c-0.4,0.3-0.8,0.7-1.1,1.1c0.1-1.9-0.5-3-1.9-3.2c0.2-0.4,3.9-1.3,4.4-1.5c1.5-0.7,3.1-1.5,4.6-2.2&#10;&#9;&#9;&#9;&#9;&#9;&#9;&#9;c0.2-0.1,0.3-0.1,0.5-0.2c3.6-4.8,4.8-11.1,1.2-16.5c-5.5-8.3-18.7-1-14.3,7.3c0.9-1-0.2-0.2,0.5,0.8&#10;&#9;&#9;&#9;&#9;&#9;&#9;&#9;c-0.2-0.3-0.3-0.5-0.5-0.8c-0.2,0.2-0.5,0.5-0.8,0.8c-0.9,0.8-1.9,1.5-2.8,2.2c-2.2,1.8-4,3.9-5.3,6.5&#10;&#9;&#9;&#9;&#9;&#9;&#9;&#9;c-2.8,5.6-1.6,12.2,3.3,16.2c10.6,8.8,23.3-2.2,33.8-5.5c4.8-1.5,9.5-2,14,0.4c4.8,2.6,9.9,4.7,15.1,1.5&#10;&#9;&#9;&#9;&#9;&#9;&#9;&#9;c6.7-4.1,5.4-11.2,2.6-17.3C1721.1,964.3,1718.2,958.1,1715.2,951.9z" style="fill: rgb(226, 75, 133);"/>
						<path class="st21" d="M1710.7,933c-3.4-2.6-9-0.5-10.9,2.9c-2.4,4.1-0.6,8.3,2.9,10.9c5.4,4.1,7.1,10.9,6.5,17.3&#10;&#9;&#9;&#9;&#9;&#9;&#9;&#9;c-0.4,4.3,4,8,8,8c4.7,0,7.6-3.7,8-8C1726.3,951.7,1720.4,940.5,1710.7,933z" style="fill: rgb(226, 75, 133);"/>
						<path class="st21" d="M1666.1,949.4c-6,6.5-9.2,14-10.2,22.7c-0.5,4.3,4.1,8,8,8c4.8,0,7.5-3.7,8-8c0.5-4.2,2.7-8.3,5.6-11.4&#10;&#9;&#9;&#9;&#9;&#9;&#9;&#9;c2.9-3.2,3.1-8.2,0-11.3C1674.4,946.4,1669,946.2,1666.1,949.4z" style="fill: rgb(226, 75, 133);"/>
						<path class="st21" d="M1338.7,827.5c-0.1,0.2-0.3,0.4-0.4,0.6C1338.6,827.8,1338.7,827.6,1338.7,827.5z" style="fill: rgb(226, 75, 133);"/>
						<path class="st21" d="M1368.2,816c-6.1-4-13.9-4.5-20.3-0.9c-3,1.7-5.6,4.4-7.3,7.5c-0.7,1.3-1,3.5-1.8,4.9&#10;&#9;&#9;&#9;&#9;&#9;&#9;&#9;c0,0.1-0.1,0.3-0.4,0.6c0.1-0.2,0.3-0.4,0.4-0.6c0.1-0.4-1.3,0.4-2.3,0.7c-6.8,1.4-12.6,3.9-16.8,9.7&#10;&#9;&#9;&#9;&#9;&#9;&#9;&#9;c-4.3,5.9-5.2,13.4-3.2,20.3c2.9,9.9,18.3,5.7,15.4-4.3c-0.9-3.2-0.5-6.5,2.4-8.5c2.9-2,7.1-1.7,10.3-3&#10;&#9;&#9;&#9;&#9;&#9;&#9;&#9;c4.8-1.9,7.3-5.4,9.1-10c1.3-3.4,3-4.7,6.3-2.6C1368.7,835.5,1376.7,821.7,1368.2,816z" style="fill: rgb(226, 75, 133);"/>
						<path class="st21" d="M1388.9,878.7c0.3,5.5-2.4,10-7.8,11.6c-3.2,0.9-6.4,1.4-9.4,3.1c-1.4,0.8-2.8,1.9-3.9,3.1&#10;&#9;&#9;&#9;&#9;&#9;&#9;&#9;c-0.6,0.6-3.6,3.3-2,3.2c-10.2,0.7-10.3,16.7,0,16c6.1-0.4,8.7-3.5,12.8-7.4c3.1-3,8.9-2.9,12.7-5&#10;&#9;&#9;&#9;&#9;&#9;&#9;&#9;c8.7-4.8,14.1-14.8,13.5-24.7C1404.3,868.4,1388.3,868.4,1388.9,878.7z" style="fill: rgb(226, 75, 133);"/>
						<g>
							<g>
								<path class="st25" d="M1582.7,872.6l-12.7-10l-5.8-4.6l-7.1-5.6l-12.9-10.2c-1.8-1.4-3.9-2.2-6.1-2.4&#10;&#9;&#9;&#9;&#9;&#9;&#9;&#9;&#9;&#9;c-6.9-6-14.8-11.3-24.4-10.9c-10.1,0.4-17.2,8.1-22.4,16c-5.2,7.8-10.8,16.4-10.2,26.2c0.3,4.8,2.3,9.4,5.5,12.7l-3.8,3.7&#10;&#9;&#9;&#9;&#9;&#9;&#9;&#9;&#9;&#9;c-5,4.9-4.6,13.1,0.9,17.4l19.8,15.6l19.8,15.6c5.5,4.3,13.6,2.8,17.1-3.2l28.3-48.2c1.4-2.4,3.7-4.1,6.4-4.8l6.5-1.7&#10;&#9;&#9;&#9;&#9;&#9;&#9;&#9;&#9;&#9;C1584.1,877.5,1584.8,874.2,1582.7,872.6z M1494.6,876.2c-2.1-2.4-2.6-6.3-2-9.4c1.2-6.3,5.5-12.1,9.1-17.2&#10;&#9;&#9;&#9;&#9;&#9;&#9;&#9;&#9;&#9;c3.3-4.7,7.5-9.8,13.9-9.5c4.3,0.2,8,2.3,11.5,4.9L1494.6,876.2z" style="fill: rgb(239, 222, 249);"/>
								<g>
									<path class="st26" d="M1493,842.5c-0.6,0.8-1.2,1.6-1.7,2.5c-4.7,7-9.6,14.7-10.2,23.3c4.2-1.2,8.3-2.7,12.3-4.6&#10;&#9;&#9;&#9;&#9;&#9;&#9;&#9;&#9;&#9;&#9;c1.8-5.1,5.2-9.8,8.2-14c0.2-0.2,0.3-0.4,0.5-0.7c-0.2-0.5-0.4-1-0.7-1.5C1499.3,844.4,1496.3,842.6,1493,842.5z" style="fill: rgb(218, 202, 229);"/>
									<path class="st26" d="M1513.7,829c-1.1,0-2.2,0.2-3.3,0.4c-0.3,0.2-0.5,0.5-0.8,0.7c-3.4,2.9-3.8,8.6-1.7,12.4&#10;&#9;&#9;&#9;&#9;&#9;&#9;&#9;&#9;&#9;&#9;c2.1-1.6,4.6-2.6,7.5-2.4c3.6,0.2,6.8,1.7,9.8,3.7c2.8-2.4,5.3-5.2,7.6-8.2C1527.2,831.6,1521,828.7,1513.7,829z" style="fill: rgb(218, 202, 229);"/>
								</g>
								<path class="st27" d="M1530,853.3c-4,3.9-8,7.8-12,11.7c-2,1.9,1.2,4.8,3.2,2.9c4-3.9,8-7.8,12-11.7&#10;&#9;&#9;&#9;&#9;&#9;&#9;&#9;&#9;&#9;C1535.2,854.3,1532,851.4,1530,853.3z" style="fill: rgb(250, 243, 255);"/>
								<path class="st27" d="M1512,869.6c-0.6,0.6-1.2,1.2-1.8,1.8c-0.8,0.8-0.7,2.3,0.1,3c0.9,0.8,2.2,0.7,3-0.1&#10;&#9;&#9;&#9;&#9;&#9;&#9;&#9;&#9;&#9;c0.6-0.6,1.2-1.2,1.8-1.8c0.8-0.8,0.7-2.3-0.1-3C1514.1,868.6,1512.9,868.7,1512,869.6z" style="fill: rgb(250, 243, 255);"/>
								<linearGradient id="SVGID_10_" gradientUnits="userSpaceOnUse" x1="1528.5305" y1="866.7152" x2="1517.8972" y2="921.9177">
									<stop offset="0.2522" style="stop-color:#8E5E5B"/>
									<stop offset="0.5188" style="stop-color:#855654"/>
									<stop offset="0.738" style="stop-color:#7A4C4B"/>
								</linearGradient>
								<path class="st28" d="M1486.6,883.9l-3.8,3.7c0,0-0.7,0.9-1.8,2.2c-3.1,4.9-2.1,11.5,2.6,15.2l19.8,15.6l19.8,15.6&#10;&#9;&#9;&#9;&#9;&#9;&#9;&#9;&#9;&#9;c5.5,4.3,13.6,2.8,17.1-3.2l28.3-48.2c0,0,0,0,0-0.1c0.3-0.4,0.5-0.8,0.5-0.8L1486.6,883.9&#10;&#9;&#9;&#9;&#9;&#9;&#9;&#9;&#9;&#9;C1486.5,883.9,1486.6,883.9,1486.6,883.9z" style="fill: url('#SVGID_10_');"/>
							</g>
							<linearGradient id="SVGID_11_" gradientUnits="userSpaceOnUse" x1="1472.5111" y1="817.9716" x2="1280.38" y2="941.8202">
								<stop offset="0.5205" style="stop-color:#FFA099"/>
								<stop offset="1" style="stop-color:#E0706E"/>
							</linearGradient>
							<path class="st29" d="M1492.9,787.6c-37.3-10.5-135.3,47.8-168.1,68.2c-10,6.2-16.7,16.7-17.9,28.4&#10;&#9;&#9;&#9;&#9;&#9;&#9;&#9;&#9;c-3,31.3,33.6,40,41.9,35.4c34.8-19.1,92.7-79.2,102-86c22.8-16.7,24.1,29.8,32.7,29.3c12-0.6,32.8-15.6,44.9-25.1&#10;&#9;&#9;&#9;&#9;&#9;&#9;&#9;&#9;c7-5.5,9-15.3,4.6-23C1527.7,805.6,1516.4,794.2,1492.9,787.6z" style="fill: url('#SVGID_11_');"/>
						</g>
					</g><linearGradient id="SVGID_12_" gradientUnits="userSpaceOnUse" x1="1677.3164" y1="986.7438" x2="1647.0721" y2="986.7438">
							<stop offset="0" style="stop-color:#B3DFDE"/>
							<stop offset="1" style="stop-color:#77C3D1"/>
						</linearGradient><path class="st30" d="M1660,970.1c-3.2,1.1-1.8,6.1,1.4,5c5-1.7,10.9-3.2,13.9,2.6c1.9,3.7,1.7,8.3,0.2,12.1&#10;&#9;&#9;&#9;&#9;&#9;&#9;&#9;c-3.3,8.4-12.4,11.8-20.7,9.1c-3.2-1.1-4.6,4-1.4,5c12.3,4,25.6-3.1,28-16c1-5.3,0.1-11.5-3.6-15.7&#10;&#9;&#9;&#9;&#9;&#9;&#9;&#9;C1673,966.9,1666.1,968.1,1660,970.1z" style="fill: url('#SVGID_12_');" transform="matrix(1, 0, 0, 1, 0, 0)"/><linearGradient id="SVGID_13_" gradientUnits="userSpaceOnUse" x1="1634.6429" y1="967.6199" x2="1635.9546" y2="1034.6511">
							<stop offset="0" style="stop-color:#B3DFDE"/>
							<stop offset="1" style="stop-color:#77C3D1"/>
						</linearGradient><path class="st31" d="M1599,958.4l10.7,57.5c1,5.5,5.9,9.6,11.5,9.6h13.3h13.3c5.6,0,10.5-4,11.5-9.6l10.7-57.5h-35.5H1599z" style="fill: url('#SVGID_13_');" transform="matrix(1, 0, 0, 1, 0, 0)"/><path class="st32" d="M1610.3,969.2c-0.7-2.6-4.7-1.5-4,1.1c1.9,6.7,3.7,13.5,5.6,20.2c0.7,2.6,4.7,1.5,4-1.1&#10;&#9;&#9;&#9;&#9;&#9;&#9;&#9;C1614,982.6,1612.1,975.9,1610.3,969.2z" style="fill: rgb(206, 237, 235);" transform="matrix(1, 0, 0, 1, 0, 0)"/><path class="st32" d="M1614.1,1000.2c0,0,0,0.1,0,0.1C1614.2,1000.5,1614.2,1000.5,1614.1,1000.2z" style="fill: rgb(206, 237, 235);" transform="matrix(1, 0, 0, 1, 0, 0)"/><path class="st32" d="M1614,1000.1c0,0.1,0.1,0.1,0,0.1C1614.1,1000.1,1614,999.9,1614,1000.1z" style="fill: rgb(206, 237, 235);" transform="matrix(1, 0, 0, 1, 0, 0)"/><path class="st32" d="M1614.5,996.9c-0.9,0.6-1.3,1.9-0.7,2.9c0,0,0.1,0.2,0.2,0.3c0-0.2,0.1,0,0,0.1c0,0,0-0.1,0-0.1&#10;&#9;&#9;&#9;&#9;&#9;&#9;&#9;c0,0,0,0.1,0,0.1c0,0,0,0.1,0.1,0.2c0-0.1,0-0.1,0-0.1c0.1,0.3,0.1,0.3,0,0.1c0,0.1,0,0.2,0,0.3c0,1.1,1.1,2.1,2.2,2&#10;&#9;&#9;&#9;&#9;&#9;&#9;&#9;c1.1-0.1,2-1,2-2.2c0-1-0.4-2.1-0.9-2.9C1616.8,996.7,1615.4,996.3,1614.5,996.9z" style="fill: rgb(206, 237, 235);" transform="matrix(1, 0, 0, 1, 0, 0)"/><path class="st33" d="M1965,857.9c-9.5,0.2-18.6,2.9-26.8,7.5c-7.9,4.4-0.8,16.5,7.1,12.1c5.3-2.9,11-4.9,17.1-5.4&#10;&#9;&#9;&#9;&#9;&#9;&#9;c3.1-0.3,11.5-1.4,11.8,2.8c0.2,2.3-2,5.7-3,7.7c-1.3,2.8-2.7,5.6-4.2,8.4c-3.2,6.1-6.6,12-10.2,17.8&#10;&#9;&#9;&#9;&#9;&#9;&#9;c-4.8,7.7,7.3,14.7,12.1,7.1c5.3-8.4,10.1-17.2,14.4-26.2c3.5-7.3,7.5-16,2.7-23.7C1981.7,858.9,1972.6,857.7,1965,857.9z" style="fill: rgb(147, 149, 152);" transform="matrix(1, 0, 0, 1, 0, 0)"/><linearGradient id="SVGID_14_" gradientUnits="userSpaceOnUse" x1="1915.1875" y1="961.6756" x2="1903.2245" y2="864.2189">
						<stop offset="0.5205" style="stop-color:#D1D3D4"/>
						<stop offset="1" style="stop-color:#E6E7E8"/>
					</linearGradient><path d="M 1885.699951171875 843.2000122070312 L 1890.800048828125 937.5 L 1903.9000244140625 937.5 L 1916.9000244140625 937.5 L 1922.0999755859375 843.2000122070312 L 1903.9000244140625 843.2000122070312 Z" class="st34" style="fill: url('#SVGID_14_');" transform="matrix(1, 0, 0, 1, 0, 0)"/><linearGradient id="SVGID_15_" gradientUnits="userSpaceOnUse" x1="1888.6495" y1="1012.191" x2="1871.913" y2="875.8464">
						<stop offset="0.5205" style="stop-color:#D1D3D4"/>
						<stop offset="1" style="stop-color:#E6E7E8"/>
					</linearGradient><path d="M 1867.9000244140625 843.2000122070312 L 1849.699951171875 843.2000122070312 L 1865.199951171875 937.5 L 1878.300048828125 937.5 L 1891.4000244140625 937.5 L 1886.0999755859375 843.2000122070312 Z" class="st35" style="fill: url('#SVGID_15_');" transform="matrix(1, 0, 0, 1, 0, 0)"/><linearGradient id="SVGID_16_" gradientUnits="userSpaceOnUse" x1="1937.6542" y1="916.7725" x2="1936.5082" y2="850.2478">
						<stop offset="0.5205" style="stop-color:#D1D3D4"/>
						<stop offset="1" style="stop-color:#E6E7E8"/>
					</linearGradient><path d="M 1921.5999755859375 843.2000122070312 L 1916.4000244140625 937.5 L 1929.4000244140625 937.5 L 1942.5 937.5 L 1958 843.2000122070312 L 1939.800048828125 843.2000122070312 Z" class="st36" style="fill: url('#SVGID_16_');" transform="matrix(1, 0, 0, 1, 0, 0)"/><linearGradient id="SVGID_17_" gradientUnits="userSpaceOnUse" x1="1904.7274" y1="1009.1344" x2="1898.0406" y2="954.6597">
						<stop offset="0.5205" style="stop-color:#D1D3D4"/>
						<stop offset="1" style="stop-color:#E6E7E8"/>
					</linearGradient><path d="M 1903.9000244140625 945.0999755859375 L 1890.800048828125 945.0999755859375 L 1885.699951171875 1017.4000244140625 L 1903.9000244140625 1017.4000244140625 L 1922.0999755859375 1017.4000244140625 L 1916.9000244140625 945.0999755859375 Z" class="st37" style="fill: url('#SVGID_17_');" transform="matrix(1, 0, 0, 1, 0, 0)"/><linearGradient id="SVGID_18_" gradientUnits="userSpaceOnUse" x1="1883.7651" y1="1088.9891" x2="1870.0096" y2="976.9297">
						<stop offset="0.5205" style="stop-color:#D1D3D4"/>
						<stop offset="1" style="stop-color:#E6E7E8"/>
					</linearGradient><path d="M 1865.199951171875 945.0999755859375 L 1849.699951171875 1017.4000244140625 L 1867.9000244140625 1017.4000244140625 L 1886.0999755859375 1017.4000244140625 L 1891.4000244140625 945.0999755859375 L 1878.300048828125 945.0999755859375 Z" class="st38" style="fill: url('#SVGID_18_');" transform="matrix(1, 0, 0, 1, 0, 0)"/><linearGradient id="SVGID_19_" gradientUnits="userSpaceOnUse" x1="1938.6238" y1="1007.5591" x2="1925.5924" y2="901.3984">
						<stop offset="0.5205" style="stop-color:#D1D3D4"/>
						<stop offset="1" style="stop-color:#E6E7E8"/>
					</linearGradient><path d="M 1929.4000244140625 945.0999755859375 L 1916.4000244140625 945.0999755859375 L 1921.5999755859375 1017.4000244140625 L 1939.800048828125 1017.4000244140625 L 1958 1017.4000244140625 L 1942.5 945.0999755859375 Z" class="st39" style="fill: url('#SVGID_19_');" transform="matrix(1, 0, 0, 1, 0, 0)"/><path d="M 1865.199951 937.5 H 1942.399948 V 945.1 H 1865.199951 V 937.5 Z" class="st33" style="fill: rgb(147, 149, 152);" transform="matrix(1, 0, 0, 1, 0, 0)"/><path d="M 1849.699951 1017.400024 H 1957.999954 V 1025.200025 H 1849.699951 V 1017.400024 Z" class="st33" style="fill: rgb(147, 149, 152);" transform="matrix(1, 0, 0, 1, 0, 0)"/><linearGradient id="SVGID_20_" gradientUnits="userSpaceOnUse" x1="1872.5237" y1="860.0281" x2="1838.4778" y2="860.0281">
						<stop offset="0.5205" style="stop-color:#D1D3D4"/>
						<stop offset="1" style="stop-color:#E6E7E8"/>
					</linearGradient><path d="M 1831.9000244140625 843.2000122070312 L 1855.300048828125 876.7999877929688 L 1849.699951171875 843.2000122070312 Z" class="st40" style="fill: url('#SVGID_20_');" transform="matrix(1, 0, 0, 1, 0, 0)"/><path class="st33" d="M1912,825.4v-0.6c0-4.3-3.3-8.1-7.6-8.4c-4.8-0.3-8.7,3.5-8.7,8.1v0.9c0,1.4-0.9,2.7-2.3,3.2l-43.7,14.6&#10;&#9;&#9;&#9;&#9;&#9;&#9;h54.1h54.1l-43.7-14.6C1913,828.1,1912,826.9,1912,825.4z" style="fill: rgb(147, 149, 152);" transform="matrix(1, 0, 0, 1, 0, 0)"/><path class="st41" d="M1199.8,808.1l-41.9,2.6v2.7v2.7l41.9,2.6c3,0.2,5.6-2.2,5.6-5.3S1202.9,807.9,1199.8,808.1z" style="fill: rgb(207, 208, 209);" transform="matrix(1, 0, 0, 1, 0, 0)"/><path class="st41" d="M1147.1,838.8c0,1.4,1.1,2.5,2.5,2.5h4.2c1.4,0,2.5-1.1,2.5-2.5v-11.7h-9.2V838.8z" style="fill: rgb(207, 208, 209);" transform="matrix(1, 0, 0, 1, 0, 0)"/><path class="st42" d="M1213.2,771.2h-9.3c-4.8,0-8.7,3.9-8.7,8.7c0,4.8,3.9,8.7,8.7,8.7h9.3c4.8,0,8.7-3.9,8.7-8.7&#10;&#9;&#9;&#9;&#9;&#9;C1221.8,775,1217.9,771.2,1213.2,771.2z" style="fill: rgb(119, 195, 209);" transform="matrix(1, 0, 0, 1, 0, 0)"/><path class="st42" d="M1222,978.3h-11.6c-7.9,0-14.3,6.4-14.3,14.3v8.1c0,7.9,6.4,14.3,14.3,14.3h11.6c7.9,0,14.3-6.4,14.3-14.3&#10;&#9;&#9;&#9;&#9;&#9;v-8.1C1236.3,984.7,1229.9,978.3,1222,978.3z" style="fill: rgb(119, 195, 209);" transform="matrix(1, 0, 0, 1, 0, 0)"/><path class="st43" d="M1137.8,817.3c0,7.3,5.9,13.3,13.3,13.3h1.1c7.3,0,13.3-5.9,13.3-13.3v-21.1h-27.7V817.3z" style="fill: rgb(157, 159, 160);" transform="matrix(1, 0, 0, 1, 0, 0)"/><path class="st43" d="M1194.5,946.2H1096v30h109.4v-19C1205.4,951.1,1200.5,946.2,1194.5,946.2z" style="fill: rgb(157, 159, 160);" transform="matrix(1, 0, 0, 1, 0, 0)"/><linearGradient id="SVGID_21_" gradientUnits="userSpaceOnUse" x1="1087.2238" y1="649.1626" x2="1087.2238" y2="952.0325">
					<stop offset="0.5205" style="stop-color:#D1D3D4"/>
					<stop offset="1" style="stop-color:#E6E7E8"/>
				</linearGradient><path class="st44" d="M1196.3,955.1h-79.8c-5.9,0-10.7-4.8-10.7-10.7V796.1c0.3,0,0.6,0,0.9,0h87.4c9.6,0,17.4-7.8,17.4-17.4&#10;&#9;&#9;&#9;&#9;&#9;s-7.8-17.4-17.4-17.4h-87.4c-0.3,0-0.6,0-0.9,0v-13.6c0-14.3-11.6-26-26-26H972.4c-14.3,0-26,11.6-26,26v276.9h159.4H1228v-37.8&#10;&#9;&#9;&#9;&#9;&#9;C1228,969.3,1213.8,955.1,1196.3,955.1z" style="fill: url('#SVGID_21_');" transform="matrix(1, 0, 0, 1, 0, 0)"/><g transform="matrix(1, 0, 0, 1, 0, 0)">
						<linearGradient id="SVGID_22_" gradientUnits="userSpaceOnUse" x1="1025.8186" y1="695.6375" x2="997.9175" y2="695.6375">
							<stop offset="0" style="stop-color:#B3DFDE"/>
							<stop offset="1" style="stop-color:#77C3D1"/>
						</linearGradient>
						<path class="st45" d="M1028.3,679.8c-11.3-3.7-23.6,2.8-25.9,14.8c-0.9,4.9-0.1,10.6,3.4,14.5c4.5,4.9,10.8,3.8,16.5,1.9&#10;&#9;&#9;&#9;&#9;&#9;&#9;&#9;c2.9-1,1.7-5.6-1.3-4.6c-4.6,1.5-10.1,2.9-12.8-2.4c-1.8-3.4-1.5-7.7-0.2-11.2c3-7.8,11.4-10.9,19.1-8.4&#10;&#9;&#9;&#9;&#9;&#9;&#9;&#9;C1030,685.4,1031.3,680.7,1028.3,679.8z" style="fill: url('#SVGID_22_');"/>
						<linearGradient id="SVGID_23_" gradientUnits="userSpaceOnUse" x1="1034.9839" y1="683.5361" x2="1063.5181" y2="738.4105">
							<stop offset="0" style="stop-color:#B3DFDE"/>
							<stop offset="1" style="stop-color:#77C3D1"/>
						</linearGradient>
						<path class="st46" d="M1058,660h-12.2h-12.2c-5.2,0-9.7,3.7-10.6,8.8l-9.9,53h32.8h32.8l-9.9-53&#10;&#9;&#9;&#9;&#9;&#9;&#9;&#9;C1067.7,663.7,1063.2,660,1058,660z" style="fill: url('#SVGID_23_');"/>
						<path class="st32" d="M1066.7,692.2c-0.7-2.4-4.4-1.4-3.7,1c1.7,6.2,3.4,12.4,5.1,18.6c0.7,2.4,4.4,1.4,3.7-1&#10;&#9;&#9;&#9;&#9;&#9;&#9;&#9;C1070.1,704.6,1068.4,698.4,1066.7,692.2z" style="fill: rgb(206, 237, 235);"/>
						<path class="st32" d="M1064.6,683.2c0,0,0-0.1,0-0.1C1064.5,683,1064.5,682.9,1064.6,683.2z" style="fill: rgb(206, 237, 235);"/>
						<path class="st32" d="M1064.6,683.3C1064.6,683.3,1064.6,683.2,1064.6,683.3C1064.6,683.3,1064.7,683.5,1064.6,683.3z" style="fill: rgb(206, 237, 235);"/>
						<path class="st32" d="M1064.6,683.3C1064.7,683.5,1064.6,683.3,1064.6,683.3C1064.6,683.2,1064.6,683.3,1064.6,683.3&#10;&#9;&#9;&#9;&#9;&#9;&#9;&#9;c0,0,0-0.1,0-0.1c0,0,0-0.1-0.1-0.1c0,0,0,0.1,0,0.1c-0.1-0.3-0.1-0.2,0-0.1c0-0.1,0-0.2,0-0.3c0-1-1-1.9-2-1.8&#10;&#9;&#9;&#9;&#9;&#9;&#9;&#9;c-1.1,0.1-1.9,0.9-1.8,2c0,1,0.3,1.9,0.9,2.7c0.6,0.8,1.8,1.2,2.7,0.6c0.8-0.6,1.2-1.8,0.6-2.7&#10;&#9;&#9;&#9;&#9;&#9;&#9;&#9;C1064.8,683.6,1064.7,683.4,1064.6,683.3z" style="fill: rgb(206, 237, 235);"/>
					</g><linearGradient id="SVGID_24_" gradientUnits="userSpaceOnUse" x1="981.4194" y1="695.6375" x2="953.5183" y2="695.6375">
							<stop offset="0" style="stop-color:#B3DFDE"/>
							<stop offset="1" style="stop-color:#77C3D1"/>
						</linearGradient><path class="st47" d="M983.9,679.8c-11.3-3.7-23.6,2.8-25.9,14.8c-0.9,4.9-0.1,10.6,3.4,14.5c4.5,4.9,10.8,3.8,16.5,1.9&#10;&#9;&#9;&#9;&#9;&#9;&#9;&#9;c2.9-1,1.7-5.6-1.3-4.6c-4.6,1.5-10.1,2.9-12.8-2.4c-1.8-3.4-1.5-7.7-0.2-11.2c3-7.8,11.4-10.9,19.1-8.4&#10;&#9;&#9;&#9;&#9;&#9;&#9;&#9;C985.6,685.4,986.9,680.7,983.9,679.8z" style="fill: url('#SVGID_24_');" transform="matrix(1, 0, 0, 1, 0, 0)"/><linearGradient id="SVGID_25_" gradientUnits="userSpaceOnUse" x1="1000.3639" y1="668.952" x2="1001.5738" y2="730.7899">
							<stop offset="0" style="stop-color:#B3DFDE"/>
							<stop offset="1" style="stop-color:#77C3D1"/>
						</linearGradient><path class="st48" d="M1013.6,660h-12.2h-12.2c-5.2,0-9.7,3.7-10.6,8.8l-9.9,53h32.8h32.8l-9.9-53&#10;&#9;&#9;&#9;&#9;&#9;&#9;&#9;C1023.3,663.7,1018.8,660,1013.6,660z" style="fill: url('#SVGID_25_');" transform="matrix(1, 0, 0, 1, 0, 0)"/><path class="st32" d="M1022.3,692.2c-0.7-2.4-4.4-1.4-3.7,1c1.7,6.2,3.4,12.4,5.1,18.6c0.7,2.4,4.4,1.4,3.7-1&#10;&#9;&#9;&#9;&#9;&#9;&#9;&#9;C1025.7,704.6,1024,698.4,1022.3,692.2z" style="fill: rgb(206, 237, 235);" transform="matrix(1, 0, 0, 1, 0, 0)"/><path class="st32" d="M1020.2,683.2c0,0,0-0.1,0-0.1C1020.1,683,1020.1,682.9,1020.2,683.2z" style="fill: rgb(206, 237, 235);" transform="matrix(1, 0, 0, 1, 0, 0)"/><path class="st32" d="M1020.2,683.3C1020.2,683.3,1020.2,683.2,1020.2,683.3C1020.2,683.3,1020.3,683.5,1020.2,683.3z" style="fill: rgb(206, 237, 235);" transform="matrix(1, 0, 0, 1, 0, 0)"/><path class="st32" d="M1020.2,683.3C1020.3,683.5,1020.2,683.3,1020.2,683.3C1020.2,683.2,1020.2,683.3,1020.2,683.3&#10;&#9;&#9;&#9;&#9;&#9;&#9;&#9;c0,0,0-0.1,0-0.1c0,0,0-0.1-0.1-0.1c0,0,0,0.1,0,0.1c-0.1-0.3-0.1-0.2,0-0.1c0-0.1,0-0.2,0-0.3c0-1-1-1.9-2-1.8&#10;&#9;&#9;&#9;&#9;&#9;&#9;&#9;c-1.1,0.1-1.9,0.9-1.8,2c0,1,0.3,1.9,0.9,2.7c0.6,0.8,1.8,1.2,2.7,0.6c0.8-0.6,1.2-1.8,0.6-2.7&#10;&#9;&#9;&#9;&#9;&#9;&#9;&#9;C1020.4,683.6,1020.3,683.4,1020.2,683.3z" style="fill: rgb(206, 237, 235);" transform="matrix(1, 0, 0, 1, 0, 0)"/><linearGradient id="SVGID_26_" gradientUnits="userSpaceOnUse" x1="982.8032" y1="664.7126" x2="954.902" y2="664.7126">
							<stop offset="0" style="stop-color:#B3DFDE"/>
							<stop offset="1" style="stop-color:#77C3D1"/>
						</linearGradient><path class="st49" d="M985.3,648.8c-11.3-3.7-23.6,2.8-25.9,14.8c-0.9,4.9-0.1,10.6,3.4,14.5c4.5,4.9,10.8,3.8,16.5,1.9&#10;&#9;&#9;&#9;&#9;&#9;&#9;&#9;c2.9-1,1.7-5.6-1.3-4.6c-4.6,1.5-10.1,2.9-12.8-2.4c-1.8-3.4-1.5-7.7-0.2-11.2c3-7.8,11.4-10.9,19.1-8.4&#10;&#9;&#9;&#9;&#9;&#9;&#9;&#9;C987,654.5,988.2,649.8,985.3,648.8z" style="fill: url('#SVGID_26_');" transform="matrix(1, 0, 0, 1, 0, 0)"/><linearGradient id="SVGID_27_" gradientUnits="userSpaceOnUse" x1="1001.7477" y1="638.0271" x2="1002.9576" y2="699.865">
							<stop offset="0" style="stop-color:#B3DFDE"/>
							<stop offset="1" style="stop-color:#77C3D1"/>
						</linearGradient><path class="st50" d="M1015,629.1h-12.2h-12.2c-5.2,0-9.7,3.7-10.6,8.8l-9.9,53h32.8h32.8l-9.9-53&#10;&#9;&#9;&#9;&#9;&#9;&#9;&#9;C1024.7,632.8,1020.2,629.1,1015,629.1z" style="fill: url('#SVGID_27_');" transform="matrix(1, 0, 0, 1, 0, 0)"/><path class="st32" d="M1023.7,661.3c-0.7-2.4-4.4-1.4-3.7,1c1.7,6.2,3.4,12.4,5.1,18.6c0.7,2.4,4.4,1.4,3.7-1&#10;&#9;&#9;&#9;&#9;&#9;&#9;&#9;C1027.1,673.7,1025.4,667.5,1023.7,661.3z" style="fill: rgb(206, 237, 235);" transform="matrix(1, 0, 0, 1, 0, 0)"/><path class="st32" d="M1021.6,652.4C1021.6,652.4,1021.6,652.3,1021.6,652.4C1021.6,652.4,1021.7,652.5,1021.6,652.4z" style="fill: rgb(206, 237, 235);" transform="matrix(1, 0, 0, 1, 0, 0)"/><path class="st32" d="M1021.6,652.3c0,0,0-0.1,0-0.1C1021.5,652,1021.5,652,1021.6,652.3z" style="fill: rgb(206, 237, 235);" transform="matrix(1, 0, 0, 1, 0, 0)"/><path class="st32" d="M1021.6,652.4C1021.7,652.5,1021.6,652.4,1021.6,652.4C1021.6,652.3,1021.6,652.4,1021.6,652.4&#10;&#9;&#9;&#9;&#9;&#9;&#9;&#9;c0,0,0-0.1,0-0.1c0,0,0-0.1-0.1-0.1c0,0,0,0.1,0,0.1c-0.1-0.3-0.1-0.2,0-0.1c0-0.1,0-0.2,0-0.3c0-1-1-1.9-2-1.8&#10;&#9;&#9;&#9;&#9;&#9;&#9;&#9;c-1.1,0.1-1.9,0.9-1.8,2c0,1,0.3,1.9,0.9,2.7c0.6,0.8,1.8,1.2,2.7,0.6c0.8-0.6,1.2-1.8,0.6-2.7&#10;&#9;&#9;&#9;&#9;&#9;&#9;&#9;C1021.8,652.7,1021.7,652.5,1021.6,652.4z" style="fill: rgb(206, 237, 235);" transform="matrix(1, 0, 0, 1, 0, 0)"/><g transform="matrix(1, 0, 0, 1, 0, 0)">
						<g>
							<linearGradient id="SVGID_28_" gradientUnits="userSpaceOnUse" x1="2144.3599" y1="804.2669" x2="2133.9072" y2="928.499">
								<stop offset="0" style="stop-color:#B3DFDE"/>
								<stop offset="1" style="stop-color:#77C3D1"/>
							</linearGradient>
							<path class="st51" d="M2179.2,853.3c-1.5-4-1.7-8.7-1.9-13.1c-0.4-7.5-0.8-14.7-3.2-21.6c-4.8-13.4-15.4-22.6-26.9-21.4&#10;&#9;&#9;&#9;&#9;&#9;&#9;&#9;&#9;c-5.4,0.5-10.6,3.1-14.7,7.7c-4.8,5.3-7.7,13-13,17.4c-5.3,4.4-11.5,6.5-15.8,12.8c-3.8,5.5-6,12.3-8,19.2&#10;&#9;&#9;&#9;&#9;&#9;&#9;&#9;&#9;c-5.5,18.9-10.5,38.5-8.4,58.9c2.1,19.9,9.6,38,17,55.4c1.9,4.4,7,0.6,5.4-3.8c0.2-0.5,0.3-1.1,0.3-1.9c0-7.7,2.9-15,8-19.1&#10;&#9;&#9;&#9;&#9;&#9;&#9;&#9;&#9;c4.9-3.9,11-3.6,16.5-4.7c4.8-1,9.4-3.5,12.3-8.8c3.2-6.1,2.7-13.5,4.5-20.2c2-7.4,7.8-8.9,13.2-10.2&#10;&#9;&#9;&#9;&#9;&#9;&#9;&#9;&#9;c5.2-1.2,10.7-2.1,15.1-6.1c8-7.3,11.6-21.7,4.9-32C2182.7,858.9,2180.5,856.6,2179.2,853.3z" style="fill: url('#SVGID_28_');"/>
						</g>
						<path class="st52" d="M2150,857.2c-5.2,4-12.1,3.9-17.4,0.3c4.5-8.4,10.6-15.8,16.7-23c2.1-2.5-1.5-6-3.5-3.5&#10;&#9;&#9;&#9;&#9;&#9;&#9;&#9;c-3.1,3.7-6.3,7.5-9.2,11.4c0-0.1-0.1-0.1-0.1-0.2c-1.1-1.6-1.4-3.3-1.2-5.2c0.2-1.3-1.3-2.5-2.5-2.5c-1.5,0-2.3,1.2-2.5,2.5&#10;&#9;&#9;&#9;&#9;&#9;&#9;&#9;c-0.3,2.7,0.4,5.5,1.8,7.8c0.5,0.8,1.2,1.1,1.9,1.1c-2.8,4-5.4,8.2-7.5,12.7c-4.2,9.1-5.9,19-8.8,28.6&#10;&#9;&#9;&#9;&#9;&#9;&#9;&#9;c-2.4-7.8-3.6-15.9-3.8-24.2c0-3.2-5-3.2-5,0c0.2,11,2.2,21.7,6.2,31.9c-6.9,19.2-15.9,38.1-14.8,59c0.2,3.2,5.2,3.2,5,0&#10;&#9;&#9;&#9;&#9;&#9;&#9;&#9;c-0.5-9.4,1.1-18.5,3.7-27.4c0.5,0.3,1.2,0.5,1.9,0.2c9.1-2.9,16.7-8.5,22.2-16.4c1.9-2.6-2.5-5.1-4.3-2.5&#10;&#9;&#9;&#9;&#9;&#9;&#9;&#9;c-4.6,6.4-10.9,11.1-18.3,13.7c2.8-8.4,6.2-16.7,9.2-25c0.4-0.4,0.7-1,0.6-1.6c0.2-0.7,0.5-1.4,0.7-2c0.8-2.2,1.4-4.5,2.1-6.8&#10;&#9;&#9;&#9;&#9;&#9;&#9;&#9;c7.5,5.5,17.9,10.7,25.4,2.3c2.1-2.4-1.4-6-3.5-3.5c-6,6.8-14.8,0.5-20.1-3.7c-0.1-0.1-0.2-0.2-0.4-0.2&#10;&#9;&#9;&#9;&#9;&#9;&#9;&#9;c1.6-6.3,3.2-12.7,5.8-18.6c0-0.1,0.1-0.2,0.1-0.3c7.2,4.7,16.4,4,23.2-1.3C2156.1,858.7,2152.5,855.2,2150,857.2z" style="fill: rgb(193, 234, 232);"/>
					</g><linearGradient id="SVGID_29_" gradientUnits="userSpaceOnUse" x1="2070.4395" y1="859.3115" x2="2063.8005" y2="938.2174">
							<stop offset="0" style="stop-color:#B3DFDE"/>
							<stop offset="1" style="stop-color:#77C3D1"/>
						</linearGradient><path class="st53" d="M2094.9,878.6c-3.8-4.2-9.1-5.6-13.7-8.5c-4.6-3-7.1-8.1-11.3-11.6c-3.6-3.1-8-4.8-12.7-5.1&#10;&#9;&#9;&#9;&#9;&#9;&#9;&#9;c-9.9-0.8-19.1,5.4-23.2,14.3c-2.1,4.6-2.5,9.4-2.8,14.4c-0.2,2.9-0.3,6-1.6,8.7c-1.1,2.2-3,3.7-4.5,5.6&#10;&#9;&#9;&#9;&#9;&#9;&#9;&#9;c-5.8,6.9-2.7,16.5,4.2,21.3c3.8,2.7,8.6,3.3,13.1,4.1c4.6,0.8,9.6,1.8,11.4,6.8c1.6,4.4,1.1,9.4,3.9,13.4&#10;&#9;&#9;&#9;&#9;&#9;&#9;&#9;c2.5,3.6,6.5,5.2,10.6,5.9c4.7,0.8,10,0.5,14.2,3.2c4.4,2.7,6.9,7.6,6.9,12.7c0,0.5,0.1,0.9,0.3,1.2c-1.4,2.9,3.1,5.5,4.7,2.5&#10;&#9;&#9;&#9;&#9;&#9;&#9;&#9;c6.4-11.6,12.9-23.6,14.7-36.9c1.8-13.6-2.5-26.7-7.2-39.2C2100.1,886.8,2098.2,882.2,2094.9,878.6z" style="fill: url('#SVGID_29_');" transform="matrix(1, 0, 0, 1, 0, 0)"/><path class="st52" d="M2058.1,881.5c-2.4-2.2-5.9,1.3-3.5,3.5c23.5,21.8,39,50.8,44.3,82.4c0.5,3.2,5.3,1.8,4.8-1.3&#10;&#9;&#9;&#9;&#9;&#9;&#9;&#9;C2098.3,933.7,2082.2,903.8,2058.1,881.5z" style="fill: rgb(193, 234, 232);" transform="matrix(1, 0, 0, 1, 0, 0)"/><path class="st52" d="M2067.6,895.5c-5.3,3-11.1,3.9-17.1,2.3c-3.1-0.8-4.5,4-1.3,4.8c7.2,1.8,14.5,0.8,20.9-2.9&#10;&#9;&#9;&#9;&#9;&#9;&#9;&#9;C2072.9,898.2,2070.4,893.9,2067.6,895.5z" style="fill: rgb(193, 234, 232);" transform="matrix(1, 0, 0, 1, 0, 0)"/><path class="st52" d="M2079.1,891.5c2.4,5.6,2.2,11.5-0.1,17c-1.2,3,3.6,4.3,4.8,1.3c2.8-6.9,2.5-14.1-0.4-20.9&#10;&#9;&#9;&#9;&#9;&#9;&#9;&#9;C2082.2,886.1,2077.9,888.6,2079.1,891.5z" style="fill: rgb(193, 234, 232);" transform="matrix(1, 0, 0, 1, 0, 0)"/><path class="st52" d="M2091.3,927c-7.8,3.1-15.9,2.4-23-2.1c-2.7-1.7-5.2,2.6-2.5,4.3c8.1,5.1,17.9,6.1,26.9,2.6&#10;&#9;&#9;&#9;&#9;&#9;&#9;&#9;C2095.6,930.6,2094.3,925.8,2091.3,927z" style="fill: rgb(193, 234, 232);" transform="matrix(1, 0, 0, 1, 0, 0)"/><linearGradient id="SVGID_30_" gradientUnits="userSpaceOnUse" x1="2089.928" y1="974.0189" x2="2122.3721" y2="1036.4122">
						<stop offset="0.2522" style="stop-color:#8E5E5B"/>
						<stop offset="0.5188" style="stop-color:#855654"/>
						<stop offset="0.738" style="stop-color:#7A4C4B"/>
					</linearGradient><path class="st54" d="M2126.3,958.3h-29.6h-29.6c-7.7,0-13.6,6.7-12.7,14.3l4.9,41.4c0.8,6.4,6.2,11.3,12.7,11.3h24.6h24.6&#10;&#9;&#9;&#9;&#9;&#9;&#9;c6.5,0,12-4.9,12.7-11.3l4.9-41.4C2139.9,965,2134,958.3,2126.3,958.3z" style="fill: url('#SVGID_30_');" transform="matrix(1, 0, 0, 1, 0, 0)"/><g transform="matrix(1, 0, 0, 1, 0, 0)">
						<linearGradient id="SVGID_31_" gradientUnits="userSpaceOnUse" x1="763.9208" y1="964.5037" x2="742.86" y2="1105.9385">
							<stop offset="0" style="stop-color:#B3DFDE"/>
							<stop offset="1" style="stop-color:#77C3D1"/>
						</linearGradient>
						<path class="st55" d="M804.7,1042.5c4.9-4.4,8.2-14,10-21.2c-0.7-1.7-1.5-3.4-2.4-5c-1.6-3-3.5-5.8-5.5-8.5&#10;&#9;&#9;&#9;&#9;&#9;&#9;&#9;c-4.5,31.4-38.8,55.9-38.8,55.9c15.4-15,25.3-51.3,29-66.9c-4.8-4.5-10.1-8.5-15.7-12c-2.4,14.5-10.9,28-16,35.1&#10;&#9;&#9;&#9;&#9;&#9;&#9;&#9;c-1.1,2.1-2.4,3.9-4,5.1c0,0,1.6-1.9,4-5.1c4.9-9.8,5.1-27.9,4.3-41.4c-18.6-8.7-39-12.8-59-16.5c-0.7-0.6-1.8-0.9-2.8-0.5&#10;&#9;&#9;&#9;&#9;&#9;&#9;&#9;c-2.4-0.3-3.6,2.5-2.5,4c-4.2,10.7-7.9,21.5-11.3,32.5l28.8,58.2c-11.6-0.5-25.6-25.6-33.5-41.6c-1.3,4.9-2.5,9.8-3.6,14.8&#10;&#9;&#9;&#9;&#9;&#9;&#9;&#9;c-0.6,2.6-1.2,5.1-1.7,7.7c10.5,20.2,31.9,51.7,64.4,56.4c0,0-50.5-2.3-69.4-29c-1.4,9.7-2.4,19.4-2.6,29.1&#10;&#9;&#9;&#9;&#9;&#9;&#9;&#9;c-0.4,16.4,2.2,33.6,12.4,46.8c13.7,2.3,34.9,4.7,44.6-0.3c1.9-1.3,3-2.2,3-2.2c-0.8,0.8-1.8,1.6-3,2.2&#10;&#9;&#9;&#9;&#9;&#9;&#9;&#9;c-5.4,3.8-17.5,11.4-29.3,14c7.8,5.1,16.5,8.9,24.8,12.8c15.2,7.1,31.6,14.7,38.9,30.8c0.7,1.6,3.6,1.7,4.3,0&#10;&#9;&#9;&#9;&#9;&#9;&#9;&#9;c9-20.5,17.5-41.2,25.3-62.2c7.6-20.5,15.7-41.5,20.4-62.9c2.5-11.7,3.5-23.7,1.7-35.3&#10;&#9;&#9;&#9;&#9;&#9;&#9;&#9;C813.3,1041.7,804.7,1042.5,804.7,1042.5z" style="fill: url('#SVGID_31_');"/>
						<path class="st56" d="M747.6,1029.4c-0.1-3.2-5.1-3.2-5,0c1.7,41.2,27.3,77.3,27.8,118.6c0.5,41.3-31.1,70.7-48.5,105.2&#10;&#9;&#9;&#9;&#9;&#9;&#9;&#9;c-9.4,18.5-14.8,39.7-9.4,60.2c0.8,3.1,5.6,1.8,4.8-1.3c-10.6-40.8,21.6-75,40.7-107.4c9.1-15.4,16.3-32.1,17.3-50.1&#10;&#9;&#9;&#9;&#9;&#9;&#9;&#9;c1.2-20.2-4.5-40.1-10.9-59C757,1074,748.5,1052.4,747.6,1029.4z" style="fill: rgb(197, 234, 232);"/>
					</g><linearGradient id="SVGID_32_" gradientUnits="userSpaceOnUse" x1="784.4406" y1="1156.2496" x2="831.4301" y2="1246.6158">
							<stop offset="0" style="stop-color:#B3DFDE"/>
							<stop offset="1" style="stop-color:#77C3D1"/>
						</linearGradient><path class="st57" d="M867.9,1162.3c0-15.1-1.6-30.2-3.3-45.2c-0.2-1.8-2.8-2.8-4.1-1.4c-13.7,14.7-32.1,22.8-50.1,31.1&#10;&#9;&#9;&#9;&#9;&#9;&#9;&#9;c-2.4,5.5-4.1,12.8-1.5,20c0,0-7.6-3.9-5.1-17c-3,1.4-5.9,2.9-8.8,4.4c-3.5,1.8-6.9,3.7-10.2,5.8c-2.9,8.9-4.6,22.6,6.1,33.6&#10;&#9;&#9;&#9;&#9;&#9;&#9;&#9;c0,0-15.9-11-17.3-25.7c-2.7,2.2-5.3,4.6-7.6,7.1c0.4,4.3,1.7,9.9,5.4,13.1c0,0-7.8-1.2-12.2-4.7c-5.5,8.2-9.2,17.3-11.5,27&#10;&#9;&#9;&#9;&#9;&#9;&#9;&#9;c3.3,9.5,8.2,21,13.8,26.9c0,0-8-5.7-16.2-13c-1.7,15.4-0.7,31,0.4,46.4c0,0.3,0.1,0.5,0.2,0.7c-0.1,0.2-0.3,0.4-0.4,0.7&#10;&#9;&#9;&#9;&#9;&#9;&#9;&#9;c-1.7,2.7,2.4,5.5,4.1,2.8c9.2-14.3,27.8-14.6,43-15.3c14.1-0.7,27-3.5,38.7-11.7c7.1-4.9,13-11,17.8-17.8&#10;&#9;&#9;&#9;&#9;&#9;&#9;&#9;c-14.8-3.9-37.4-19.2-37.4-19.2c16.6,9.6,35.8,6,46.6,2.7c1.9-4.3,3.4-8.7,4.7-13.2c-13.3,3.9-29.4-5.8-29.4-5.8&#10;&#9;&#9;&#9;&#9;&#9;&#9;&#9;c11.7,0.9,23.9-5.9,33.2-13c0.3-2.4,0.5-4.8,0.7-7.2c0.1-2,0.2-3.9,0.3-5.9c-4.8,7.4-11.3,6.2-11.3,6.2&#10;&#9;&#9;&#9;&#9;&#9;&#9;&#9;C860.8,1173.8,865.4,1166.6,867.9,1162.3z" style="fill: url('#SVGID_32_');" transform="matrix(1, 0, 0, 1, 0, 0)"/><path class="st56" d="M815.7,1181.6c-16.4,29.4-42.1,51.8-61.3,79.2c-18,25.6-30.3,58.5-18.7,89.4c1.1,3,6,1.7,4.8-1.3&#10;&#9;&#9;&#9;&#9;&#9;&#9;&#9;c-11.9-31.6,2.4-64.3,21.3-89.8c18.8-25.5,42.7-47.1,58.2-74.9C821.5,1181.3,817.2,1178.8,815.7,1181.6z" style="fill: rgb(197, 234, 232);" transform="matrix(1, 0, 0, 1, 0, 0)"/><linearGradient id="SVGID_33_" gradientUnits="userSpaceOnUse" x1="613.8409" y1="1056.2725" x2="730.5427" y2="1280.7035">
							<stop offset="0" style="stop-color:#B3DFDE"/>
							<stop offset="1" style="stop-color:#77C3D1"/>
						</linearGradient><path class="st58" d="M731.7,1166.2c12.5-9.7,8.7-32.8,4.8-46.9c-10.7-9.4-23.7-16-37.3-21.3c-5.2,28.9-29,26.5-29,26.5&#10;&#9;&#9;&#9;&#9;&#9;&#9;&#9;c14.7-6.5,19.9-20,21.7-29.2c-5-1.8-10-3.4-14.9-5c-6.5,9.9-23.5,18.9-23.5,18.9c4.4-4.2,3.9-15.6,2.6-25.4&#10;&#9;&#9;&#9;&#9;&#9;&#9;&#9;c-18.4-5.7-36.8-12.1-52.7-23.1c-0.6-0.4-1.2-0.5-1.7-0.4c-0.1,0-0.1,0-0.2,0c0,0,0,0,0,0c-0.4,0.1-0.8,0.4-1.1,0.8&#10;&#9;&#9;&#9;&#9;&#9;&#9;&#9;c-20.6,26.6-31.8,61.6-25.6,94.6c23.2,6.4,59.3,11.8,85.9-2.1c0,0-36.4,25.1-80.5,20.7c0.2,0.5,0.4,0.9,0.6,1.4&#10;&#9;&#9;&#9;&#9;&#9;&#9;&#9;c3.2,7.5,7.4,14.6,12.4,21.1c15.1-1.1,35.6-4.5,44.1-14.2c0,0-13.9,20.6-28,30.6c2.7,2.1,5.4,4,8.3,5.8&#10;&#9;&#9;&#9;&#9;&#9;&#9;&#9;c19.5,11.9,41.6,12.1,63.6,15c22.3,2.9,53.3,14.7,51.8,42.2c-0.1,2.4,3.7,3.4,4.7,1.2c17.8-39.8,37.4-86.8,19.3-129.6&#10;&#9;&#9;&#9;&#9;&#9;&#9;&#9;C746.9,1158.2,731.7,1166.2,731.7,1166.2z" style="fill: url('#SVGID_33_');" transform="matrix(1, 0, 0, 1, 0, 0)"/><path class="st56" d="M676.6,1153.3c36.2,53.6,73.9,119.5,50,186c-1.1,3,3.7,4.3,4.8,1.3c24.4-67.7-13.6-135.1-50.5-189.8&#10;&#9;&#9;&#9;&#9;&#9;&#9;&#9;C679.1,1148.1,674.8,1150.6,676.6,1153.3z" style="fill: rgb(197, 234, 232);" transform="matrix(1, 0, 0, 1, 0, 0)"/><linearGradient id="SVGID_34_" gradientUnits="userSpaceOnUse" x1="716.8533" y1="1381.6693" x2="823.0073" y2="1585.8158">
						<stop offset="0.2522" style="stop-color:#8E5E5B"/>
						<stop offset="0.5188" style="stop-color:#855654"/>
						<stop offset="0.738" style="stop-color:#7A4C4B"/>
					</linearGradient><path class="st59" d="M790.7,1303.3h-52.3h-52.3c-5.1,0-9.1,4.3-8.8,9.4l18.5,257.7c0.3,4.5,4,8,8.6,8.1l34,0.8l34-0.8&#10;&#9;&#9;&#9;&#9;&#9;&#9;c4.5-0.1,8.2-3.6,8.6-8.1l18.5-257.7C799.8,1307.6,795.8,1303.3,790.7,1303.3z" style="fill: url('#SVGID_34_');" transform="matrix(1, 0, 0, 1, 0, 0)"/><linearGradient id="SVGID_35_" gradientUnits="userSpaceOnUse" x1="1930.5088" y1="576.0768" x2="2013.5706" y2="735.8144">
					<stop offset="0.2522" style="stop-color:#8E5E5B"/>
					<stop offset="0.5188" style="stop-color:#855654"/>
					<stop offset="0.738" style="stop-color:#7A4C4B"/>
				</linearGradient><path class="st60" d="M2168.1,603.7H1735c-3,0-5.5,2.4-5.5,5.5v14.6c0,3,2.4,5.5,5.5,5.5h433.1c3,0,5.5-2.4,5.5-5.5v-14.6&#10;&#9;&#9;&#9;&#9;&#9;C2173.5,606.2,2171.1,603.7,2168.1,603.7z" style="fill: url('#SVGID_35_');" transform="matrix(1, 0, 0, 1, 0, 0)"/><linearGradient id="SVGID_36_" gradientUnits="userSpaceOnUse" x1="2038.4066" y1="424.1468" x2="2121.3923" y2="583.7379">
					<stop offset="0.2522" style="stop-color:#8E5E5B"/>
					<stop offset="0.5188" style="stop-color:#855654"/>
					<stop offset="0.738" style="stop-color:#7A4C4B"/>
				</linearGradient><path class="st61" d="M2275.6,451.7h-432.5c-3.2,0-5.8,2.6-5.8,5.8v14.1c0,3.2,2.6,5.8,5.8,5.8h432.5c3.2,0,5.8-2.6,5.8-5.8&#10;&#9;&#9;&#9;&#9;&#9;v-14.1C2281.4,454.3,2278.8,451.7,2275.6,451.7z" style="fill: url('#SVGID_36_');" transform="matrix(1, 0, 0, 1, 0, 0)"/><g transform="matrix(1, 0, 0, 1, 0, 0)">
						<linearGradient id="SVGID_37_" gradientUnits="userSpaceOnUse" x1="2047.5558" y1="575.3231" x2="2017.3116" y2="575.3231">
							<stop offset="0" style="stop-color:#B3DFDE"/>
							<stop offset="1" style="stop-color:#77C3D1"/>
						</linearGradient>
						<path class="st62" d="M2050.3,558.1c-12.3-4-25.6,3.1-28,16c-1,5.3-0.1,11.5,3.6,15.7c4.8,5.3,11.7,4.1,17.8,2.1&#10;&#9;&#9;&#9;&#9;&#9;&#9;&#9;c3.2-1.1,1.8-6.1-1.4-5c-5,1.7-10.9,3.2-13.9-2.6c-1.9-3.7-1.7-8.3-0.2-12.1c3.3-8.4,12.4-11.8,20.7-9.1&#10;&#9;&#9;&#9;&#9;&#9;&#9;&#9;C2052.1,564.2,2053.5,559.2,2050.3,558.1z" style="fill: url('#SVGID_37_');"/>
						<linearGradient id="SVGID_38_" gradientUnits="userSpaceOnUse" x1="2068.0916" y1="546.3964" x2="2069.4031" y2="613.4276">
							<stop offset="0" style="stop-color:#B3DFDE"/>
							<stop offset="1" style="stop-color:#77C3D1"/>
						</linearGradient>
						<path class="st63" d="M2082.5,536.7h-13.3h-13.3c-5.6,0-10.5,4-11.5,9.6l-10.7,57.5h35.5h35.5l-10.7-57.5&#10;&#9;&#9;&#9;&#9;&#9;&#9;&#9;C2092.9,540.7,2088.1,536.7,2082.5,536.7z" style="fill: url('#SVGID_38_');"/>
						<path class="st32" d="M2091.9,571.6c-0.7-2.6-4.7-1.5-4,1.1c1.9,6.7,3.7,13.5,5.6,20.2c0.7,2.6,4.7,1.5,4-1.1&#10;&#9;&#9;&#9;&#9;&#9;&#9;&#9;C2095.6,585.1,2093.7,578.4,2091.9,571.6z" style="fill: rgb(206, 237, 235);"/>
						<path class="st32" d="M2089.6,562c0,0.2-0.1,0,0-0.1C2089.6,561.9,2089.6,561.9,2089.6,562c0,0,0-0.1,0-0.1c0,0,0-0.1-0.1-0.2&#10;&#9;&#9;&#9;&#9;&#9;&#9;&#9;c0,0,0,0.1,0,0.1c-0.1-0.3-0.1-0.3,0-0.1c0-0.1,0-0.2,0-0.3c0-1.1-1.1-2.1-2.2-2c-1.1,0.1-2,1-2,2.2c0,1,0.4,2.1,0.9,2.9&#10;&#9;&#9;&#9;&#9;&#9;&#9;&#9;c0.6,0.9,1.9,1.3,2.9,0.7c0.9-0.6,1.3-1.9,0.7-2.9C2089.8,562.3,2089.7,562.1,2089.6,562z" style="fill: rgb(206, 237, 235);"/>
						<path class="st32" d="M2089.6,562c0-0.1-0.1-0.1,0-0.1C2089.6,561.9,2089.7,562.1,2089.6,562z" style="fill: rgb(206, 237, 235);"/>
						<path class="st32" d="M2089.6,561.8c0,0,0-0.1,0-0.1C2089.5,561.6,2089.5,561.5,2089.6,561.8z" style="fill: rgb(206, 237, 235);"/>
					</g><linearGradient id="SVGID_39_" gradientUnits="userSpaceOnUse" x1="1973.0559" y1="575.3231" x2="1942.8116" y2="575.3231">
							<stop offset="0" style="stop-color:#B3DFDE"/>
							<stop offset="1" style="stop-color:#77C3D1"/>
						</linearGradient><path class="st64" d="M1975.8,558.1c-12.3-4-25.6,3.1-28,16c-1,5.3-0.1,11.5,3.6,15.7c4.8,5.3,11.7,4.1,17.8,2.1&#10;&#9;&#9;&#9;&#9;&#9;&#9;&#9;c3.2-1.1,1.8-6.1-1.4-5c-5,1.7-10.9,3.2-13.9-2.6c-1.9-3.7-1.7-8.3-0.2-12.1c3.3-8.4,12.4-11.8,20.7-9.1&#10;&#9;&#9;&#9;&#9;&#9;&#9;&#9;C1977.6,564.2,1979,559.2,1975.8,558.1z" style="fill: url('#SVGID_39_');" transform="matrix(1, 0, 0, 1, 0, 0)"/><linearGradient id="SVGID_40_" gradientUnits="userSpaceOnUse" x1="1993.5914" y1="546.3964" x2="1994.903" y2="613.4276">
							<stop offset="0" style="stop-color:#B3DFDE"/>
							<stop offset="1" style="stop-color:#77C3D1"/>
						</linearGradient><path class="st65" d="M2008,536.7h-13.3h-13.3c-5.6,0-10.5,4-11.5,9.6l-10.7,57.5h35.5h35.5l-10.7-57.5&#10;&#9;&#9;&#9;&#9;&#9;&#9;&#9;C2018.4,540.7,2013.6,536.7,2008,536.7z" style="fill: url('#SVGID_40_');" transform="matrix(1, 0, 0, 1, 0, 0)"/><path class="st32" d="M2017.4,571.6c-0.7-2.6-4.7-1.5-4,1.1c1.9,6.7,3.7,13.5,5.6,20.2c0.7,2.6,4.7,1.5,4-1.1&#10;&#9;&#9;&#9;&#9;&#9;&#9;&#9;C2021.1,585.1,2019.2,578.4,2017.4,571.6z" style="fill: rgb(206, 237, 235);" transform="matrix(1, 0, 0, 1, 0, 0)"/><path class="st32" d="M2015.1,562c0-0.1-0.1-0.1,0-0.1C2015.1,561.9,2015.2,562.1,2015.1,562z" style="fill: rgb(206, 237, 235);" transform="matrix(1, 0, 0, 1, 0, 0)"/><path class="st32" d="M2015.1,562c0,0.2-0.1,0,0-0.1C2015.1,561.9,2015.1,561.9,2015.1,562c0,0,0-0.1,0-0.1c0,0,0-0.1-0.1-0.2&#10;&#9;&#9;&#9;&#9;&#9;&#9;&#9;c0,0,0,0.1,0,0.1c-0.1-0.3-0.1-0.3,0-0.1c0-0.1,0-0.2,0-0.3c0-1.1-1.1-2.1-2.2-2c-1.1,0.1-2,1-2,2.2c0,1,0.4,2.1,0.9,2.9&#10;&#9;&#9;&#9;&#9;&#9;&#9;&#9;c0.6,0.9,1.9,1.3,2.9,0.7c0.9-0.6,1.3-1.9,0.7-2.9C2015.3,562.3,2015.2,562.1,2015.1,562z" style="fill: rgb(206, 237, 235);" transform="matrix(1, 0, 0, 1, 0, 0)"/><path class="st32" d="M2015.1,561.8c0,0,0-0.1,0-0.1C2015,561.6,2015,561.5,2015.1,561.8z" style="fill: rgb(206, 237, 235);" transform="matrix(1, 0, 0, 1, 0, 0)"/><linearGradient id="SVGID_41_" gradientUnits="userSpaceOnUse" x1="1898.5559" y1="575.3231" x2="1868.3116" y2="575.3231">
							<stop offset="0" style="stop-color:#B3DFDE"/>
							<stop offset="1" style="stop-color:#77C3D1"/>
						</linearGradient><path class="st66" d="M1901.3,558.1c-12.3-4-25.6,3.1-28,16c-1,5.3-0.1,11.5,3.6,15.7c4.8,5.3,11.7,4.1,17.8,2.1&#10;&#9;&#9;&#9;&#9;&#9;&#9;&#9;c3.2-1.1,1.8-6.1-1.4-5c-5,1.7-10.9,3.2-13.9-2.6c-1.9-3.7-1.7-8.3-0.2-12.1c3.3-8.4,12.4-11.8,20.7-9.1&#10;&#9;&#9;&#9;&#9;&#9;&#9;&#9;C1903.1,564.2,1904.5,559.2,1901.3,558.1z" style="fill: url('#SVGID_41_');" transform="matrix(1, 0, 0, 1, 0, 0)"/><linearGradient id="SVGID_42_" gradientUnits="userSpaceOnUse" x1="1919.0914" y1="546.3964" x2="1920.403" y2="613.4276">
							<stop offset="0" style="stop-color:#B3DFDE"/>
							<stop offset="1" style="stop-color:#77C3D1"/>
						</linearGradient><path class="st67" d="M1933.5,536.7h-13.3h-13.3c-5.6,0-10.5,4-11.5,9.6l-10.7,57.5h35.5h35.5l-10.7-57.5&#10;&#9;&#9;&#9;&#9;&#9;&#9;&#9;C1943.9,540.7,1939.1,536.7,1933.5,536.7z" style="fill: url('#SVGID_42_');" transform="matrix(1, 0, 0, 1, 0, 0)"/><path class="st32" d="M1942.9,571.6c-0.7-2.6-4.7-1.5-4,1.1c1.9,6.7,3.7,13.5,5.6,20.2c0.7,2.6,4.7,1.5,4-1.1&#10;&#9;&#9;&#9;&#9;&#9;&#9;&#9;C1946.6,585.1,1944.7,578.4,1942.9,571.6z" style="fill: rgb(206, 237, 235);" transform="matrix(1, 0, 0, 1, 0, 0)"/><path class="st32" d="M1940.6,561.8c0,0,0-0.1,0-0.1C1940.5,561.6,1940.5,561.5,1940.6,561.8z" style="fill: rgb(206, 237, 235);" transform="matrix(1, 0, 0, 1, 0, 0)"/><path class="st32" d="M1940.6,562c0-0.1-0.1-0.1,0-0.1C1940.6,561.9,1940.7,562.1,1940.6,562z" style="fill: rgb(206, 237, 235);" transform="matrix(1, 0, 0, 1, 0, 0)"/><path class="st32" d="M1940.6,562c0,0.2-0.1,0,0-0.1C1940.6,561.9,1940.6,561.9,1940.6,562c0,0,0-0.1,0-0.1c0,0,0-0.1-0.1-0.2&#10;&#9;&#9;&#9;&#9;&#9;&#9;&#9;c0,0,0,0.1,0,0.1c-0.1-0.3-0.1-0.3,0-0.1c0-0.1,0-0.2,0-0.3c0-1.1-1.1-2.1-2.2-2c-1.1,0.1-2,1-2,2.2c0,1,0.4,2.1,0.9,2.9&#10;&#9;&#9;&#9;&#9;&#9;&#9;&#9;c0.6,0.9,1.9,1.3,2.9,0.7c0.9-0.6,1.3-1.9,0.7-2.9C1940.8,562.3,1940.7,562.1,1940.6,562z" style="fill: rgb(206, 237, 235);" transform="matrix(1, 0, 0, 1, 0, 0)"/><linearGradient id="SVGID_43_" gradientUnits="userSpaceOnUse" x1="1824.0559" y1="575.3231" x2="1793.8116" y2="575.3231">
							<stop offset="0" style="stop-color:#B3DFDE"/>
							<stop offset="1" style="stop-color:#77C3D1"/>
						</linearGradient><path class="st68" d="M1826.8,558.1c-12.3-4-25.6,3.1-28,16c-1,5.3-0.1,11.5,3.6,15.7c4.8,5.3,11.7,4.1,17.8,2.1&#10;&#9;&#9;&#9;&#9;&#9;&#9;&#9;c3.2-1.1,1.8-6.1-1.4-5c-5,1.7-10.9,3.2-13.9-2.6c-1.9-3.7-1.7-8.3-0.2-12.1c3.3-8.4,12.4-11.8,20.7-9.1&#10;&#9;&#9;&#9;&#9;&#9;&#9;&#9;C1828.6,564.2,1830,559.2,1826.8,558.1z" style="fill: url('#SVGID_43_');" transform="matrix(1, 0, 0, 1, 0, 0)"/><linearGradient id="SVGID_44_" gradientUnits="userSpaceOnUse" x1="1844.5914" y1="546.3964" x2="1845.903" y2="613.4276">
							<stop offset="0" style="stop-color:#B3DFDE"/>
							<stop offset="1" style="stop-color:#77C3D1"/>
						</linearGradient><path class="st69" d="M1859,536.7h-13.3h-13.3c-5.6,0-10.5,4-11.5,9.6l-10.7,57.5h35.5h35.5l-10.7-57.5&#10;&#9;&#9;&#9;&#9;&#9;&#9;&#9;C1869.4,540.7,1864.6,536.7,1859,536.7z" style="fill: url('#SVGID_44_');" transform="matrix(1, 0, 0, 1, 0, 0)"/><path class="st32" d="M1868.4,571.6c-0.7-2.6-4.7-1.5-4,1.1c1.9,6.7,3.7,13.5,5.6,20.2c0.7,2.6,4.7,1.5,4-1.1&#10;&#9;&#9;&#9;&#9;&#9;&#9;&#9;C1872.1,585.1,1870.2,578.4,1868.4,571.6z" style="fill: rgb(206, 237, 235);" transform="matrix(1, 0, 0, 1, 0, 0)"/><path class="st32" d="M1866.1,562c0-0.1-0.1-0.1,0-0.1C1866.1,561.9,1866.2,562.1,1866.1,562z" style="fill: rgb(206, 237, 235);" transform="matrix(1, 0, 0, 1, 0, 0)"/><path class="st32" d="M1866.1,562c0,0.2-0.1,0,0-0.1C1866.1,561.9,1866.1,561.9,1866.1,562c0,0,0-0.1,0-0.1c0,0,0-0.1-0.1-0.2&#10;&#9;&#9;&#9;&#9;&#9;&#9;&#9;c0,0,0,0.1,0,0.1c-0.1-0.3-0.1-0.3,0-0.1c0-0.1,0-0.2,0-0.3c0-1.1-1.1-2.1-2.2-2c-1.1,0.1-2,1-2,2.2c0,1,0.4,2.1,0.9,2.9&#10;&#9;&#9;&#9;&#9;&#9;&#9;&#9;c0.6,0.9,1.9,1.3,2.9,0.7c0.9-0.6,1.3-1.9,0.7-2.9C1866.3,562.3,1866.2,562.1,1866.1,562z" style="fill: rgb(206, 237, 235);" transform="matrix(1, 0, 0, 1, 0, 0)"/><path class="st32" d="M1866.1,561.8c0,0,0-0.1,0-0.1C1866,561.6,1866,561.5,1866.1,561.8z" style="fill: rgb(206, 237, 235);" transform="matrix(1, 0, 0, 1, 0, 0)"/><g transform="matrix(1, 0, 0, 1, 0, 0)">
						<linearGradient id="SVGID_45_" gradientUnits="userSpaceOnUse" x1="1965.3228" y1="352.6534" x2="1962.6515" y2="452.7418">
							<stop offset="0.2522" style="stop-color:#DD8585"/>
							<stop offset="0.4504" style="stop-color:#D4807F"/>
							<stop offset="0.738" style="stop-color:#BF7371"/>
						</linearGradient>
						<path d="M 1929.699951 347.299988 H 1998.499954 V 451.799988 H 1929.699951 V 347.299988 Z" class="st70" style="fill: url('#SVGID_45_');"/>
						<linearGradient id="SVGID_46_" gradientUnits="userSpaceOnUse" x1="1962.4421" y1="296.9463" x2="1964.1229" y2="348.8563">
							<stop offset="0.2522" style="stop-color:#DD8585"/>
							<stop offset="0.4623" style="stop-color:#D4807F"/>
							<stop offset="0.7673" style="stop-color:#BF7371"/>
						</linearGradient>
						<path d="M 1964.0999755859375 320.3999938964844 L 1939.0999755859375 320.3999938964844 L 1929.699951171875 347.29998779296875 L 1964.0999755859375 347.29998779296875 L 1998.5 347.29998779296875 L 1989.0999755859375 320.3999938964844 Z" class="st71" style="fill: url('#SVGID_46_');"/>
						<path class="st72" d="M1984.1,311.7H1944c-2.8,0-5,2.3-5,5v3.7h50.2v-3.7C1989.1,313.9,1986.9,311.7,1984.1,311.7z" style="fill: rgb(229, 158, 158);"/>
						<path d="M 1929.699951 405.700012 H 1998.499954 V 435.400013 H 1929.699951 V 405.700012 Z" class="st73" style="fill: rgb(122, 76, 75);"/>
					</g><linearGradient id="SVGID_47_" gradientUnits="userSpaceOnUse" x1="2060.656" y1="352.6534" x2="2057.9849" y2="452.7418">
							<stop offset="0.2522" style="stop-color:#DD8585"/>
							<stop offset="0.4504" style="stop-color:#D4807F"/>
							<stop offset="0.738" style="stop-color:#BF7371"/>
						</linearGradient><path d="M 2025 347.299988 H 2093.800003 V 451.799988 H 2025 V 347.299988 Z" class="st74" style="fill: url('#SVGID_47_');" transform="matrix(1, 0, 0, 1, 0, 0)"/><linearGradient id="SVGID_48_" gradientUnits="userSpaceOnUse" x1="2057.7754" y1="296.9463" x2="2059.4563" y2="348.8563">
							<stop offset="0.2522" style="stop-color:#DD8585"/>
							<stop offset="0.4623" style="stop-color:#D4807F"/>
							<stop offset="0.7673" style="stop-color:#BF7371"/>
						</linearGradient><path d="M 2059.39990234375 320.3999938964844 L 2034.4000244140625 320.3999938964844 L 2025 347.29998779296875 L 2059.39990234375 347.29998779296875 L 2093.800048828125 347.29998779296875 L 2084.39990234375 320.3999938964844 Z" class="st75" style="fill: url('#SVGID_48_');" transform="matrix(1, 0, 0, 1, 0, 0)"/><path class="st72" d="M2079.4,311.7h-40.1c-2.8,0-5,2.3-5,5v3.7h50.2v-3.7C2084.5,313.9,2082.2,311.7,2079.4,311.7z" style="fill: rgb(229, 158, 158);" transform="matrix(1, 0, 0, 1, 0, 0)"/><path d="M 2025 405.700012 H 2093.800003 V 435.400013 H 2025 V 405.700012 Z" class="st73" style="fill: rgb(122, 76, 75);" transform="matrix(1, 0, 0, 1, 0, 0)"/><linearGradient id="SVGID_49_" gradientUnits="userSpaceOnUse" x1="2155.9895" y1="352.6534" x2="2153.3181" y2="452.7418">
							<stop offset="0.2522" style="stop-color:#DD8585"/>
							<stop offset="0.4504" style="stop-color:#D4807F"/>
							<stop offset="0.738" style="stop-color:#BF7371"/>
						</linearGradient><path d="M 2120.399902 347.299988 H 2189.199905 V 451.799988 H 2120.399902 V 347.299988 Z" class="st76" style="fill: url('#SVGID_49_');" transform="matrix(1, 0, 0, 1, 0, 0)"/><linearGradient id="SVGID_50_" gradientUnits="userSpaceOnUse" x1="2153.1086" y1="296.9463" x2="2154.7896" y2="348.8563">
							<stop offset="0.2522" style="stop-color:#DD8585"/>
							<stop offset="0.4623" style="stop-color:#D4807F"/>
							<stop offset="0.7673" style="stop-color:#BF7371"/>
						</linearGradient><path d="M 2154.699951171875 320.3999938964844 L 2129.699951171875 320.3999938964844 L 2120.39990234375 347.29998779296875 L 2154.699951171875 347.29998779296875 L 2189.10009765625 347.29998779296875 L 2179.699951171875 320.3999938964844 Z" class="st77" style="fill: url('#SVGID_50_');" transform="matrix(1, 0, 0, 1, 0, 0)"/><path class="st72" d="M2174.8,311.7h-40.1c-2.8,0-5,2.3-5,5v3.7h50.2v-3.7C2179.8,313.9,2177.6,311.7,2174.8,311.7z" style="fill: rgb(229, 158, 158);" transform="matrix(1, 0, 0, 1, 0, 0)"/><path d="M 2120.399902 405.700012 H 2189.199905 V 435.400013 H 2120.399902 V 405.700012 Z" class="st73" style="fill: rgb(122, 76, 75);" transform="matrix(1, 0, 0, 1, 0, 0)"/>
</svg>