<?xml version="1.0" encoding="utf-8"?>
<svg id="master-artboard" viewBox="0 0 3000 2000" version="1.1" xmlns="http://www.w3.org/2000/svg" x="0px" y="0px" width="3000px" height="2000px" style="enable-background:new 0 0 3000 2000;">

<g transform="matrix(1, 0, 0, 1, 0, 0)">
			<path class="st1" d="M923.8,354.8c-15.8-1.7-31.6-2.5-47.4-2.5c-74.2,0-147.7,17.7-215.4,47.9c-37.8,16.9-74.4,39-104.2,68&#10;&#9;&#9;&#9;&#9;c-36.6,35.6-59.1,82.1-61.1,133.4c-2.2,54.5,20.6,107.9,48.9,153.1c23.6,37.7,50.2,73,68.8,113.5c7.1,18.2,13,36.7,17.8,55.6&#10;&#9;&#9;&#9;&#9;c4.7-11,10-21.7,15.9-32.2c27.3-48.8,66.1-90.7,90-141.5c7.4-19.7,11.9-40.2,15-61.1c4-32.7,6.5-65.6,12.5-98.1&#10;&#9;&#9;&#9;&#9;c18-98.1,82.3-181.1,164.3-235.7C927.1,355.2,925.4,355,923.8,354.8z" style="fill: rgb(229, 236, 253);"/>
			<path class="st1" d="M2126.9,551.6c60.4,22.3,121.8,42.8,181.1,67.7c34.7,14.5,68.6,30.9,98.6,52.6&#10;&#9;&#9;&#9;&#9;c-11.6-65.4-36.6-128.2-75.2-182.7C2278,414.1,2207,356,2120.5,323.2c-40.6-15.4-83.3-22.3-126.3-22.3&#10;&#9;&#9;&#9;&#9;c-45.7,0-91.6,7.8-135.1,21.5c-56.6,17.8-109.9,43.7-162.9,70.4c11.1,4.2,22.2,8.3,33.3,12.4C1862,454,1994.5,502.8,2126.9,551.6&#10;&#9;&#9;&#9;&#9;z" style="fill: rgb(229, 236, 253);"/>
			<path class="st1" d="M725.1,1374.4c12.4,22.7,27,44.1,44.2,63.9c33.7,38.9,77,67.1,124.5,86.1c2.3,0.9,4.5,1.8,6.8,2.6&#10;&#9;&#9;&#9;&#9;c-41.9-29.1-82.5-60.3-119.9-95C761.3,1414,742.5,1394.8,725.1,1374.4z" style="fill: rgb(229, 236, 253);"/>
			<path class="st1" d="M2172.1,1245.8c-149.9,127.5-337.9,204.8-527.1,252.9c-139.2,35.4-283.1,54.2-427,55.4&#10;&#9;&#9;&#9;&#9;c-3.7,1.8-7.5,3.6-11.2,5.5c77.8,1.3,155.7,7.6,233.3,11.9c39.9,2.2,80.1,3.7,120.2,3.7c86,0,172-6.7,255.7-27.5&#10;&#9;&#9;&#9;&#9;c61-15.2,121.2-38.7,175-71.4c53.3-32.4,100.9-74.2,143.8-119.2c40.2-42.2,77.1-87.3,115.5-131.1c19.5-22.2,39.4-44.1,60.3-65&#10;&#9;&#9;&#9;&#9;c21.8-21.8,44.7-42.3,66.9-63.6c50.2-48.4,94.6-102.9,116-170.3c11.8-37.3,13.7-75.8,7.6-114.2c-5.2-32.7-20.4-63.1-40.5-89.1&#10;&#9;&#9;&#9;&#9;c-15.7-20.3-34-37.2-54.1-51.7c4.3,24.3,6.8,48.9,7.5,73.5C2419.4,938.7,2316.5,1123,2172.1,1245.8z" style="fill: rgb(229, 236, 253);"/>
			<path class="st1" d="M725.1,1374.4c-13.4-24.4-24.2-50.2-33.1-77c-31.3-94.5-33-195.5-45.4-293.5c-3.9-26.9-8.7-53.8-15.5-80.1&#10;&#9;&#9;&#9;&#9;c-22,51.1-31.8,107.4-28.2,163c4.5,68.4,24.4,134.3,57.2,194.4C678.1,1314.4,700.3,1345.5,725.1,1374.4z" style="fill: rgb(229, 236, 253);"/>
			<path class="st1" d="M1227.8,272.2c-3.3-0.1-6.6-0.1-9.8-0.1c-30.8,0-61.3,2.8-91.9,7.3c-54.9,8.1-108.3,26.7-157.5,52.3&#10;&#9;&#9;&#9;&#9;c-13.7,7.1-27.1,15-40,23.7c80.4,9.1,155.5,35.2,230.7,64.2c64.7,25,129.8,50.9,198.2,63.5c8.2-5.6,16.7-10.6,25.6-14.6&#10;&#9;&#9;&#9;&#9;c14.2-6.3,28.3-12.4,43.7-15c12.5-2.1,25.1-3.8,37.7-3.8c3.7,0,7.4,0.1,11.2,0.5c16.3,1.5,32.8,3.9,48.6,8.4&#10;&#9;&#9;&#9;&#9;c5.8,1.7,11.4,3.6,17,5.7c11.3-4,22.6-8.3,33.7-12.8c16.1-7,32-14.4,47.8-22.1c24.6-11.9,48.9-24.4,73.4-36.7&#10;&#9;&#9;&#9;&#9;c-116-43.5-233-89.6-355.6-109.4C1303.4,277.4,1265.7,272.9,1227.8,272.2z" style="fill: rgb(229, 236, 253);"/>
			<path class="st1" d="M908.7,1532.6c10.2,28.7,35,45.3,63.6,45.3c4.9,0,9.9-0.5,14.9-1.5c-2.9-2.6-5.7-5.3-8.5-7.9&#10;&#9;&#9;&#9;&#9;c-10.1-9.5-19.8-19.4-29.2-29.6c-16.8-2.3-33.3-6.3-49-12C903.3,1528.9,906,1530.8,908.7,1532.6z" style="fill: rgb(229, 236, 253);"/>
			<path class="st2" d="M2086.4,1100.4c-31.4,42-67,79.5-108.2,112.1c-41.7,33-85.8,62.2-132.4,87.8&#10;&#9;&#9;&#9;&#9;c-91.3,50.2-189.1,87.8-286.9,122.8c-92.3,33-185.4,63.7-275.9,101.4c-21.8,9.4-43.5,19.2-64.9,29.6c143.9-1.2,287.7-20,427-55.4&#10;&#9;&#9;&#9;&#9;c189.2-48.1,377.2-125.4,527.1-252.9c144.4-122.8,247.3-307.2,242-500.4c-0.7-24.7-3.2-49.3-7.5-73.5&#10;&#9;&#9;&#9;&#9;c-30-21.7-63.9-38.1-98.6-52.6c-59.4-24.9-120.7-45.5-181.1-67.7c-132.5-48.8-264.9-97.6-397.4-146.4&#10;&#9;&#9;&#9;&#9;c-11.1-4.1-22.2-8.2-33.3-12.4c-24.5,12.3-48.8,24.8-73.4,36.7c-15.8,7.7-31.7,15.1-47.8,22.1c-11.1,4.5-22.3,8.8-33.7,12.8&#10;&#9;&#9;&#9;&#9;c9.9,3.7,19.6,8,29.3,12.2c21.9,9.6,42.7,21.6,63.4,33.6c21.5,12.5,43.2,24.7,65.2,36.3c42.1,22.3,85.2,42.7,129,61.4&#10;&#9;&#9;&#9;&#9;c9.8,4.1,19.6,8,29.4,11.9c25.8,10.1,51.8,19.7,78.1,28.5c23.7,8,47.7,14.9,71.1,23.6c25.9,9.6,52.2,20.5,74.4,37.3&#10;&#9;&#9;&#9;&#9;c12.7,9.6,24.9,19.1,34.9,31.6c12.6,15.8,21.9,30.4,29.7,48.9c23.3,55.3,21.4,118.7,6.4,176.1&#10;&#9;&#9;&#9;&#9;C2139.7,1014.1,2116.2,1060.4,2086.4,1100.4z" style="fill: rgb(210, 223, 252);"/>
			<path class="st2" d="M928.7,355.4c-82,54.6-146.3,137.6-164.3,235.7c-5.9,32.4-8.5,65.4-12.5,98.1c-3.2,20.8-7.7,41.3-15,61.1&#10;&#9;&#9;&#9;&#9;c-23.9,50.8-62.6,92.6-90,141.5c-5.9,10.5-11.2,21.2-15.9,32.2c6.8,26.3,11.7,53.1,15.5,80.1c12.4,98,14.1,199,45.4,293.5&#10;&#9;&#9;&#9;&#9;c8.9,26.8,19.7,52.6,33.1,77c17.5,20.4,36.2,39.6,55.6,57.6c37.4,34.7,78,65.9,119.9,95c15.7,5.7,32.2,9.7,49,12&#10;&#9;&#9;&#9;&#9;c-17.6-19.2-34.1-39.3-50-60.1c-41.4-54.3-73.1-114.9-97-178.8c-11.2-30-20.2-60.8-26.5-92.2c-7.3-36.2-12.2-74-9.8-111&#10;&#9;&#9;&#9;&#9;c2.7-41.9,12.1-83,33-119.8c19.5-34.1,48.2-61.4,80.8-82.7c29.2-19.1,62.3-32.1,94.9-44.2c26.3-9.8,53-18.6,79-29.1&#10;&#9;&#9;&#9;&#9;c28.9-12.9,56.3-28.9,81.7-47.7c24.4-19.7,46.6-41.8,66.3-66.2c13.2-17.9,25-36.7,35.5-56.4c13-24.5,24.5-49.7,38.4-73.8&#10;&#9;&#9;&#9;&#9;c13.2-22.9,28.9-45,47.3-64.1c10.3-10.7,21.9-21,34.5-29.7c-68.4-12.6-133.5-38.6-198.2-63.5&#10;&#9;&#9;&#9;&#9;C1084.2,390.5,1009.1,364.5,928.7,355.4z" style="fill: rgb(210, 223, 252);"/>
			<path class="st1" d="M1179,1559.4c-46.7,0-93.3,2.1-139.8,7.8c-17,2.5-33.8,5.5-50.6,9c-0.4,0.1-0.8,0.2-1.3,0.3&#10;&#9;&#9;&#9;&#9;c27.1,24.7,56.3,47.3,86.8,67.5c8.6,5.7,20.4,8.4,31.7,8.4c5.8,0,11.5-0.7,16.5-2.1c14.5-4,30.2-15.2,37.4-28.7&#10;&#9;&#9;&#9;&#9;c6.6-12.5,10.4-27.3,7.9-41.5c13-7.1,26.1-13.9,39.3-20.5C1197.6,1559.4,1188.3,1559.4,1179,1559.4z" style="fill: rgb(229, 236, 253);"/>
			<path class="st2" d="M987.3,1576.5c0.4-0.1,0.8-0.2,1.3-0.3c16.8-3.5,33.7-6.5,50.6-9c46.5-5.7,93.2-7.8,139.8-7.8&#10;&#9;&#9;&#9;&#9;c9.3,0,18.6,0.1,27.9,0.2c3.7-1.8,7.4-3.7,11.2-5.5c-4.9,0-9.8,0.1-14.7,0.1c-60.2,0-120.3-3.1-180.1-9.3&#10;&#9;&#9;&#9;&#9;c-7.7-0.8-14.8-2.2-21.3-4.5c-6.6,0.6-13.3,0.9-20,0.9c-10.8,0-21.6-0.7-32.3-2.2c9.4,10.2,19,20,29.2,29.6&#10;&#9;&#9;&#9;&#9;C981.5,1571.2,984.4,1573.9,987.3,1576.5z" style="fill: rgb(210, 223, 252);"/>
			<path class="st2" d="M1458.4,485.9c28.3-4.6,56-12.1,83-21.6c-5.6-2.1-11.3-4-17-5.7c-15.8-4.6-32.2-7-48.6-8.4&#10;&#9;&#9;&#9;&#9;c-3.7-0.3-7.5-0.5-11.2-0.5c-12.6,0-25.2,1.7-37.7,3.8c-15.4,2.6-29.5,8.6-43.7,15c-8.9,4-17.4,8.9-25.6,14.6&#10;&#9;&#9;&#9;&#9;c4.7,0.9,9.3,1.7,14,2.4c15.4,1.7,30.7,2.6,46.1,2.6C1431.3,488.1,1444.9,487.4,1458.4,485.9z" style="fill: rgb(210, 223, 252);"/>
			<path class="st3" d="M899.6,1478.9c15.9,20.8,32.3,41,50,60.1c10.7,1.5,21.5,2.2,32.3,2.2c6.7,0,13.4-0.3,20-0.9&#10;&#9;&#9;&#9;&#9;c6.6,2.3,13.6,3.7,21.3,4.5c59.8,6.3,119.9,9.3,180.1,9.3c4.9,0,9.8,0,14.7-0.1c21.4-10.4,43-20.2,64.9-29.6&#10;&#9;&#9;&#9;&#9;c90.5-37.7,183.6-68.4,275.9-101.4c97.9-35,195.7-72.6,286.9-122.8c46.6-25.6,90.7-54.8,132.4-87.8&#10;&#9;&#9;&#9;&#9;c41.2-32.6,76.8-70.1,108.2-112.1c29.9-40,53.3-86.3,66-134.7c15-57.3,16.9-120.8-6.4-176.1c-7.8-18.5-17-33.1-29.7-48.9&#10;&#9;&#9;&#9;&#9;c-10-12.5-22.2-22-34.9-31.6c-22.2-16.8-48.5-27.6-74.4-37.3c-23.4-8.7-47.5-15.6-71.1-23.6c-26.2-8.9-52.3-18.4-78.1-28.5&#10;&#9;&#9;&#9;&#9;c-9.8-3.9-19.6-7.8-29.4-11.9c-43.8-18.7-86.9-39.1-129-61.4c-22-11.6-43.7-23.8-65.2-36.3c-20.7-12-41.5-23.9-63.4-33.6&#10;&#9;&#9;&#9;&#9;c-9.7-4.3-19.4-8.5-29.3-12.2c-27,9.5-54.7,17-83,21.6c-13.5,1.5-27.1,2.2-40.7,2.2c-15.4,0-30.8-0.9-46.1-2.6&#10;&#9;&#9;&#9;&#9;c-4.7-0.7-9.4-1.5-14-2.4c-12.6,8.7-24.2,19-34.5,29.7c-18.4,19.1-34.1,41.2-47.3,64.1c-13.8,24-25.3,49.3-38.4,73.8&#10;&#9;&#9;&#9;&#9;c-10.5,19.7-22.2,38.5-35.5,56.4c-19.7,24.4-41.9,46.6-66.3,66.2c-25.4,18.9-52.8,34.8-81.7,47.7c-26,10.5-52.7,19.3-79,29.1&#10;&#9;&#9;&#9;&#9;c-32.5,12.1-65.7,25.2-94.9,44.2c-32.6,21.4-61.4,48.6-80.8,82.7c-21,36.8-30.4,77.9-33,119.8c-2.3,37,2.5,74.7,9.8,111&#10;&#9;&#9;&#9;&#9;c6.3,31.4,15.3,62.2,26.5,92.2C826.4,1364,858.1,1424.6,899.6,1478.9z" style="fill: rgb(198, 214, 251);"/>
		</g><g transform="matrix(1, 0, 0, 1, 0, 0)">
				<path class="st4" d="M2018,715.1c8.2,0,14.8-6.6,14.8-14.8V373.9c0-8.2-6.6-14.8-14.8-14.8h-270.4c-8.2,0-14.8,6.6-14.8,14.8&#10;&#9;&#9;&#9;&#9;&#9;v326.4c0,8.2,6.6,14.8,14.8,14.8H2018z" style="fill: rgb(181, 139, 129);"/>
				<linearGradient id="SVGID_1_" gradientUnits="userSpaceOnUse" x1="1882.8107" y1="388.3926" x2="1882.8107" y2="630.9443">
					<stop offset="0.5419" style="stop-color:#4C4240"/>
					<stop offset="0.7482" style="stop-color:#443B39"/>
					<stop offset="1" style="stop-color:#332D2C"/>
				</linearGradient>
				<path class="st5" d="M2005.8,694.6c5.9,0,10.6-4.8,10.6-10.6V390.3c0-5.9-4.8-10.6-10.6-10.6h-246c-5.9,0-10.6,4.8-10.6,10.6&#10;&#9;&#9;&#9;&#9;&#9;v293.6c0,5.9,4.8,10.6,10.6,10.6H2005.8z" style="fill: url('#SVGID_1_');"/>
				<text transform="matrix(1 0 0 1 1809.9515 452.2409)" style="white-space: pre;"><tspan x="0" y="0" class="st6 st7 st8 st9" style="fill: rgb(255, 255, 255); font-family: Muli-Regular; font-size: 29.347px; letter-spacing: 5px;">C</tspan><tspan x="25.6" y="0" class="st6 st7 st8 st9" style="fill: rgb(255, 255, 255); font-family: Muli-Regular; font-size: 29.347px; letter-spacing: 5px;">OFFEE</tspan></text>
				<g>
					<g>
						<path class="st6" d="M1868.5,494.3c1.4,0,2.5-1.1,2.5-2.5c0-1.4-1.1-2.5-2.5-2.5h-84.2c-1.4,0-2.5,1.1-2.5,2.5&#10;&#9;&#9;&#9;&#9;&#9;&#9;&#9;c0,1.4,1.1,2.5,2.5,2.5H1868.5z" style="fill: rgb(255, 255, 255);"/>
						<path class="st6" d="M1981.4,494.3c1.4,0,2.5-1.1,2.5-2.5c0-1.4-1.1-2.5-2.5-2.5h-84.2c-1.4,0-2.5,1.1-2.5,2.5&#10;&#9;&#9;&#9;&#9;&#9;&#9;&#9;c0,1.4,1.1,2.5,2.5,2.5H1981.4z" style="fill: rgb(255, 255, 255);"/>
					</g>
					<g>
						<path class="st6" d="M1868.5,525c1.4,0,2.5-1.1,2.5-2.5s-1.1-2.5-2.5-2.5h-84.2c-1.4,0-2.5,1.1-2.5,2.5s1.1,2.5,2.5,2.5&#10;&#9;&#9;&#9;&#9;&#9;&#9;&#9;H1868.5z" style="fill: rgb(255, 255, 255);"/>
						<path class="st6" d="M1981.4,525c1.4,0,2.5-1.1,2.5-2.5s-1.1-2.5-2.5-2.5h-84.2c-1.4,0-2.5,1.1-2.5,2.5s1.1,2.5,2.5,2.5&#10;&#9;&#9;&#9;&#9;&#9;&#9;&#9;H1981.4z" style="fill: rgb(255, 255, 255);"/>
					</g>
					<g>
						<path class="st6" d="M1868.5,555.6c1.4,0,2.5-1.1,2.5-2.5c0-1.4-1.1-2.5-2.5-2.5h-84.2c-1.4,0-2.5,1.1-2.5,2.5&#10;&#9;&#9;&#9;&#9;&#9;&#9;&#9;c0,1.4,1.1,2.5,2.5,2.5H1868.5z" style="fill: rgb(255, 255, 255);"/>
						<path class="st6" d="M1981.4,555.6c1.4,0,2.5-1.1,2.5-2.5c0-1.4-1.1-2.5-2.5-2.5h-84.2c-1.4,0-2.5,1.1-2.5,2.5&#10;&#9;&#9;&#9;&#9;&#9;&#9;&#9;c0,1.4,1.1,2.5,2.5,2.5H1981.4z" style="fill: rgb(255, 255, 255);"/>
					</g>
					<g>
						<path class="st6" d="M1868.5,586.2c1.4,0,2.5-1.1,2.5-2.5c0-1.4-1.1-2.5-2.5-2.5h-84.2c-1.4,0-2.5,1.1-2.5,2.5&#10;&#9;&#9;&#9;&#9;&#9;&#9;&#9;c0,1.4,1.1,2.5,2.5,2.5H1868.5z" style="fill: rgb(255, 255, 255);"/>
						<path class="st6" d="M1981.4,586.2c1.4,0,2.5-1.1,2.5-2.5c0-1.4-1.1-2.5-2.5-2.5h-84.2c-1.4,0-2.5,1.1-2.5,2.5&#10;&#9;&#9;&#9;&#9;&#9;&#9;&#9;c0,1.4,1.1,2.5,2.5,2.5H1981.4z" style="fill: rgb(255, 255, 255);"/>
					</g>
					<g>
						<path class="st6" d="M1868.5,616.9c1.4,0,2.5-1.1,2.5-2.5c0-1.4-1.1-2.5-2.5-2.5h-84.2c-1.4,0-2.5,1.1-2.5,2.5&#10;&#9;&#9;&#9;&#9;&#9;&#9;&#9;c0,1.4,1.1,2.5,2.5,2.5H1868.5z" style="fill: rgb(255, 255, 255);"/>
						<path class="st6" d="M1981.4,616.9c1.4,0,2.5-1.1,2.5-2.5c0-1.4-1.1-2.5-2.5-2.5h-84.2c-1.4,0-2.5,1.1-2.5,2.5&#10;&#9;&#9;&#9;&#9;&#9;&#9;&#9;c0,1.4,1.1,2.5,2.5,2.5H1981.4z" style="fill: rgb(255, 255, 255);"/>
					</g>
				</g>
			</g><path class="st10" d="M972,1457c8.9-2.1,17.9-4,26.9-5.6c-13.5-0.1-27.1-0.2-40.6-0.2c-73.8,0-147.6,1.9-221.1,7.9&#10;&#9;&#9;&#9;&#9;&#9;c9.2-0.3,18.5-0.5,27.7-0.5c53.2,0,106.3,5.4,159.2,12.1C939.9,1465.4,955.9,1460.8,972,1457z" style="fill: rgb(248, 225, 137);" transform="matrix(1, 0, 0, 1, 0, 0)"/><path class="st10" d="M663.8,1466.6c-19.5,2.4-38.9,5.1-58.3,8.1c-2.8,0.2-5.6,0.6-8.3,1.3c-9.5,1.5-19.9,11-24.6,18.9&#10;&#9;&#9;&#9;&#9;&#9;c-5.2,8.8-7.4,21.8-4.2,31.7c0.9,2.9,2.1,5.5,3.4,8c0.3,0.6,0.5,1.2,0.8,1.8c20.7,46.6,52.3,90.9,92.6,122.5&#10;&#9;&#9;&#9;&#9;&#9;c23.5,18.5,48.5,33.2,77.2,42.3c30,9.5,61.6,14.4,92.8,18.5c31.6,4.2,63.3,6,95.1,6c90.8,0,181.8-14.9,270.6-32.5&#10;&#9;&#9;&#9;&#9;&#9;c13.8-2.7,27.5-5.5,41.3-8.4c-6.2-2.3-12.3-4.5-18.5-6.7c-28.6-10.1-57.4-19.4-86.5-27.9c-7.3,1.5-14.6,3-21.9,4.6&#10;&#9;&#9;&#9;&#9;&#9;c-67.3,14.7-133.1,35.1-201.7,43.7c-10.2,1.3-20.4,1.9-30.7,1.9c-21.1,0-42.3-2.6-62.9-7.5c-30.9-7.3-60.2-20.4-88.9-33.7&#10;&#9;&#9;&#9;&#9;&#9;c-8.8-4-14.5-11.3-17.6-19.8c-5-12.4-3.9-27.5,3.2-38.9c1.8-3.1,4.4-6.1,7.3-8.6c1.7-1.6,3.5-3.3,5.2-4.9&#10;&#9;&#9;&#9;&#9;&#9;c-12.1-0.3-24.1-0.4-36.2-0.4c-5.5,0-11.1,0-16.7,0.1c-0.2,0-0.3,0-0.5,0c-28.3,0-49.3-23.8-50.5-51c-0.2-5.1,0.5-10,1.9-14.7&#10;&#9;&#9;&#9;&#9;&#9;c-0.3-2-0.4-4-0.5-5.9c-0.6-12.7,6.1-27.2,14.9-36.1C648.2,1472.2,655.6,1468.7,663.8,1466.6z" style="fill: rgb(248, 225, 137);" transform="matrix(1, 0, 0, 1, 0, 0)"/><path class="st10" d="M1621,1440.7c-58.8,7.3-117.9,11.5-177.1,13.6c31.3,1.2,62.6,2,94,2.5c30.3,0.5,60.6,0.7,90.9,0.7&#10;&#9;&#9;&#9;&#9;&#9;c65.3,0,130.6-1,195.8-2.5c95.6-2.3,191.1-5.8,286.7-9.3c0.4,0,0.9,0,1.3,0c22.1,0,40.9,20.4,40.8,42.1c0,4.8-0.5,9.5-1.3,14&#10;&#9;&#9;&#9;&#9;&#9;c24.7,13,38.4,39.3,40.3,66.5c1.4,20.6-6.1,43.5-17.1,60.8c-19.5,30.6-47.9,54-79,72c-2.9,1.7-5.7,3.3-8.6,4.9&#10;&#9;&#9;&#9;&#9;&#9;c53.5-1.5,111.1-9.5,157.1-38.3c22-13.8,43.5-32.8,54.6-56.8c13.4-28.8,14.8-59.5,2.4-89c-22.9-54.3-83-79.7-135.6-95.8&#10;&#9;&#9;&#9;&#9;&#9;c-60.9-18.7-123.7-25.5-186.7-25.5c-60.9,0-122,6.4-182.1,14.6c-30.4,4.2-60.8,8.9-91.1,13.5c-15.4,2.4-30.9,4.7-46.4,6.9&#10;&#9;&#9;&#9;&#9;&#9;c-7.5,1.1-14.9,2.1-22.4,3.2c-1.2,0.2-1.6,0.2-1.6,0.2c0.1,0,4-0.5,4.5-0.6c-2.1,0.4-4.3,0.6-6.4,0.8&#10;&#9;&#9;&#9;&#9;&#9;C1629.6,1439.6,1625.3,1440.2,1621,1440.7z M2227.9,1569.8c0.1-0.4,0.2-0.6,0.2-0.6l-0.1,0.2c0.1-0.6,0.3-1.5,0.5-2.4&#10;&#9;&#9;&#9;&#9;&#9;c0,1.3-0.1,2.5-0.5,3.1c0,0,0,0.1-0.1,0.1C2227.9,1570.2,2227.9,1570.1,2227.9,1569.8z" style="fill: rgb(248, 225, 137);" transform="matrix(1, 0, 0, 1, 0, 0)"/><path class="st10" d="M677.4,1464.1c-4.8,0.6-9.4,1.4-13.7,2.5c10.1-1.2,20.3-2.4,30.4-3.5c14.3-1.5,28.7-2.8,43-4&#10;&#9;&#9;&#9;&#9;&#9;C717.3,1459.9,697.3,1461.5,677.4,1464.1z" style="fill: rgb(248, 225, 137);" transform="matrix(1, 0, 0, 1, 0, 0)"/><path class="st11" d="M625.1,1535.8c1.2,27.2,22.2,51,50.5,51c0.2,0,0.3,0,0.5,0c5.5-0.1,11.1-0.1,16.7-0.1&#10;&#9;&#9;&#9;&#9;&#9;c12.1,0,24.1,0.1,36.2,0.4c5-4.7,10.2-9.2,15.4-13.6c53-45,114.1-80.4,179.9-102.7c-52.9-6.8-106.1-12.1-159.2-12.1&#10;&#9;&#9;&#9;&#9;&#9;c-9.3,0-18.5,0.2-27.7,0.5c-14.3,1.2-28.7,2.5-43,4c-10.2,1.1-20.3,2.2-30.4,3.5c-8.2,2.1-15.5,5.6-22.4,12.5&#10;&#9;&#9;&#9;&#9;&#9;c-8.8,8.8-15.5,23.4-14.9,36.1c0.1,2,0.3,4,0.5,5.9C625.5,1525.8,624.9,1530.7,625.1,1535.8z" style="fill: rgb(244, 211, 77);" transform="matrix(1, 0, 0, 1, 0, 0)"/><path class="st10" d="M1451.3,1645.3c-7.5,1.1-14.9,2.2-22.4,3.4c-15.5,2.5-30.9,5.1-46.3,7.9c-47.1,8.6-93.8,18.7-140.7,28.3&#10;&#9;&#9;&#9;&#9;&#9;c21.5,7.9,42.8,16.3,64,25.1c63.1,27,124.3,58.4,188.3,83.4c61,23.9,125.7,39.8,191.5,39.8c4.7,0,9.3-0.1,14-0.2&#10;&#9;&#9;&#9;&#9;&#9;c71.2-2.5,140.8-20.7,207.1-46c35.2-13.5,69.8-28.6,104.1-44.3c25.7-11.8,51.8-23.2,76.7-36.9c-2,0.1-4,0.1-6,0.1&#10;&#9;&#9;&#9;&#9;&#9;c-3.3,0.1-6.6,0.1-9.9,0.1c-56.7,0-113.3-9-168.7-20.2c-57.9-11.7-115.2-26.3-173.3-37.1c-14-2.6-28-5-42-7&#10;&#9;&#9;&#9;&#9;&#9;c-0.3,0-5.2-0.7-5.8-0.8c-2.9-0.4-5.8-0.7-8.8-1.1c-7-0.8-14.1-1.5-21.1-2.1c-20.9-1.8-41.9-2.6-62.9-2.6&#10;&#9;&#9;&#9;&#9;&#9;c-10.1,0-20.1,0.2-30.2,0.5c-30.5,1.1-61,3.8-91.3,7.5c-2.7,0.3-5.3,0.7-8,1c-1.1,0.1-1.6,0.2-1.6,0.2c-0.1,0,4.4-0.6,4.6-0.6&#10;&#9;&#9;&#9;&#9;&#9;C1458.8,1643.9,1455,1644.8,1451.3,1645.3z" style="fill: rgb(248, 225, 137);" transform="matrix(1, 0, 0, 1, 0, 0)"/><path class="st11" d="M1459.5,1644.1c2.7-0.3,5.3-0.7,8-1c30.3-3.8,60.8-6.4,91.3-7.5c10.1-0.4,20.1-0.5,30.2-0.5&#10;&#9;&#9;&#9;&#9;&#9;c21,0,42,0.8,62.9,2.6c7.1,0.6,14.1,1.3,21.1,2.1c2.9,0.3,5.8,0.7,8.8,1.1c0.6,0.1,5.5,0.8,5.8,0.8c14,2.1,28,4.4,42,7&#10;&#9;&#9;&#9;&#9;&#9;c58.1,10.8,115.4,25.5,173.3,37.1c55.4,11.2,112.1,20.2,168.7,20.2c3.3,0,6.6,0,9.9-0.1c2,0,4-0.1,6-0.1&#10;&#9;&#9;&#9;&#9;&#9;c2.9-1.6,5.8-3.2,8.6-4.9c31.1-18.1,59.5-41.5,79-72c11-17.3,18.5-40.1,17.1-60.8c-1.9-27.2-15.5-53.5-40.3-66.5&#10;&#9;&#9;&#9;&#9;&#9;c-6,33.4-32.6,56.6-63.8,69.8c-30.1,12.7-63.3,16.7-95.4,21.6c-130.6,20-262.5,23.1-394.3,24.8c-127.1,1.6-254.5,2.6-380.7,19&#10;&#9;&#9;&#9;&#9;&#9;c-27.1,3.8-54.1,8.2-80.9,13.5c29.1,8.5,58,17.8,86.5,27.9c6.2,2.2,12.3,4.4,18.5,6.7c46.9-9.7,93.6-19.7,140.7-28.3&#10;&#9;&#9;&#9;&#9;&#9;c15.4-2.8,30.8-5.5,46.3-7.9c7.4-1.2,14.9-2.3,22.4-3.4c3.7-0.5,7.5-1.4,11.2-1.6c-0.2,0-4.7,0.6-4.6,0.6&#10;&#9;&#9;&#9;&#9;&#9;C1458,1644.3,1458.4,1644.3,1459.5,1644.1z" style="fill: rgb(244, 211, 77);" transform="matrix(1, 0, 0, 1, 0, 0)"/><path class="st10" d="M1436.5,1454.6c2.5-0.1,5-0.2,7.4-0.3c-63.3-2.4-126.5-5.9-189.8-10c-38.1-2.4-76.3-4.4-114.5-4.4&#10;&#9;&#9;&#9;&#9;&#9;c-47.2,0-94.3,2.9-140.7,11.5c22.2,0.2,44.4,0.5,66.5,0.9c86.1,1.5,172.2,4,258.3,4C1361.3,1456.3,1398.9,1455.8,1436.5,1454.6z&#10;&#9;&#9;&#9;&#9;&#9;" style="fill: rgb(248, 225, 137);" transform="matrix(1, 0, 0, 1, 0, 0)"/><path class="st11" d="M1315.4,1501.7c57.2,0,114.4-1.5,171.5-3.8c144.3-5.6,288.5-15.5,433-15.5c0.6,0,1.2,0,1.8,0&#10;&#9;&#9;&#9;&#9;&#9;c36.1,0,72.1,0.7,108.2,2.1c18,0.7,36,1.7,54,2.9c22.8,1.5,44.9,3,65.8,13c0.8,0.4,1.5,0.8,2.3,1.2c0.8-4.5,1.2-9.1,1.3-14&#10;&#9;&#9;&#9;&#9;&#9;c0.1-21.7-18.7-42.1-40.8-42.1c-0.4,0-0.9,0-1.3,0c-95.5,3.5-191.1,7.1-286.7,9.3c-65.3,1.6-130.5,2.5-195.8,2.5&#10;&#9;&#9;&#9;&#9;&#9;c-30.3,0-60.6-0.2-90.9-0.7c-31.4-0.5-62.7-1.3-94-2.5c-2.5,0.1-5,0.2-7.4,0.3c-37.6,1.3-75.2,1.7-112.8,1.7&#10;&#9;&#9;&#9;&#9;&#9;c-86.1,0-172.2-2.5-258.3-4c-22.2-0.4-44.4-0.7-66.5-0.9c-9,1.7-17.9,3.5-26.9,5.6c-16.2,3.8-32.2,8.4-47.9,13.7&#10;&#9;&#9;&#9;&#9;&#9;c27.4,3.5,54.7,7.4,81.9,11.1c15.8,2.1,31.5,4.1,47.3,6C1140.4,1498.1,1227.9,1501.7,1315.4,1501.7z" style="fill: rgb(244, 211, 77);" transform="matrix(1, 0, 0, 1, 0, 0)"/><path class="st10" d="M838.4,1637.8c0.5,0.1,1,0.2,1.5,0.2c2.2,0.3,3.1,0.4,3.2,0.4C843.5,1638.5,839.6,1637.8,838.4,1637.8z" style="fill: rgb(248, 225, 137);" transform="matrix(1, 0, 0, 1, 0, 0)"/><path class="st11" d="M730.9,1659.3c28.7,13.3,58,26.3,88.9,33.7c20.6,4.9,41.8,7.5,62.9,7.5c10.2,0,20.5-0.6,30.7-1.9&#10;&#9;&#9;&#9;&#9;&#9;c68.5-8.5,134.4-28.9,201.7-43.7c7.3-1.6,14.6-3.1,21.9-4.6c-76.3-22.3-154.3-38.9-233.1-50c-58.1-7.5-116.5-12-175-13.3&#10;&#9;&#9;&#9;&#9;&#9;c-1.7,1.6-3.5,3.2-5.2,4.9c-2.9,2.6-5.4,5.5-7.3,8.6c-7,11.4-8.2,26.5-3.2,38.9C716.4,1648,722.1,1655.3,730.9,1659.3z&#10;&#9;&#9;&#9;&#9;&#9; M843.1,1638.5c-0.2,0-1.1-0.1-3.2-0.4c-0.5-0.1-1-0.2-1.5-0.2C839.6,1637.8,843.5,1638.5,843.1,1638.5z M838.3,1637.8l-0.1,0&#10;&#9;&#9;&#9;&#9;&#9;L838.3,1637.8z" style="fill: rgb(244, 211, 77);" transform="matrix(1, 0, 0, 1, 0, 0)"/><path class="st11" d="M2066.5,1488.1c-1.1-0.2-2.2-0.4-3.4-0.5C2064.6,1487.8,2066.5,1488.1,2066.5,1488.1z" style="fill: rgb(244, 211, 77);" transform="matrix(1, 0, 0, 1, 0, 0)"/><path class="st12" d="M1217.8,1636.8c126.2-16.3,253.7-17.4,380.7-19c131.8-1.7,263.7-4.8,394.3-24.8c32-4.9,65.3-8.9,95.4-21.6&#10;&#9;&#9;&#9;&#9;&#9;c31.2-13.2,57.8-36.4,63.8-69.8c-0.8-0.4-1.5-0.8-2.3-1.2c-20.9-10-43-11.5-65.8-13c-18-1.2-36-2.1-54-2.9&#10;&#9;&#9;&#9;&#9;&#9;c-36-1.5-72.1-2.1-108.2-2.1c-0.6,0-1.2,0-1.8,0c-144.5,0-288.7,9.9-433,15.5c-57.1,2.2-114.3,3.8-171.5,3.8&#10;&#9;&#9;&#9;&#9;&#9;c-87.5,0-175-3.6-262-13.9c-15.8-1.9-31.6-3.9-47.3-6c-27.2-3.7-54.5-7.6-81.9-11.1c-65.8,22.3-126.9,57.7-179.9,102.7&#10;&#9;&#9;&#9;&#9;&#9;c-5.2,4.4-10.4,9-15.4,13.6c58.5,1.3,116.9,5.8,175,13.3c78.8,11,156.7,27.7,233.1,50C1163.8,1645,1190.7,1640.6,1217.8,1636.8z&#10;&#9;&#9;&#9;&#9;&#9; M2066.5,1488.1c0,0-1.9-0.3-3.4-0.5C2064.3,1487.7,2065.5,1487.9,2066.5,1488.1z" style="fill: rgb(243, 203, 48);" transform="matrix(1, 0, 0, 1, 0, 0)"/><g transform="matrix(1, 0, 0, 1, 0, 0)">
					<linearGradient id="SVGID_2_" gradientUnits="userSpaceOnUse" x1="1524.7178" y1="1572.8649" x2="1524.7178" y2="1028.6185">
						<stop offset="0.5205" style="stop-color:#BF9A8C"/>
						<stop offset="1" style="stop-color:#A57D71"/>
					</linearGradient>
					<path d="M 917 958.200012 H 2132.5 V 1528.600037 H 917 V 958.200012 Z" class="st13" style="fill: url('#SVGID_2_');"/>
					<g>
						<linearGradient id="SVGID_3_" gradientUnits="userSpaceOnUse" x1="1480.6356" y1="661.4921" x2="1480.6356" y2="631.0702">
							<stop offset="0.5205" style="stop-color:#FFAB92"/>
							<stop offset="1" style="stop-color:#EF907B"/>
						</linearGradient>
						<path class="st14" d="M1455.5,681.3c6.2,6.9,16.4,12.1,25.3,11.6c9.3-0.5,18.9-3.8,25.3-11.6c1.9-2.7,3.7-5.4,5.6-8&#10;&#9;&#9;&#9;&#9;&#9;&#9;&#9;c3.2-6.2,4.9-12.9,4.9-20c2.2-21.3,0.6-42.5-3-63.6c-1.6-9.3-9.3-19.1-16.4-23.7c-7.7-5-19-7.1-27.6-4&#10;&#9;&#9;&#9;&#9;&#9;&#9;&#9;c-8.7,3.1-17,9.1-21.4,18.3c-4.7,9.9-5.5,19.6-3.6,30.6c0.3,1.5,0.5,3,0.7,4.5c1.1,12.6,1.1,25.3-0.3,38&#10;&#9;&#9;&#9;&#9;&#9;&#9;&#9;C1444.1,662.7,1449.8,674.9,1455.5,681.3z" style="fill: url('#SVGID_3_');"/>
						<g>
							<path class="st15" d="M1445.8,636L1445.8,636c-28.2-8.6-66.5-16.6-89.8-6.4c-32.9,14.4-142.3,166.6-142.3,166.6l59.3,39&#10;&#9;&#9;&#9;&#9;&#9;&#9;&#9;&#9;l83-80.9v203.9h125.4h100.5V786l87.1,97.4l65.9-20.3c0,0-117.3-216.1-137.5-222.6c-26.1-8.4-57-5.6-80.4-1.1h0&#10;&#9;&#9;&#9;&#9;&#9;&#9;&#9;&#9;c-1.6,0.3-3.4,1.1-5.3,2.4C1491.1,655.4,1463.8,652.9,1445.8,636z" style="fill: rgb(240, 241, 245);"/>
							<path class="st16" d="M1445.8,636L1445.8,636c-5-1.5-10.2-3-15.7-4.4c1.6,9.7,7.7,18,16.2,23.3c9.8,6.1,21.9,7.7,33.1,8.7&#10;&#9;&#9;&#9;&#9;&#9;&#9;&#9;&#9;c21.4,1.8,45.7-3.8,56.5-24.2c0.5-1,0.9-2,1-3c-7,0.8-13.7,1.8-19.9,3h0c-1.6,0.3-3.4,1.1-5.3,2.4&#10;&#9;&#9;&#9;&#9;&#9;&#9;&#9;&#9;C1491.1,655.4,1463.8,652.9,1445.8,636z" style="fill: rgb(212, 220, 244);"/>
							<g>
								<path class="st17" d="M1467.8,661.6c0.5-4.3,0.9-8.5,1.4-12.8c-0.6-0.2-1.2-0.3-1.8-0.5c-0.5,4.4-0.9,8.8-1.4,13.3&#10;&#9;&#9;&#9;&#9;&#9;&#9;&#9;&#9;&#9;c0,0.1,0,0.2,0,0.3c0.5,0.1,1,0.2,1.5,0.3C1467.7,662.1,1467.8,661.9,1467.8,661.6z" style="fill: rgb(188, 204, 247);"/>
								<path class="st17" d="M1474.5,649.9c-0.6-0.1-1.2-0.2-1.8-0.3c0.1,4.4,0.2,8.9,0.3,13.3c0.6,0.1,1.2,0.1,1.8,0.2&#10;&#9;&#9;&#9;&#9;&#9;&#9;&#9;&#9;&#9;C1474.7,658.8,1474.6,654.3,1474.5,649.9z" style="fill: rgb(188, 204, 247);"/>
								<path class="st17" d="M1463.3,647c-2,4.3-3.8,8.6-5.3,13.1c0.6,0.2,1.2,0.3,1.8,0.5c1.5-4.4,3.3-8.7,5.3-13&#10;&#9;&#9;&#9;&#9;&#9;&#9;&#9;&#9;&#9;C1464.4,647.4,1463.9,647.2,1463.3,647z" style="fill: rgb(188, 204, 247);"/>
								<path class="st17" d="M1477.9,650.3c-0.6-0.1-1.2-0.1-1.9-0.2c0.5,4.4,0.9,8.9,1.4,13.3c0.6,0.1,1.2,0.1,1.8,0.2&#10;&#9;&#9;&#9;&#9;&#9;&#9;&#9;&#9;&#9;C1478.8,659.2,1478.3,654.8,1477.9,650.3z" style="fill: rgb(188, 204, 247);"/>
								<path class="st17" d="M1482.8,650.5c-0.6,0-1.2,0-1.9,0c0.9,4.6,2.2,9,3.8,13.4c0.7,0,1.3,0,2,0&#10;&#9;&#9;&#9;&#9;&#9;&#9;&#9;&#9;&#9;C1485.1,659.6,1483.8,655.1,1482.8,650.5z" style="fill: rgb(188, 204, 247);"/>
								<path class="st17" d="M1451.4,640.6c-0.6-0.4-1.2-0.9-1.8-1.4c-4.6,1.5-8.8,3.5-12.8,6.3c-0.2,0.1-0.3,0.3-0.4,0.5&#10;&#9;&#9;&#9;&#9;&#9;&#9;&#9;&#9;&#9;c0.3,0.4,0.6,0.8,1,1.2c0.1,0,0.2-0.1,0.3-0.1C1441.9,644.2,1446.4,642,1451.4,640.6z" style="fill: rgb(188, 204, 247);"/>
								<path class="st17" d="M1446.7,636.9c-4.8,0.6-9.7,1.3-14.5,2.1c0.3,0.6,0.5,1.1,0.8,1.7c5.2-0.9,10.3-1.7,15.5-2.3&#10;&#9;&#9;&#9;&#9;&#9;&#9;&#9;&#9;&#9;C1448,638,1447.3,637.4,1446.7,636.9z" style="fill: rgb(188, 204, 247);"/>
								<path class="st17" d="M1458.7,645c-4.2,3.2-8.2,6.6-12.1,10.2c0.5,0.3,1.1,0.7,1.7,1c3.9-3.6,8-7,12.3-10.2&#10;&#9;&#9;&#9;&#9;&#9;&#9;&#9;&#9;&#9;C1459.9,645.6,1459.3,645.3,1458.7,645z" style="fill: rgb(188, 204, 247);"/>
								<path class="st17" d="M1453.5,642c-4.5,2.6-8.9,5.3-13.4,7.9c0,0-0.1,0.1-0.1,0.1c0.5,0.4,0.9,0.9,1.4,1.3&#10;&#9;&#9;&#9;&#9;&#9;&#9;&#9;&#9;&#9;c4.6-2.7,9.3-5.5,13.9-8.2C1454.7,642.8,1454.1,642.4,1453.5,642z" style="fill: rgb(188, 204, 247);"/>
								<path class="st17" d="M1506.2,645c-0.6,0.3-1.1,0.5-1.7,0.8c3.4,4.4,6.9,8.6,10.7,12.6c0.6-0.3,1.2-0.5,1.7-0.8&#10;&#9;&#9;&#9;&#9;&#9;&#9;&#9;&#9;&#9;C1513.1,653.6,1509.6,649.4,1506.2,645z" style="fill: rgb(188, 204, 247);"/>
								<path class="st17" d="M1525.8,651.6c-4.8-3.2-9.6-6.4-14.5-9.6c-0.6,0.4-1.1,0.7-1.7,1.1c4.9,3.3,9.9,6.5,14.8,9.8&#10;&#9;&#9;&#9;&#9;&#9;&#9;&#9;&#9;&#9;c0.5-0.4,1-0.8,1.5-1.2C1525.9,651.7,1525.8,651.7,1525.8,651.6z" style="fill: rgb(188, 204, 247);"/>
								<path class="st17" d="M1530.2,647.5c-5.2-1.8-9.9-4.4-14.2-7.8c-0.6,0.2-1.3,0.5-2,0.8c4.5,3.7,9.4,6.5,14.9,8.5&#10;&#9;&#9;&#9;&#9;&#9;&#9;&#9;&#9;&#9;C1529.3,648.5,1529.8,648,1530.2,647.5C1530.2,647.5,1530.2,647.5,1530.2,647.5z" style="fill: rgb(188, 204, 247);"/>
								<path class="st17" d="M1523.7,641.7c3.3,0.6,6.7,1.1,10,1.4c0.4-0.6,0.7-1.2,1.1-1.7c-3-0.2-6.1-0.6-9.1-1.1&#10;&#9;&#9;&#9;&#9;&#9;&#9;&#9;&#9;&#9;c-1.9-0.3-4.2-0.5-6.1-1.3c-0.9,0.2-1.7,0.3-2.6,0.5h0c-0.1,0-0.2,0-0.3,0.1C1518.7,640.9,1521.3,641.3,1523.7,641.7z" style="fill: rgb(188, 204, 247);"/>
								<path class="st17" d="M1501.9,646.9c-0.6,0.2-1.1,0.4-1.7,0.6c2.2,4.8,4.8,9.3,7.8,13.5c0.6-0.2,1.2-0.4,1.8-0.6&#10;&#9;&#9;&#9;&#9;&#9;&#9;&#9;&#9;&#9;C1506.8,656.2,1504.1,651.7,1501.9,646.9z" style="fill: rgb(188, 204, 247);"/>
								<path class="st17" d="M1494.1,649.3c-0.6,0.1-1.2,0.3-1.8,0.4c1.6,4.5,3.1,9.1,4.5,13.7c0.6-0.1,1.2-0.2,1.8-0.2&#10;&#9;&#9;&#9;&#9;&#9;&#9;&#9;&#9;&#9;C1497.2,658.4,1495.7,653.8,1494.1,649.3z" style="fill: rgb(188, 204, 247);"/>
								<path class="st17" d="M1489.5,650.1c-0.6,0.1-1.2,0.1-1.8,0.2c0.8,4.6,2.1,9.2,3.9,13.5c0.6,0,1.3-0.1,1.9-0.1&#10;&#9;&#9;&#9;&#9;&#9;&#9;&#9;&#9;&#9;C1491.7,659.3,1490.3,654.8,1489.5,650.1z" style="fill: rgb(188, 204, 247);"/>
								<path class="st17" d="M1497.8,648.3c-0.6,0.2-1.2,0.3-1.8,0.5c0.9,4.9,2.6,9.6,5,13.9c0.6-0.1,1.3-0.2,1.9-0.4&#10;&#9;&#9;&#9;&#9;&#9;&#9;&#9;&#9;&#9;C1500.4,657.9,1498.7,653.3,1497.8,648.3z" style="fill: rgb(188, 204, 247);"/>
							</g>
							<path class="st15" d="M1225.8,785.9c0.5-6.2,4.9-9.3,10-11.8c6.9-3.3,10.9-7.8,12.2-15.4c0.9-5.4,7.1-6.8,11.4-8.9&#10;&#9;&#9;&#9;&#9;&#9;&#9;&#9;&#9;c6.5-3.2,11.7-7.8,14-14.8c3.3-10.1-12.6-14.4-15.9-4.4c-1.4,4.4-9.5,6.1-13.1,8.2c-6.8,3.8-11.2,9.2-12.4,16.9&#10;&#9;&#9;&#9;&#9;&#9;&#9;&#9;&#9;c-0.5,3-1.7,2.9-4.4,4.2c-3.2,1.5-6.1,3.2-8.8,5.6c-5.8,5.3-8.8,12.7-9.4,20.4c-0.3,4.4,4,8.2,8.2,8.2&#10;&#9;&#9;&#9;&#9;&#9;&#9;&#9;&#9;C1222.3,794.1,1225.5,790.3,1225.8,785.9z" style="fill: rgb(240, 241, 245);"/>
							<path class="st15" d="M1277.9,841.1c20.4-8.1,34.1-25.9,36.8-47.7c0.6-4.4-4.2-8.2-8.2-8.2c-4.9,0-7.7,3.8-8.2,8.2&#10;&#9;&#9;&#9;&#9;&#9;&#9;&#9;&#9;c-1.7,13.8-11.9,26.7-24.7,31.8c-4.1,1.6-7,5.5-5.8,10.1C1268.9,839.3,1273.8,842.8,1277.9,841.1z" style="fill: rgb(240, 241, 245);"/>
							<path class="st15" d="M1731.7,866.6c5.8-1.6,8.4-7.3,7.4-12.9c-1-5.3-4.2-9.5-7.7-13.5c-3.2-3.7-3.9-4-4.4-8.3&#10;&#9;&#9;&#9;&#9;&#9;&#9;&#9;&#9;c-1.3-12.5-10-20.1-19.9-26.6c-11.4-7.5-21.9,10.8-10.6,18.2c2.9,1.9,6.1,3.9,8.1,6.5c2.2,2.7,1.5,7.1,2.6,11&#10;&#9;&#9;&#9;&#9;&#9;&#9;&#9;&#9;c1.3,4.4,4,8,6.9,11.5c0.6,0.8,1.3,1.5,2,2.2c0.1,0.1,1.6,1.8,1,1c1.4,1.9,1.2,1.3,1.7,3.6&#10;&#9;&#9;&#9;&#9;&#9;&#9;&#9;&#9;C1719.9,864.9,1726.6,868,1731.7,866.6z" style="fill: rgb(240, 241, 245);"/>
							<path class="st15" d="M1661.4,888.3c5.1,1.2,12-1.5,12.9-7.4c1.2-7.5,1.1-14.8-1.4-22.1c-1.8-5.2-7.3-9.2-12.9-7.4&#10;&#9;&#9;&#9;&#9;&#9;&#9;&#9;&#9;c-5.2,1.7-9.2,7.4-7.4,12.9c0.4,1.1,0.7,2.3,1,3.4c0,0,0.4,2.4,0.4,2.2c0-0.1,0-0.2,0-0.3c0,0.2,0,0.3,0,0.3&#10;&#9;&#9;&#9;&#9;&#9;&#9;&#9;&#9;c0.1,1.1,0.1,2.2,0.1,3.3c0,0.3-0.3,3.3-0.1,1.9C1653.1,880.8,1655.4,887,1661.4,888.3z" style="fill: rgb(240, 241, 245);"/>
							<path class="st15" d="M1654,869.8c0,0.1,0,0.2,0,0.3C1654.1,870.1,1654.1,870,1654,869.8z" style="fill: rgb(240, 241, 245);"/>
						</g>
						<path class="st18" d="M1514,753.1v-26.3c-30.9,18-90.8,0-90.8,0l6.9,22.9l43.7,9.8L1514,753.1z" style="fill: rgb(216, 220, 234);"/>
						<linearGradient id="SVGID_4_" gradientUnits="userSpaceOnUse" x1="1468.9651" y1="589.3555" x2="1468.9652" y2="947.9613">
							<stop offset="0.2267" style="stop-color:#BF9480"/>
							<stop offset="0.4552" style="stop-color:#B88C78"/>
							<stop offset="0.8137" style="stop-color:#A67761"/>
							<stop offset="1" style="stop-color:#9B6953"/>
						</linearGradient>
						<path class="st19" d="M1356,841.1v117h125.4h100.5v-117c-22.9-4.4-38.2-52.8-46.1-80.4c-4.1-14.3-5.3-29.2-3.6-43.9&#10;&#9;&#9;&#9;&#9;&#9;&#9;&#9;c3.2-28.1,10.7-55.7,22.3-81.6c0,0,0,0,0,0c-7.3,0.2-14.5,0.8-21.4,1.7c-11.7,29-18.9,59.6-21.2,90.7&#10;&#9;&#9;&#9;&#9;&#9;&#9;&#9;c-0.5,7.1-6.4,12.7-13.6,12.7H1469h-27.3c-8.4,0-14.8-7.6-13.4-15.9c5.1-30.1,7.6-60.7,7.5-91.3c-6.2-1.7-12.7-3.3-19.3-4.6&#10;&#9;&#9;&#9;&#9;&#9;&#9;&#9;c0.5,41.1-3.8,82-13,122.1C1396.1,764.2,1380.4,836.5,1356,841.1z" style="fill: url('#SVGID_4_');"/>
						<g>
							<linearGradient id="SVGID_5_" gradientUnits="userSpaceOnUse" x1="1370.4174" y1="523.1869" x2="1395.3107" y2="523.1869">
								<stop offset="0.5205" style="stop-color:#FFAB92"/>
								<stop offset="1" style="stop-color:#EF907B"/>
							</linearGradient>
							<path class="st20" d="M1401.2,541.5c7.9-1.5,12.8-10.9,10.9-21c-1.9-10.1-9.9-17.1-17.8-15.6c-7.9,1.5-12.8,10.9-10.9,21&#10;&#9;&#9;&#9;&#9;&#9;&#9;&#9;&#9;S1393.3,543,1401.2,541.5z" style="fill: url('#SVGID_5_');"/>
							<linearGradient id="SVGID_6_" gradientUnits="userSpaceOnUse" x1="1590.953" y1="523.1869" x2="1561.3611" y2="523.1869">
								<stop offset="0.5205" style="stop-color:#FFAB92"/>
								<stop offset="1" style="stop-color:#EF907B"/>
							</linearGradient>
							<path class="st21" d="M1573.9,525.9c1.9-10.1-3-19.6-10.9-21c-7.9-1.5-15.9,5.5-17.8,15.6s3,19.6,10.9,21&#10;&#9;&#9;&#9;&#9;&#9;&#9;&#9;&#9;C1564,543,1572,536,1573.9,525.9z" style="fill: url('#SVGID_6_');"/>
							<path class="st22" d="M1478.6,619.5c51,2.1,81.7-60.8,81.9-114.3c0.2-53.5-18.2-90.4-81-90.7s-81.6,36.3-81.8,89.8&#10;&#9;&#9;&#9;&#9;&#9;&#9;&#9;&#9;S1427.6,621,1478.6,619.5z" style="fill: rgb(255, 171, 146);"/>
							<linearGradient id="SVGID_7_" gradientUnits="userSpaceOnUse" x1="1396.4023" y1="296.4231" x2="1464.1071" y2="475.6845">
								<stop offset="0.5205" style="stop-color:#3A4560"/>
								<stop offset="1" style="stop-color:#2F333F"/>
							</linearGradient>
							<path class="st23" d="M1389.9,501c4.8,2.8,10.7,3.3,16.1,2.1c6.7-1.4,12.4-5.6,17.4-10.2c4.7-4.3,8.7-9.5,14.4-12.5&#10;&#9;&#9;&#9;&#9;&#9;&#9;&#9;&#9;c10.8-5.8,24.4-3.5,36.1-4.6c9.8-0.9,18.8-3.7,26.9-8.7c4.4-2.7,8.9-5.1,13.6-7c0.8-0.3,1.5-0.6,2.3-0.9&#10;&#9;&#9;&#9;&#9;&#9;&#9;&#9;&#9;c3.1-1.3,6.7,0.2,7.9,3.4c3.5,9.3,10.4,22,22.8,29c12.5,7.1,13.1,21.5,13.1,21.5s5.4-71.4-21.9-78.8c0,0,0,0,0,0&#10;&#9;&#9;&#9;&#9;&#9;&#9;&#9;&#9;c-0.5-28.7-73.2-45.7-100.2-22.9c-32.9,27.9-53.7,27.6-64.1,24.2c-4.2-1.4-8.7,1.4-9.4,5.8c-3.1,18.9-6.6,40.2,17.2,56.3&#10;&#9;&#9;&#9;&#9;&#9;&#9;&#9;&#9;C1384.9,499.4,1387.4,500.5,1389.9,501z" style="fill: url('#SVGID_7_');"/>
							<linearGradient id="SVGID_8_" gradientUnits="userSpaceOnUse" x1="1479.3331" y1="674.7913" x2="1479.3331" y2="600.6072">
								<stop offset="0.5205" style="stop-color:#3A4560"/>
								<stop offset="1" style="stop-color:#2F333F"/>
							</linearGradient>
							<path class="st24" d="M1478.6,619.5c37.1,1.5,63.5-31.4,75.2-70c-5.4,7.4-15,21.9-23.9,22.1c-12.2,0.2-22.7-16.4-34.2-19.4&#10;&#9;&#9;&#9;&#9;&#9;&#9;&#9;&#9;c-2.1-0.6-4.1-0.8-6.1-0.7c-7.3,0.3-14.6,0.3-22,0c-1.9-0.1-4,0.1-6.1,0.7c-11.5,3-22,19.6-34.2,19.4&#10;&#9;&#9;&#9;&#9;&#9;&#9;&#9;&#9;c-8.2-0.1-16.9-14.2-22.5-20.4C1416.6,588.8,1442.3,620.6,1478.6,619.5z" style="fill: url('#SVGID_8_');"/>
							<path class="st25" d="M1560.1,505.8c0.2-0.1,0.3-0.2,0.5-0.3c0-0.1,0-0.2,0-0.3c0-0.7,0-1.3,0-2c-0.4-0.4-1-0.5-1.6-0.3&#10;&#9;&#9;&#9;&#9;&#9;&#9;&#9;&#9;l-26.5,10c-1.9-9.1-10-16-19.7-16c-10.6,0-19.3,8.2-20,18.6h-27.1c-0.8-10.4-9.5-18.6-20-18.6c-9.8,0-18,7.1-19.8,16.3&#10;&#9;&#9;&#9;&#9;&#9;&#9;&#9;&#9;l-27.5-10.3c-0.2-0.1-0.4-0.1-0.5-0.1c0,0.5,0,1,0,1.5c0,0.5,0,1.1,0,1.6l27.7,10.4c0,0.2,0,0.4,0,0.6&#10;&#9;&#9;&#9;&#9;&#9;&#9;&#9;&#9;c0,11.1,9,20.1,20.1,20.1c10.6,0,19.3-8.2,20-18.6h27.1c0.8,10.4,9.5,18.6,20,18.6c11.1,0,20.1-9,20.1-20.1c0-0.3,0-0.7,0-1&#10;&#9;&#9;&#9;&#9;&#9;&#9;&#9;&#9;c0,0,0,0,0,0L1560.1,505.8z M1445.6,534.1c-9.4,0-17-7.6-17-17s7.6-17,17-17c9.4,0,17,7.6,17,17S1454.9,534.1,1445.6,534.1z&#10;&#9;&#9;&#9;&#9;&#9;&#9;&#9;&#9; M1512.8,534.1c-9.4,0-17-7.6-17-17s7.6-17,17-17c9.4,0,17,7.6,17,17S1522.2,534.1,1512.8,534.1z" style="fill: rgb(47, 51, 63);"/>
						</g>
						<g>
							<g>
								<path class="st25" d="M1448.1,517.7c0-3.1-1.5-5.7-3.3-5.7s-3.3,2.5-3.3,5.7c0,3.1,1.5,5.7,3.3,5.7&#10;&#9;&#9;&#9;&#9;&#9;&#9;&#9;&#9;&#9;S1448.1,520.9,1448.1,517.7z" style="fill: rgb(47, 51, 63);"/>
								<path class="st25" d="M1513.8,517.7c0-3.1-1.5-5.7-3.3-5.7s-3.3,2.5-3.3,5.7c0,3.1,1.5,5.7,3.3,5.7&#10;&#9;&#9;&#9;&#9;&#9;&#9;&#9;&#9;&#9;S1513.8,520.9,1513.8,517.7z" style="fill: rgb(47, 51, 63);"/>
							</g>
							<g>
								<path class="st26" d="M1494.6,567.8h-32.9c1.8,7.4,8.5,12.9,16.5,12.9S1492.8,575.2,1494.6,567.8z" style="fill: rgb(206, 106, 82);"/>
								<path class="st6" d="M1494.6,567.8h-32.9c0.6,2.4,1.7,4.6,3.2,6.5h26.6C1492.9,572.4,1494,570.2,1494.6,567.8z" style="fill: rgb(255, 255, 255);"/>
							</g>
						</g>
						<path class="st18" d="M1574.5,768.5c0,0,0.2,59.7,7.4,72.6V786L1574.5,768.5z" style="fill: rgb(216, 220, 234);"/>
						<path class="st18" d="M1401.8,754.2l8.8-7.6c0,0-3.7-7.3-6.4-9.2c-2.7-1.8-15.2-7.8-15.2-7.8l-18.2,5.9L1356,763v63.6&#10;&#9;&#9;&#9;&#9;&#9;&#9;&#9;c0-42.6,25.8-67.7,33-74.1S1401.8,754.2,1401.8,754.2z" style="fill: rgb(216, 220, 234);"/>
						<g>
							<linearGradient id="SVGID_9_" gradientUnits="userSpaceOnUse" x1="1466.8281" y1="741.2065" x2="1433.0691" y2="843.3208">
								<stop offset="0.5419" style="stop-color:#D4DCF4"/>
								<stop offset="0.704" style="stop-color:#CCD6EF"/>
								<stop offset="0.9583" style="stop-color:#B5C4E2"/>
								<stop offset="1" style="stop-color:#B1C1E0"/>
							</linearGradient>
							<path class="st27" d="M1397.6,830l21,16.6l21,16.6c5.9,4.6,14.4,3,18.2-3.4l30.1-51.3c1.5-2.5,3.9-4.4,6.8-5.1l7-1.8&#10;&#9;&#9;&#9;&#9;&#9;&#9;&#9;&#9;c2.7-0.7,3.5-4.2,1.3-6l-13.5-10.6l-6.2-4.9l-7.5-5.9l-13.7-10.8c-1.9-1.5-4.2-2.4-6.5-2.6c-7.4-6.3-15.8-12-25.9-11.6&#10;&#9;&#9;&#9;&#9;&#9;&#9;&#9;&#9;c-10.8,0.4-18.3,8.6-23.9,17c-5.5,8.3-11.5,17.5-10.8,27.9c0.3,5.1,2.4,10,5.8,13.6l-4.1,3.9&#10;&#9;&#9;&#9;&#9;&#9;&#9;&#9;&#9;C1391.3,816.7,1391.7,825.4,1397.6,830z M1407,789.4c1.3-6.7,5.8-12.9,9.7-18.3c3.5-5,8-10.5,14.8-10.1&#10;&#9;&#9;&#9;&#9;&#9;&#9;&#9;&#9;c4.5,0.2,8.6,2.4,12.2,5.2l-34.5,33.2C1407,796.9,1406.4,792.7,1407,789.4z" style="fill: url('#SVGID_9_');"/>
							<g>
								<path class="st28" d="M1417.2,770.4c-0.2-0.6-0.5-1.1-0.8-1.6c-2.1-3.3-5.4-5.1-8.9-5.3c-0.6,0.9-1.2,1.7-1.8,2.6&#10;&#9;&#9;&#9;&#9;&#9;&#9;&#9;&#9;&#9;c-5,7.5-10.3,15.6-10.8,24.8c4.5-1.3,8.8-2.9,13.1-4.9c1.9-5.4,5.5-10.4,8.7-14.9C1416.9,770.9,1417,770.6,1417.2,770.4z" style="fill: rgb(191, 200, 226);"/>
								<path class="st28" d="M1431.5,761c3.8,0.2,7.2,1.8,10.4,3.9c3-2.6,5.7-5.5,8.1-8.7c-6-4.3-12.6-7.4-20.3-7.1&#10;&#9;&#9;&#9;&#9;&#9;&#9;&#9;&#9;&#9;c-1.2,0.1-2.4,0.2-3.5,0.4c-0.3,0.2-0.5,0.5-0.8,0.7c-3.7,3.1-4.1,9.1-1.8,13.2C1425.8,761.9,1428.4,760.8,1431.5,761z" style="fill: rgb(191, 200, 226);"/>
							</g>
							<path class="st29" d="M1437.5,790.6c4.3-4.2,8.5-8.3,12.8-12.5c2.1-2.1-1.3-5.1-3.4-3.1c-4.3,4.2-8.5,8.3-12.8,12.5&#10;&#9;&#9;&#9;&#9;&#9;&#9;&#9;&#9;C1432,789.5,1435.4,792.6,1437.5,790.6z" style="fill: rgb(225, 234, 255);"/>
							<path class="st29" d="M1429.2,797.3c0.7-0.6,1.3-1.3,2-1.9c0.9-0.8,0.8-2.5-0.1-3.2c-1-0.8-2.3-0.8-3.2,0.1&#10;&#9;&#9;&#9;&#9;&#9;&#9;&#9;&#9;c-0.7,0.6-1.3,1.3-2,1.9c-0.9,0.8-0.8,2.5,0.1,3.2C1427,798.3,1428.3,798.2,1429.2,797.3z" style="fill: rgb(225, 234, 255);"/>
						</g>
						<linearGradient id="SVGID_10_" gradientUnits="userSpaceOnUse" x1="1385.7561" y1="737.428" x2="1181.3065" y2="869.2172">
							<stop offset="0.5205" style="stop-color:#FFAB92"/>
							<stop offset="1" style="stop-color:#EF907B"/>
						</linearGradient>
						<path class="st30" d="M1254.2,845.6c37-20.4,98.7-84.3,108.5-91.5c24.2-17.8,25.7,31.7,34.8,31.2&#10;&#9;&#9;&#9;&#9;&#9;&#9;&#9;c12.8-0.7,34.9-16.6,47.8-26.7c7.4-5.8,9.5-16.3,4.8-24.5c-5.7-9.9-17.6-22-42.7-29.1c-39.7-11.1-143.9,50.8-178.8,72.6&#10;&#9;&#9;&#9;&#9;&#9;&#9;&#9;c-10.6,6.6-17.8,17.7-19,30.2C1206.3,841.2,1245.3,850.5,1254.2,845.6z" style="fill: url('#SVGID_10_');"/>
						<g>
							<linearGradient id="SVGID_11_" gradientUnits="userSpaceOnUse" x1="1509.2662" y1="834.9674" x2="1509.2662" y2="892.6323">
								<stop offset="0.5205" style="stop-color:#FFD45A"/>
								<stop offset="1" style="stop-color:#F1C413"/>
							</linearGradient>
							<path class="st31" d="M1527.7,906.6c5.8,0,10.4-4.7,10.4-10.4V842c0-3.3-2.7-6-6-6h-45.7c-3.3,0-6,2.7-6,6v54.1&#10;&#9;&#9;&#9;&#9;&#9;&#9;&#9;&#9;c0,5.8,4.7,10.4,10.4,10.4H1527.7z" style="fill: url('#SVGID_11_');"/>
							<linearGradient id="SVGID_12_" gradientUnits="userSpaceOnUse" x1="1563.0463" y1="867.1395" x2="1540.7098" y2="867.1395">
								<stop offset="0.5205" style="stop-color:#FFD45A"/>
								<stop offset="1" style="stop-color:#F1C413"/>
							</linearGradient>
							<path class="st32" d="M1538.1,877.7v10.4c10-1.8,18-10.5,17.9-21.2c-0.1-10.6-8-19.1-17.9-20.9v10.5&#10;&#9;&#9;&#9;&#9;&#9;&#9;&#9;&#9;c4.4,1.4,7.7,5.1,7.8,10.4C1546,872.4,1542.6,876.2,1538.1,877.7z" style="fill: url('#SVGID_12_');"/>
							<path class="st33" d="M1491.1,863.4c0.1-5.3,0.2-10.7,0.3-16c0.1-2.9-4.5-2.9-4.6,0c-0.1,5.3-0.2,10.7-0.3,16&#10;&#9;&#9;&#9;&#9;&#9;&#9;&#9;&#9;C1486.4,866.4,1491,866.4,1491.1,863.4z" style="fill: rgb(252, 221, 144);"/>
							<path class="st33" d="M1491.2,872.6c0-0.8,0-1.6,0-2.4c0-1.2-1.1-2.3-2.3-2.3c-1.2,0.1-2.3,1-2.3,2.3c0,0.8,0,1.6,0,2.4&#10;&#9;&#9;&#9;&#9;&#9;&#9;&#9;&#9;c0,1.2,1.1,2.3,2.3,2.3C1490.2,874.8,1491.2,873.8,1491.2,872.6z" style="fill: rgb(252, 221, 144);"/>
						</g>
						<linearGradient id="SVGID_13_" gradientUnits="userSpaceOnUse" x1="1544.8472" y1="869.7519" x2="1751.9503" y2="869.7519">
							<stop offset="0.5205" style="stop-color:#FFAB92"/>
							<stop offset="1" style="stop-color:#EF907B"/>
						</linearGradient>
						<path class="st34" d="M1607,898.3c16.2-1.6,82,12.7,115.4,13.5s35.8-39,20.7-57.2c-12.8-15.5-104-3.6-135,0.4&#10;&#9;&#9;&#9;&#9;&#9;&#9;&#9;c-5.2,0.7-10.2-1.8-12.8-6.4c-7-12.5-22.9-33.7-40.6-10.3c-21.2,27.9-3.7,73.5,11.4,73.5&#10;&#9;&#9;&#9;&#9;&#9;&#9;&#9;C1593.6,911.6,1590.7,899.8,1607,898.3z" style="fill: url('#SVGID_13_');"/>
					</g>
					<g>
						<linearGradient id="SVGID_14_" gradientUnits="userSpaceOnUse" x1="1038.1968" y1="851.2145" x2="1038.1968" y2="965.0922">
							<stop offset="0.2267" style="stop-color:#E6E7E8"/>
							<stop offset="0.4668" style="stop-color:#DEDFE0"/>
							<stop offset="0.8434" style="stop-color:#C7C9CB"/>
							<stop offset="1" style="stop-color:#BCBEC0"/>
						</linearGradient>
						<path class="st35" d="M1038.2,959.8h45.3c7.1,0,12.6-5.1,11.5-10.7l-19.1-100.8c-0.9-4.5-5.7-7.9-11.5-7.9l-26.2-0.1&#10;&#9;&#9;&#9;&#9;&#9;&#9;&#9;l-26.2,0.1c-5.7,0-10.6,3.4-11.5,7.9L981.4,949c-1.1,5.6,4.4,10.7,11.5,10.7H1038.2z" style="fill: url('#SVGID_14_');"/>
						<path class="st36" d="M1060.9,832.3h-45.5c-2,0-3.6,1.6-3.6,3.6v4.4h52.7v-4.4C1064.5,833.9,1062.9,832.3,1060.9,832.3z" style="fill: rgb(241, 242, 242);"/>
						<path class="st37" d="M1038.2,832.3h19.1l42.7-118.7c1.5-4.1-1.6-8.5-6-8.5h-55.9h-55.9c-4.4,0-7.5,4.4-6,8.5l42.7,118.7&#10;&#9;&#9;&#9;&#9;&#9;&#9;&#9;H1038.2z" style="fill: rgb(242, 242, 242);"/>
						<linearGradient id="SVGID_15_" gradientUnits="userSpaceOnUse" x1="1038.1968" y1="737.0641" x2="1038.1968" y2="826.7609">
							<stop offset="0.2267" style="stop-color:#AA7D65"/>
							<stop offset="0.5478" style="stop-color:#A27560"/>
							<stop offset="1" style="stop-color:#8E6154"/>
						</linearGradient>
						<path d="M 1057.300048828125 832.2999877929688 L 1089.5999755859375 742.5999755859375 L 986.7999877929688 742.5999755859375 L 1019.0999755859375 832.2999877929688 L 1038.199951171875 832.2999877929688 Z" class="st38" style="fill: url('#SVGID_15_');"/>
						<linearGradient id="SVGID_16_" gradientUnits="userSpaceOnUse" x1="1037.7273" y1="646.7582" x2="1037.7273" y2="710.7856">
							<stop offset="0.2267" style="stop-color:#E6E7E8"/>
							<stop offset="0.4668" style="stop-color:#DEDFE0"/>
							<stop offset="0.8434" style="stop-color:#C7C9CB"/>
							<stop offset="1" style="stop-color:#BCBEC0"/>
						</linearGradient>
						<path class="st39" d="M980.7,705h114.1c-10.8-9.7-32.3-11.6-57.1-11.6C1012.9,693.4,991.4,695.3,980.7,705z" style="fill: url('#SVGID_16_');"/>
						<g>
							
								<path d="M 1011.200012 923.099976 A 5 5 0 0 1 1006.200012 928.099976 A 5 5 0 0 1 1001.200012 923.099976 A 5 5 0 0 1 1006.200012 918.099976 A 5 5 0 0 1 1011.200012 923.099976 Z" transform="matrix(0.7071 -0.7071 0.7071 0.7071 -358.0131 981.8704)" class="st40" style="fill: rgb(167, 169, 172);"/>
							<path d="M 1010.400012 923.099976 A 4.2 4.2 0 0 1 1006.200012 927.299975 A 4.2 4.2 0 0 1 1002.000012 923.099976 A 4.2 4.2 0 0 1 1006.200012 918.899976 A 4.2 4.2 0 0 1 1010.400012 923.099976 Z" class="st41" style="fill: rgb(147, 149, 152);"/>
							
								<path d="M 1024.599976 923.099976 A 5 5 0 0 1 1019.599976 928.099976 A 5 5 0 0 1 1014.599976 923.099976 A 5 5 0 0 1 1019.599976 918.099976 A 5 5 0 0 1 1024.599976 923.099976 Z" transform="matrix(0.2298 -0.9732 0.9732 0.2298 -113.0552 1703.3392)" class="st40" style="fill: rgb(167, 169, 172);"/>
							<path d="M 1023.799975 923.099976 A 4.2 4.2 0 0 1 1019.599976 927.299975 A 4.2 4.2 0 0 1 1015.399976 923.099976 A 4.2 4.2 0 0 1 1019.599976 918.899976 A 4.2 4.2 0 0 1 1023.799975 923.099976 Z" class="st41" style="fill: rgb(147, 149, 152);"/>
							<g>
								<path class="st42" d="M1071.3,930.1c2.1,0,3.8-1.7,3.8-3.8v-5.4c0-2.1-1.7-3.8-3.8-3.8h-34.6c-2.1,0-3.8,1.7-3.8,3.8v5.4&#10;&#9;&#9;&#9;&#9;&#9;&#9;&#9;&#9;&#9;c0,2.1,1.7,3.8,3.8,3.8H1071.3z" style="fill: rgb(128, 130, 133);"/>
								<path class="st43" d="M1039.6,926.5v-5.9c0-0.4-0.3-0.7-0.7-0.7s-0.7,0.3-0.7,0.7v5.9c0,0.4,0.3,0.7,0.7,0.7&#10;&#9;&#9;&#9;&#9;&#9;&#9;&#9;&#9;&#9;S1039.6,926.9,1039.6,926.5z" style="fill: rgb(157, 247, 249);"/>
								<path class="st43" d="M1043.3,926.5v-5.9c0-0.4-0.3-0.7-0.7-0.7s-0.7,0.3-0.7,0.7v5.9c0,0.4,0.3,0.7,0.7,0.7&#10;&#9;&#9;&#9;&#9;&#9;&#9;&#9;&#9;&#9;S1043.3,926.9,1043.3,926.5z" style="fill: rgb(157, 247, 249);"/>
								<path class="st43" d="M1047,926.5v-5.9c0-0.4-0.3-0.7-0.7-0.7c-0.4,0-0.7,0.3-0.7,0.7v5.9c0,0.4,0.3,0.7,0.7,0.7&#10;&#9;&#9;&#9;&#9;&#9;&#9;&#9;&#9;&#9;C1046.7,927.2,1047,926.9,1047,926.5z" style="fill: rgb(157, 247, 249);"/>
								<path class="st43" d="M1050.8,926.5v-5.9c0-0.4-0.3-0.7-0.7-0.7c-0.4,0-0.7,0.3-0.7,0.7v5.9c0,0.4,0.3,0.7,0.7,0.7&#10;&#9;&#9;&#9;&#9;&#9;&#9;&#9;&#9;&#9;C1050.4,927.2,1050.8,926.9,1050.8,926.5z" style="fill: rgb(157, 247, 249);"/>
							</g>
						</g>
						<g>
							<path class="st44" d="M1001.7,742.6c-4-9.4-8-18.8-12.1-28.3c-0.4-1-1.2-1.4-2-1.4c-1.8,0-3.7,2-2.7,4.2&#10;&#9;&#9;&#9;&#9;&#9;&#9;&#9;&#9;c3.6,8.5,7.3,17,10.9,25.5H1001.7z" style="fill: rgb(249, 249, 249);"/>
							<linearGradient id="SVGID_17_" gradientUnits="userSpaceOnUse" x1="991.6195" y1="749.2624" x2="1059.1582" y2="749.2624">
								<stop offset="0" style="stop-color:#D3BA98"/>
								<stop offset="0.2267" style="stop-color:#D3BA98"/>
								<stop offset="0.4643" style="stop-color:#D0B293"/>
								<stop offset="0.8316" style="stop-color:#C89C86"/>
								<stop offset="1" style="stop-color:#C4907E"/>
							</linearGradient>
							<path class="st45" d="M1002.9,756c1.8,0,3.7-2,2.7-4.2c-1.3-3.1-2.6-6.1-3.9-9.2h-5.9c1.7,4,3.4,8,5.1,12&#10;&#9;&#9;&#9;&#9;&#9;&#9;&#9;&#9;C1001.3,755.5,1002.1,756,1002.9,756z" style="fill: url('#SVGID_17_');"/>
							<linearGradient id="SVGID_18_" gradientUnits="userSpaceOnUse" x1="986.6425" y1="769.3224" x2="1047.5764" y2="769.3224">
								<stop offset="0" style="stop-color:#D3BA98"/>
								<stop offset="0.2267" style="stop-color:#D3BA98"/>
								<stop offset="0.4643" style="stop-color:#D0B293"/>
								<stop offset="0.8316" style="stop-color:#C89C86"/>
								<stop offset="1" style="stop-color:#C4907E"/>
							</linearGradient>
							<path class="st46" d="M1009.3,774.5c0.2,0,0.5,0,0.7-0.1c1.4-0.4,2.4-2,1.9-3.4c-0.5-1.6-1-3.3-1.5-4.9c-0.4-1.2-1.5-2-2.7-2&#10;&#9;&#9;&#9;&#9;&#9;&#9;&#9;&#9;c-0.2,0-0.5,0-0.7,0.1c-1.4,0.4-2.4,2-1.9,3.4c0.5,1.6,1,3.3,1.5,4.9C1007,773.7,1008.1,774.5,1009.3,774.5z" style="fill: url('#SVGID_18_');"/>
						</g>
					</g>
					<g>
						<path class="st47" d="M1874.4,764l41.9-2.6v-2.7V756l-41.9-2.6c-3-0.2-5.6,2.2-5.6,5.3S1871.3,764.2,1874.4,764z" style="fill: rgb(207, 208, 209);"/>
						<path class="st47" d="M1927.6,776.7c1.4,0,2.5-1.1,2.5-2.5v-11.7h-9.2v11.7c0,1.4,1.1,2.5,2.5,2.5H1927.6z" style="fill: rgb(207, 208, 209);"/>
						<path class="st48" d="M1883.1,724.4c7.2,0,13.1-5.9,13.1-13.1s-5.9-13.1-13.1-13.1h-14c-7.2,0-13.1,5.9-13.1,13.1&#10;&#9;&#9;&#9;&#9;&#9;&#9;&#9;s5.9,13.1,13.1,13.1H1883.1z" style="fill: rgb(157, 159, 160);"/>
						<path class="st48" d="M1868.5,948.5c7.9,0,14.3-6.4,14.3-14.3v-8.1c0-7.9-6.4-14.3-14.3-14.3h-11.6c-7.9,0-14.3,6.4-14.3,14.3&#10;&#9;&#9;&#9;&#9;&#9;&#9;&#9;v8.1c0,7.9,6.4,14.3,14.3,14.3H1868.5z" style="fill: rgb(157, 159, 160);"/>
						<linearGradient id="SVGID_19_" gradientUnits="userSpaceOnUse" x1="1991.6525" y1="655.282" x2="1991.6526" y2="958.1519">
							<stop offset="0.5205" style="stop-color:#E6E7E8"/>
							<stop offset="1" style="stop-color:#A7A9AC"/>
						</linearGradient>
						<path class="st49" d="M1962.4,888.6h-79.8c-17.5,0-31.8,14.2-31.8,31.8v37.8H1973h159.4V681.2c0-14.3-11.6-26-26-26H1999&#10;&#9;&#9;&#9;&#9;&#9;&#9;&#9;c-14.3,0-26,11.6-26,26v13.6c-0.3,0-0.6,0-0.9,0h-87.4c-9.6,0-17.4,7.8-17.4,17.4s7.8,17.4,17.4,17.4h87.4c0.3,0,0.6,0,0.9,0&#10;&#9;&#9;&#9;&#9;&#9;&#9;&#9;v148.4C1973,883.8,1968.3,888.6,1962.4,888.6z" style="fill: url('#SVGID_19_');"/>
						<path class="st48" d="M1922.7,769.3h2.8h2.8c4.3,0,8-3.7,8.6-8.8l3.8-31h-15.3h-15.3l3.8,31&#10;&#9;&#9;&#9;&#9;&#9;&#9;&#9;C1914.7,765.6,1918.4,769.3,1922.7,769.3z" style="fill: rgb(157, 159, 160);"/>
						<g>
							<linearGradient id="SVGID_20_" gradientUnits="userSpaceOnUse" x1="1919.9607" y1="816.9227" x2="1919.9607" y2="874.5876">
								<stop offset="0.5205" style="stop-color:#FFD45A"/>
								<stop offset="1" style="stop-color:#F1C413"/>
							</linearGradient>
							<path class="st50" d="M1938.4,888.6c5.8,0,10.4-4.7,10.4-10.4V824c0-3.3-2.7-6-6-6h-45.7c-3.3,0-6,2.7-6,6v54.1&#10;&#9;&#9;&#9;&#9;&#9;&#9;&#9;&#9;c0,5.8,4.7,10.4,10.4,10.4H1938.4z" style="fill: url('#SVGID_20_');"/>
							<linearGradient id="SVGID_21_" gradientUnits="userSpaceOnUse" x1="1898.2152" y1="849.0948" x2="1875.8789" y2="849.0948">
								<stop offset="0.5205" style="stop-color:#FFD45A"/>
								<stop offset="1" style="stop-color:#F1C413"/>
							</linearGradient>
							<path class="st51" d="M1891.1,838.5V828c-9.9,1.7-17.7,10.3-17.9,20.9c-0.1,10.7,7.8,19.4,17.9,21.2v-10.4&#10;&#9;&#9;&#9;&#9;&#9;&#9;&#9;&#9;c-4.5-1.5-7.9-5.4-7.8-10.8C1883.4,843.6,1886.7,839.9,1891.1,838.5z" style="fill: url('#SVGID_21_');"/>
							<path class="st33" d="M1942.7,845.4c-0.1-5.3-0.2-10.7-0.3-16c-0.1-2.9-4.6-2.9-4.6,0c0.1,5.3,0.2,10.7,0.3,16&#10;&#9;&#9;&#9;&#9;&#9;&#9;&#9;&#9;C1938.2,848.3,1942.8,848.3,1942.7,845.4z" style="fill: rgb(252, 221, 144);"/>
							<path class="st33" d="M1942.6,854.5c0-0.8,0-1.6,0-2.4c0-1.3-1-2.2-2.3-2.3c-1.2-0.1-2.3,1.1-2.3,2.3c0,0.8,0,1.6,0,2.4&#10;&#9;&#9;&#9;&#9;&#9;&#9;&#9;&#9;c0,1.3,1,2.2,2.3,2.3C1941.6,856.9,1942.6,855.7,1942.6,854.5z" style="fill: rgb(252, 221, 144);"/>
						</g>
						<g>
							<linearGradient id="SVGID_22_" gradientUnits="userSpaceOnUse" x1="2020.485" y1="652.7247" x2="2020.485" y2="595.0598">
								<stop offset="0.5205" style="stop-color:#FFD45A"/>
								<stop offset="1" style="stop-color:#F1C413"/>
							</linearGradient>
							<path class="st52" d="M2043.3,655.3c3.3,0,6-2.7,6-6v-54.1c0-5.8-4.7-10.4-10.4-10.4h-36.8c-5.8,0-10.4,4.7-10.4,10.4v54.1&#10;&#9;&#9;&#9;&#9;&#9;&#9;&#9;&#9;c0,3.3,2.7,6,6,6H2043.3z" style="fill: url('#SVGID_22_');"/>
							<linearGradient id="SVGID_23_" gradientUnits="userSpaceOnUse" x1="2074.2651" y1="624.2136" x2="2051.9287" y2="624.2136">
								<stop offset="0.5205" style="stop-color:#FFD45A"/>
								<stop offset="1" style="stop-color:#F1C413"/>
							</linearGradient>
							<path class="st53" d="M2049.3,634.8v10.5c9.9-1.7,17.7-10.3,17.9-20.9c0.1-10.7-7.8-19.4-17.9-21.2v10.4&#10;&#9;&#9;&#9;&#9;&#9;&#9;&#9;&#9;c4.5,1.5,7.9,5.4,7.8,10.8C2057,629.7,2053.7,633.4,2049.3,634.8z" style="fill: url('#SVGID_23_');"/>
							<path class="st33" d="M2002.6,627.5c-0.1-5.3-0.2-10.7-0.3-16c-0.1-2.9-4.6-2.9-4.6,0c0.1,5.3,0.2,10.7,0.3,16&#10;&#9;&#9;&#9;&#9;&#9;&#9;&#9;&#9;C1998,630.4,2002.6,630.4,2002.6,627.5z" style="fill: rgb(252, 221, 144);"/>
							<path class="st33" d="M2002.4,604.8c0-0.8,0-1.6,0-2.4c0-1.3-1-2.2-2.3-2.3c-1.2-0.1-2.3,1.1-2.3,2.3c0,0.8,0,1.6,0,2.4&#10;&#9;&#9;&#9;&#9;&#9;&#9;&#9;&#9;c0,1.3,1,2.2,2.3,2.3C2001.3,607.1,2002.4,606,2002.4,604.8z" style="fill: rgb(252, 221, 144);"/>
						</g>
						<g>
							<linearGradient id="SVGID_24_" gradientUnits="userSpaceOnUse" x1="2084.0601" y1="652.7247" x2="2084.0603" y2="595.0598">
								<stop offset="0.5205" style="stop-color:#FFD45A"/>
								<stop offset="1" style="stop-color:#F1C413"/>
							</linearGradient>
							<path class="st54" d="M2106.9,655.3c3.3,0,6-2.7,6-6v-54.1c0-5.8-4.7-10.4-10.4-10.4h-36.8c-5.8,0-10.4,4.7-10.4,10.4v54.1&#10;&#9;&#9;&#9;&#9;&#9;&#9;&#9;&#9;c0,3.3,2.7,6,6,6H2106.9z" style="fill: url('#SVGID_24_');"/>
							<linearGradient id="SVGID_25_" gradientUnits="userSpaceOnUse" x1="2137.8403" y1="624.2136" x2="2115.5039" y2="624.2136">
								<stop offset="0.5205" style="stop-color:#FFD45A"/>
								<stop offset="1" style="stop-color:#F1C413"/>
							</linearGradient>
							<path class="st55" d="M2112.9,634.8v10.5c9.9-1.7,17.7-10.3,17.9-20.9c0.1-10.7-7.8-19.4-17.9-21.2v10.4&#10;&#9;&#9;&#9;&#9;&#9;&#9;&#9;&#9;c4.5,1.5,7.9,5.4,7.8,10.8C2120.6,629.7,2117.3,633.4,2112.9,634.8z" style="fill: url('#SVGID_25_');"/>
							<path class="st33" d="M2066.1,627.5c-0.1-5.3-0.2-10.7-0.3-16c-0.1-2.9-4.6-2.9-4.6,0c0.1,5.3,0.2,10.7,0.3,16&#10;&#9;&#9;&#9;&#9;&#9;&#9;&#9;&#9;C2061.6,630.4,2066.2,630.4,2066.1,627.5z" style="fill: rgb(252, 221, 144);"/>
							<path class="st33" d="M2066,604.8c0-0.8,0-1.6,0-2.4c0-1.3-1-2.2-2.3-2.3c-1.2-0.1-2.3,1.1-2.3,2.3c0,0.8,0,1.6,0,2.4&#10;&#9;&#9;&#9;&#9;&#9;&#9;&#9;&#9;c0,1.3,1,2.2,2.3,2.3C2064.9,607.1,2066,606,2066,604.8z" style="fill: rgb(252, 221, 144);"/>
						</g>
					</g>
					<g>
						<path class="st56" d="M2077.4,1384.7l55.1,55.1v-10.3l-53-53l-2.7-2.7c-1.3-1.3-3.5-1.3-4.9,0l-2.7,2.7l-55.9,55.9l-55.9-55.9&#10;&#9;&#9;&#9;&#9;&#9;&#9;&#9;l-2.7-2.7c-1.3-1.3-3.5-1.3-4.9,0l-2.7,2.7l-55.9,55.9l-55.9-55.9l-2.7-2.7c-1.3-1.3-3.5-1.3-4.9,0l-2.7,2.7l-55.9,55.9&#10;&#9;&#9;&#9;&#9;&#9;&#9;&#9;l-55.9-55.9l-2.7-2.7c-1.3-1.3-3.5-1.3-4.9,0l-2.7,2.7l-55.9,55.9l-55.9-55.9l-2.7-2.7c-1.3-1.3-3.5-1.3-4.9,0l-2.7,2.7&#10;&#9;&#9;&#9;&#9;&#9;&#9;&#9;l-55.9,55.9l-55.9-55.9l-2.7-2.7c-1.3-1.3-3.5-1.3-4.9,0l-2.7,2.7l-55.9,55.9l-55.9-55.9l-2.7-2.7c-1.3-1.3-3.5-1.3-4.9,0&#10;&#9;&#9;&#9;&#9;&#9;&#9;&#9;l-2.7,2.7l-55.9,55.9l-55.9-55.9l-2.7-2.7c-1.3-1.3-3.5-1.3-4.9,0l-2.7,2.7l-55.9,55.9l-55.9-55.9l-2.7-2.7&#10;&#9;&#9;&#9;&#9;&#9;&#9;&#9;c-1.3-1.3-3.5-1.3-4.9,0l-2.7,2.7l-55.9,55.9l-55.9-55.9l-2.7-2.7c-1.3-1.3-3.5-1.3-4.9,0l-2.7,2.7l-53.9,53.9v10.3l55.9-55.9&#10;&#9;&#9;&#9;&#9;&#9;&#9;&#9;c1.7-1.7,4.4-1.7,6.1,0l52.8,52.8l-0.1,0.1l5.1,5.1l0.1-0.1l0.1,0.1l5.1-5.1l-0.1-0.1l52.8-52.8c1.7-1.7,4.4-1.7,6.1,0&#10;&#9;&#9;&#9;&#9;&#9;&#9;&#9;l52.8,52.8l-0.1,0.1l5.1,5.1l0.1-0.1l0.1,0.1l5.1-5.1l-0.1-0.1l52.8-52.8c1.7-1.7,4.4-1.7,6.1,0l52.8,52.8l-0.1,0.1l5.1,5.1&#10;&#9;&#9;&#9;&#9;&#9;&#9;&#9;l0.1-0.1l0.1,0.1l5.1-5.1l-0.1-0.1l52.8-52.8c1.7-1.7,4.4-1.7,6.1,0l52.8,52.8l-0.1,0.1l5.1,5.1l0.1-0.1l0.1,0.1l5.1-5.1&#10;&#9;&#9;&#9;&#9;&#9;&#9;&#9;l-0.1-0.1l52.8-52.8c1.7-1.7,4.4-1.7,6.1,0l52.8,52.8l-0.1,0.1l5.1,5.1l0.1-0.1l0.1,0.1l5.1-5.1l-0.1-0.1l52.8-52.8&#10;&#9;&#9;&#9;&#9;&#9;&#9;&#9;c1.7-1.7,4.4-1.7,6.1,0l52.8,52.8l-0.1,0.1l5.1,5.1l0.1-0.1l0.1,0.1l5.1-5.1l-0.1-0.1l52.8-52.8c1.7-1.7,4.4-1.7,6.1,0&#10;&#9;&#9;&#9;&#9;&#9;&#9;&#9;l52.8,52.8l-0.1,0.1l5.1,5.1l0.1-0.1l0.1,0.1l5.1-5.1l-0.1-0.1l52.8-52.8c1.7-1.7,4.4-1.7,6.1,0l52.8,52.8l-0.1,0.1l5.1,5.1&#10;&#9;&#9;&#9;&#9;&#9;&#9;&#9;l0.1-0.1l0.1,0.1l5.1-5.1l-0.1-0.1l52.8-52.8c1.7-1.7,4.4-1.7,6.1,0l52.8,52.8l-0.1,0.1l5.1,5.1l0.1-0.1l0.1,0.1l5.1-5.1&#10;&#9;&#9;&#9;&#9;&#9;&#9;&#9;l-0.1-0.1l52.8-52.8C2072.9,1383,2075.7,1383,2077.4,1384.7z" style="fill: rgb(191, 154, 140);"/>
						<path class="st56" d="M2077.4,1047.3l55.1,55.1v-10.3l-53-53l-2.7-2.7c-1.3-1.3-3.5-1.3-4.9,0l-2.7,2.7l-55.9,55.9l-55.9-55.9&#10;&#9;&#9;&#9;&#9;&#9;&#9;&#9;l-2.7-2.7c-1.3-1.3-3.5-1.3-4.9,0l-2.7,2.7l-55.9,55.9l-55.9-55.9l-2.7-2.7c-1.3-1.3-3.5-1.3-4.9,0l-2.7,2.7l-55.9,55.9&#10;&#9;&#9;&#9;&#9;&#9;&#9;&#9;l-55.9-55.9l-2.7-2.7c-1.3-1.3-3.5-1.3-4.9,0l-2.7,2.7l-55.9,55.9l-55.9-55.9l-2.7-2.7c-1.3-1.3-3.5-1.3-4.9,0l-2.7,2.7&#10;&#9;&#9;&#9;&#9;&#9;&#9;&#9;l-55.9,55.9l-55.9-55.9l-2.7-2.7c-1.3-1.3-3.5-1.3-4.9,0l-2.7,2.7l-55.9,55.9l-55.9-55.9l-2.7-2.7c-1.3-1.3-3.5-1.3-4.9,0&#10;&#9;&#9;&#9;&#9;&#9;&#9;&#9;l-2.7,2.7l-55.9,55.9l-55.9-55.9l-2.7-2.7c-1.3-1.3-3.5-1.3-4.9,0l-2.7,2.7L1159,1095l-55.9-55.9l-2.7-2.7&#10;&#9;&#9;&#9;&#9;&#9;&#9;&#9;c-1.3-1.3-3.5-1.3-4.9,0l-2.7,2.7L1037,1095l-55.9-55.9l-2.7-2.7c-1.3-1.3-3.5-1.3-4.9,0l-2.7,2.7L917,1093v10.3l55.9-55.9&#10;&#9;&#9;&#9;&#9;&#9;&#9;&#9;c1.7-1.7,4.4-1.7,6.1,0l52.8,52.8l-0.1,0.1l5.1,5.1l0.1-0.1l0.1,0.1l5.1-5.1l-0.1-0.1l52.8-52.8c1.7-1.7,4.4-1.7,6.1,0&#10;&#9;&#9;&#9;&#9;&#9;&#9;&#9;l52.8,52.8l-0.1,0.1l5.1,5.1l0.1-0.1l0.1,0.1l5.1-5.1l-0.1-0.1l52.8-52.8c1.7-1.7,4.4-1.7,6.1,0l52.8,52.8l-0.1,0.1l5.1,5.1&#10;&#9;&#9;&#9;&#9;&#9;&#9;&#9;l0.1-0.1l0.1,0.1l5.1-5.1l-0.1-0.1l52.8-52.8c1.7-1.7,4.4-1.7,6.1,0l52.8,52.8l-0.1,0.1l5.1,5.1l0.1-0.1l0.1,0.1l5.1-5.1&#10;&#9;&#9;&#9;&#9;&#9;&#9;&#9;l-0.1-0.1l52.8-52.8c1.7-1.7,4.4-1.7,6.1,0l52.8,52.8l-0.1,0.1l5.1,5.1l0.1-0.1l0.1,0.1l5.1-5.1l-0.1-0.1l52.8-52.8&#10;&#9;&#9;&#9;&#9;&#9;&#9;&#9;c1.7-1.7,4.4-1.7,6.1,0l52.8,52.8l-0.1,0.1l5.1,5.1l0.1-0.1l0.1,0.1l5.1-5.1l-0.1-0.1l52.8-52.8c1.7-1.7,4.4-1.7,6.1,0&#10;&#9;&#9;&#9;&#9;&#9;&#9;&#9;l52.8,52.8l-0.1,0.1l5.1,5.1l0.1-0.1l0.1,0.1l5.1-5.1l-0.1-0.1l52.8-52.8c1.7-1.7,4.4-1.7,6.1,0l52.8,52.8l-0.1,0.1l5.1,5.1&#10;&#9;&#9;&#9;&#9;&#9;&#9;&#9;l0.1-0.1l0.1,0.1l5.1-5.1l-0.1-0.1l52.8-52.8c1.7-1.7,4.4-1.7,6.1,0l52.8,52.8l-0.1,0.1l5.1,5.1l0.1-0.1l0.1,0.1l5.1-5.1&#10;&#9;&#9;&#9;&#9;&#9;&#9;&#9;l-0.1-0.1l52.8-52.8C2072.9,1045.6,2075.7,1045.6,2077.4,1047.3z" style="fill: rgb(191, 154, 140);"/>
						<path class="st56" d="M2077.4,1328.5l55.1,55.1v-10.3l-53-53l-2.7-2.7c-1.3-1.3-3.5-1.3-4.9,0l-2.7,2.7l-55.9,55.9l-55.9-55.9&#10;&#9;&#9;&#9;&#9;&#9;&#9;&#9;l-2.7-2.7c-1.3-1.3-3.5-1.3-4.9,0l-2.7,2.7l-55.9,55.9l-55.9-55.9l-2.7-2.7c-1.3-1.3-3.5-1.3-4.9,0l-2.7,2.7l-55.9,55.9&#10;&#9;&#9;&#9;&#9;&#9;&#9;&#9;l-55.9-55.9l-2.7-2.7c-1.3-1.3-3.5-1.3-4.9,0l-2.7,2.7l-55.9,55.9l-55.9-55.9l-2.7-2.7c-1.3-1.3-3.5-1.3-4.9,0l-2.7,2.7&#10;&#9;&#9;&#9;&#9;&#9;&#9;&#9;l-55.9,55.9l-55.9-55.9l-2.7-2.7c-1.3-1.3-3.5-1.3-4.9,0l-2.7,2.7l-55.9,55.9l-55.9-55.9l-2.7-2.7c-1.3-1.3-3.5-1.3-4.9,0&#10;&#9;&#9;&#9;&#9;&#9;&#9;&#9;l-2.7,2.7l-55.9,55.9l-55.9-55.9l-2.7-2.7c-1.3-1.3-3.5-1.3-4.9,0l-2.7,2.7l-55.9,55.9l-55.9-55.9l-2.7-2.7&#10;&#9;&#9;&#9;&#9;&#9;&#9;&#9;c-1.3-1.3-3.5-1.3-4.9,0l-2.7,2.7l-55.9,55.9l-55.9-55.9l-2.7-2.7c-1.3-1.3-3.5-1.3-4.9,0l-2.7,2.7l-53.9,53.9v10.3l55.9-55.9&#10;&#9;&#9;&#9;&#9;&#9;&#9;&#9;c1.7-1.7,4.4-1.7,6.1,0l52.8,52.8l-0.1,0.1l5.1,5.1l0.1-0.1l0.1,0.1l5.1-5.1l-0.1-0.1l52.8-52.8c1.7-1.7,4.4-1.7,6.1,0&#10;&#9;&#9;&#9;&#9;&#9;&#9;&#9;l52.8,52.8l-0.1,0.1l5.1,5.1l0.1-0.1l0.1,0.1l5.1-5.1l-0.1-0.1l52.8-52.8c1.7-1.7,4.4-1.7,6.1,0l52.8,52.8l-0.1,0.1l5.1,5.1&#10;&#9;&#9;&#9;&#9;&#9;&#9;&#9;l0.1-0.1l0.1,0.1l5.1-5.1l-0.1-0.1l52.8-52.8c1.7-1.7,4.4-1.7,6.1,0l52.8,52.8l-0.1,0.1l5.1,5.1l0.1-0.1l0.1,0.1l5.1-5.1&#10;&#9;&#9;&#9;&#9;&#9;&#9;&#9;l-0.1-0.1l52.8-52.8c1.7-1.7,4.4-1.7,6.1,0l52.8,52.8l-0.1,0.1l5.1,5.1l0.1-0.1l0.1,0.1l5.1-5.1l-0.1-0.1l52.8-52.8&#10;&#9;&#9;&#9;&#9;&#9;&#9;&#9;c1.7-1.7,4.4-1.7,6.1,0l52.8,52.8l-0.1,0.1l5.1,5.1l0.1-0.1l0.1,0.1l5.1-5.1l-0.1-0.1l52.8-52.8c1.7-1.7,4.4-1.7,6.1,0&#10;&#9;&#9;&#9;&#9;&#9;&#9;&#9;l52.8,52.8l-0.1,0.1l5.1,5.1l0.1-0.1l0.1,0.1l5.1-5.1l-0.1-0.1l52.8-52.8c1.7-1.7,4.4-1.7,6.1,0l52.8,52.8l-0.1,0.1l5.1,5.1&#10;&#9;&#9;&#9;&#9;&#9;&#9;&#9;l0.1-0.1l0.1,0.1l5.1-5.1l-0.1-0.1l52.8-52.8c1.7-1.7,4.4-1.7,6.1,0l52.8,52.8l-0.1,0.1l5.1,5.1l0.1-0.1l0.1,0.1l5.1-5.1&#10;&#9;&#9;&#9;&#9;&#9;&#9;&#9;l-0.1-0.1l52.8-52.8C2072.9,1326.8,2075.7,1326.8,2077.4,1328.5z" style="fill: rgb(191, 154, 140);"/>
						<path class="st56" d="M2077.4,1441l55.1,55.1v-10.3l-53-53l-2.7-2.7c-1.3-1.3-3.5-1.3-4.9,0l-2.7,2.7l-55.9,55.9l-55.9-55.9&#10;&#9;&#9;&#9;&#9;&#9;&#9;&#9;l-2.7-2.7c-1.3-1.3-3.5-1.3-4.9,0l-2.7,2.7l-55.9,55.9l-55.9-55.9l-2.7-2.7c-1.3-1.3-3.5-1.3-4.9,0l-2.7,2.7l-55.9,55.9&#10;&#9;&#9;&#9;&#9;&#9;&#9;&#9;l-55.9-55.9l-2.7-2.7c-1.3-1.3-3.5-1.3-4.9,0l-2.7,2.7l-55.9,55.9l-55.9-55.9l-2.7-2.7c-1.3-1.3-3.5-1.3-4.9,0l-2.7,2.7&#10;&#9;&#9;&#9;&#9;&#9;&#9;&#9;l-55.9,55.9l-55.9-55.9l-2.7-2.7c-1.3-1.3-3.5-1.3-4.9,0l-2.7,2.7l-55.9,55.9l-55.9-55.9l-2.7-2.7c-1.3-1.3-3.5-1.3-4.9,0&#10;&#9;&#9;&#9;&#9;&#9;&#9;&#9;l-2.7,2.7l-55.9,55.9l-55.9-55.9l-2.7-2.7c-1.3-1.3-3.5-1.3-4.9,0l-2.7,2.7l-55.9,55.9l-55.9-55.9l-2.7-2.7&#10;&#9;&#9;&#9;&#9;&#9;&#9;&#9;c-1.3-1.3-3.5-1.3-4.9,0l-2.7,2.7l-55.9,55.9l-55.9-55.9l-2.7-2.7c-1.3-1.3-3.5-1.3-4.9,0l-2.7,2.7l-53.9,53.9v10.3l55.9-55.9&#10;&#9;&#9;&#9;&#9;&#9;&#9;&#9;c1.7-1.7,4.4-1.7,6.1,0l52.8,52.8l-0.1,0.1l5.1,5.1l0.1-0.1l0.1,0.1l5.1-5.1l-0.1-0.1l52.8-52.8c1.7-1.7,4.4-1.7,6.1,0&#10;&#9;&#9;&#9;&#9;&#9;&#9;&#9;l52.8,52.8l-0.1,0.1l5.1,5.1l0.1-0.1l0.1,0.1l5.1-5.1l-0.1-0.1l52.8-52.8c1.7-1.7,4.4-1.7,6.1,0l52.8,52.8l-0.1,0.1l5.1,5.1&#10;&#9;&#9;&#9;&#9;&#9;&#9;&#9;l0.1-0.1l0.1,0.1l5.1-5.1l-0.1-0.1l52.8-52.8c1.7-1.7,4.4-1.7,6.1,0l52.8,52.8l-0.1,0.1l5.1,5.1l0.1-0.1l0.1,0.1l5.1-5.1&#10;&#9;&#9;&#9;&#9;&#9;&#9;&#9;l-0.1-0.1l52.8-52.8c1.7-1.7,4.4-1.7,6.1,0l52.8,52.8l-0.1,0.1l5.1,5.1l0.1-0.1l0.1,0.1l5.1-5.1l-0.1-0.1l52.8-52.8&#10;&#9;&#9;&#9;&#9;&#9;&#9;&#9;c1.7-1.7,4.4-1.7,6.1,0l52.8,52.8l-0.1,0.1l5.1,5.1l0.1-0.1l0.1,0.1l5.1-5.1l-0.1-0.1l52.8-52.8c1.7-1.7,4.4-1.7,6.1,0&#10;&#9;&#9;&#9;&#9;&#9;&#9;&#9;l52.8,52.8l-0.1,0.1l5.1,5.1l0.1-0.1l0.1,0.1l5.1-5.1l-0.1-0.1l52.8-52.8c1.7-1.7,4.4-1.7,6.1,0l52.8,52.8l-0.1,0.1l5.1,5.1&#10;&#9;&#9;&#9;&#9;&#9;&#9;&#9;l0.1-0.1l0.1,0.1l5.1-5.1l-0.1-0.1l52.8-52.8c1.7-1.7,4.4-1.7,6.1,0l52.8,52.8l-0.1,0.1l5.1,5.1l0.1-0.1l0.1,0.1l5.1-5.1&#10;&#9;&#9;&#9;&#9;&#9;&#9;&#9;l-0.1-0.1l52.8-52.8C2072.9,1439.3,2075.7,1439.3,2077.4,1441z" style="fill: rgb(191, 154, 140);"/>
						<path class="st56" d="M2077.4,1159.8l55.1,55.1v-10.3l-53-53l-2.7-2.7c-1.3-1.3-3.5-1.3-4.9,0l-2.7,2.7l-55.9,55.9l-55.9-55.9&#10;&#9;&#9;&#9;&#9;&#9;&#9;&#9;l-2.7-2.7c-1.3-1.3-3.5-1.3-4.9,0l-2.7,2.7l-55.9,55.9l-55.9-55.9l-2.7-2.7c-1.3-1.3-3.5-1.3-4.9,0l-2.7,2.7l-55.9,55.9&#10;&#9;&#9;&#9;&#9;&#9;&#9;&#9;l-55.9-55.9l-2.7-2.7c-1.3-1.3-3.5-1.3-4.9,0l-2.7,2.7l-55.9,55.9l-55.9-55.9l-2.7-2.7c-1.3-1.3-3.5-1.3-4.9,0l-2.7,2.7&#10;&#9;&#9;&#9;&#9;&#9;&#9;&#9;l-55.9,55.9l-55.9-55.9l-2.7-2.7c-1.3-1.3-3.5-1.3-4.9,0l-2.7,2.7l-55.9,55.9l-55.9-55.9l-2.7-2.7c-1.3-1.3-3.5-1.3-4.9,0&#10;&#9;&#9;&#9;&#9;&#9;&#9;&#9;l-2.7,2.7l-55.9,55.9l-55.9-55.9l-2.7-2.7c-1.3-1.3-3.5-1.3-4.9,0l-2.7,2.7l-55.9,55.9l-55.9-55.9l-2.7-2.7&#10;&#9;&#9;&#9;&#9;&#9;&#9;&#9;c-1.3-1.3-3.5-1.3-4.9,0l-2.7,2.7l-55.9,55.9l-55.9-55.9l-2.7-2.7c-1.3-1.3-3.5-1.3-4.9,0l-2.7,2.7l-53.9,53.9v10.3l55.9-55.9&#10;&#9;&#9;&#9;&#9;&#9;&#9;&#9;c1.7-1.7,4.4-1.7,6.1,0l52.8,52.8l-0.1,0.1l5.1,5.1l0.1-0.1l0.1,0.1l5.1-5.1l-0.1-0.1l52.8-52.8c1.7-1.7,4.4-1.7,6.1,0&#10;&#9;&#9;&#9;&#9;&#9;&#9;&#9;l52.8,52.8l-0.1,0.1l5.1,5.1l0.1-0.1l0.1,0.1l5.1-5.1l-0.1-0.1l52.8-52.8c1.7-1.7,4.4-1.7,6.1,0l52.8,52.8l-0.1,0.1l5.1,5.1&#10;&#9;&#9;&#9;&#9;&#9;&#9;&#9;l0.1-0.1l0.1,0.1l5.1-5.1l-0.1-0.1l52.8-52.8c1.7-1.7,4.4-1.7,6.1,0l52.8,52.8l-0.1,0.1l5.1,5.1l0.1-0.1l0.1,0.1l5.1-5.1&#10;&#9;&#9;&#9;&#9;&#9;&#9;&#9;l-0.1-0.1l52.8-52.8c1.7-1.7,4.4-1.7,6.1,0l52.8,52.8l-0.1,0.1l5.1,5.1l0.1-0.1l0.1,0.1l5.1-5.1l-0.1-0.1l52.8-52.8&#10;&#9;&#9;&#9;&#9;&#9;&#9;&#9;c1.7-1.7,4.4-1.7,6.1,0l52.8,52.8l-0.1,0.1l5.1,5.1l0.1-0.1l0.1,0.1l5.1-5.1l-0.1-0.1l52.8-52.8c1.7-1.7,4.4-1.7,6.1,0&#10;&#9;&#9;&#9;&#9;&#9;&#9;&#9;l52.8,52.8l-0.1,0.1l5.1,5.1l0.1-0.1l0.1,0.1l5.1-5.1l-0.1-0.1l52.8-52.8c1.7-1.7,4.4-1.7,6.1,0l52.8,52.8l-0.1,0.1l5.1,5.1&#10;&#9;&#9;&#9;&#9;&#9;&#9;&#9;l0.1-0.1l0.1,0.1l5.1-5.1l-0.1-0.1l52.8-52.8c1.7-1.7,4.4-1.7,6.1,0l52.8,52.8l-0.1,0.1l5.1,5.1l0.1-0.1l0.1,0.1l5.1-5.1&#10;&#9;&#9;&#9;&#9;&#9;&#9;&#9;l-0.1-0.1l52.8-52.8C2072.9,1158.1,2075.7,1158.1,2077.4,1159.8z" style="fill: rgb(191, 154, 140);"/>
						<path class="st56" d="M2077.4,1103.5l55.1,55.1v-10.3l-53-53l-2.7-2.7c-1.3-1.3-3.5-1.3-4.9,0l-2.7,2.7l-55.9,55.9l-55.9-55.9&#10;&#9;&#9;&#9;&#9;&#9;&#9;&#9;l-2.7-2.7c-1.3-1.3-3.5-1.3-4.9,0l-2.7,2.7l-55.9,55.9l-55.9-55.9l-2.7-2.7c-1.3-1.3-3.5-1.3-4.9,0l-2.7,2.7l-55.9,55.9&#10;&#9;&#9;&#9;&#9;&#9;&#9;&#9;l-55.9-55.9l-2.7-2.7c-1.3-1.3-3.5-1.3-4.9,0l-2.7,2.7l-55.9,55.9l-55.9-55.9l-2.7-2.7c-1.3-1.3-3.5-1.3-4.9,0l-2.7,2.7&#10;&#9;&#9;&#9;&#9;&#9;&#9;&#9;l-55.9,55.9l-55.9-55.9l-2.7-2.7c-1.3-1.3-3.5-1.3-4.9,0l-2.7,2.7l-55.9,55.9l-55.9-55.9l-2.7-2.7c-1.3-1.3-3.5-1.3-4.9,0&#10;&#9;&#9;&#9;&#9;&#9;&#9;&#9;l-2.7,2.7l-55.9,55.9l-55.9-55.9l-2.7-2.7c-1.3-1.3-3.5-1.3-4.9,0l-2.7,2.7l-55.9,55.9l-55.9-55.9l-2.7-2.7&#10;&#9;&#9;&#9;&#9;&#9;&#9;&#9;c-1.3-1.3-3.5-1.3-4.9,0l-2.7,2.7l-55.9,55.9l-55.9-55.9l-2.7-2.7c-1.3-1.3-3.5-1.3-4.9,0l-2.7,2.7l-53.9,53.9v10.3l55.9-55.9&#10;&#9;&#9;&#9;&#9;&#9;&#9;&#9;c1.7-1.7,4.4-1.7,6.1,0l52.8,52.8l-0.1,0.1l5.1,5.1l0.1-0.1l0.1,0.1l5.1-5.1l-0.1-0.1l52.8-52.8c1.7-1.7,4.4-1.7,6.1,0&#10;&#9;&#9;&#9;&#9;&#9;&#9;&#9;l52.8,52.8l-0.1,0.1l5.1,5.1l0.1-0.1l0.1,0.1l5.1-5.1l-0.1-0.1l52.8-52.8c1.7-1.7,4.4-1.7,6.1,0l52.8,52.8l-0.1,0.1l5.1,5.1&#10;&#9;&#9;&#9;&#9;&#9;&#9;&#9;l0.1-0.1l0.1,0.1l5.1-5.1l-0.1-0.1l52.8-52.8c1.7-1.7,4.4-1.7,6.1,0l52.8,52.8l-0.1,0.1l5.1,5.1l0.1-0.1l0.1,0.1l5.1-5.1&#10;&#9;&#9;&#9;&#9;&#9;&#9;&#9;l-0.1-0.1l52.8-52.8c1.7-1.7,4.4-1.7,6.1,0l52.8,52.8l-0.1,0.1l5.1,5.1l0.1-0.1l0.1,0.1l5.1-5.1l-0.1-0.1l52.8-52.8&#10;&#9;&#9;&#9;&#9;&#9;&#9;&#9;c1.7-1.7,4.4-1.7,6.1,0l52.8,52.8l-0.1,0.1l5.1,5.1l0.1-0.1l0.1,0.1l5.1-5.1l-0.1-0.1l52.8-52.8c1.7-1.7,4.4-1.7,6.1,0&#10;&#9;&#9;&#9;&#9;&#9;&#9;&#9;l52.8,52.8l-0.1,0.1l5.1,5.1l0.1-0.1l0.1,0.1l5.1-5.1l-0.1-0.1l52.8-52.8c1.7-1.7,4.4-1.7,6.1,0l52.8,52.8l-0.1,0.1l5.1,5.1&#10;&#9;&#9;&#9;&#9;&#9;&#9;&#9;l0.1-0.1l0.1,0.1l5.1-5.1l-0.1-0.1l52.8-52.8c1.7-1.7,4.4-1.7,6.1,0l52.8,52.8l-0.1,0.1l5.1,5.1l0.1-0.1l0.1,0.1l5.1-5.1&#10;&#9;&#9;&#9;&#9;&#9;&#9;&#9;l-0.1-0.1l52.8-52.8C2072.9,1101.8,2075.7,1101.8,2077.4,1103.5z" style="fill: rgb(191, 154, 140);"/>
						<path class="st56" d="M2077.4,1272.2l55.1,55.1v-10.3l-53-53l-2.7-2.7c-1.3-1.3-3.5-1.3-4.9,0l-2.7,2.7l-55.9,55.9l-55.9-55.9&#10;&#9;&#9;&#9;&#9;&#9;&#9;&#9;l-2.7-2.7c-1.3-1.3-3.5-1.3-4.9,0l-2.7,2.7l-55.9,55.9l-55.9-55.9l-2.7-2.7c-1.3-1.3-3.5-1.3-4.9,0l-2.7,2.7l-55.9,55.9&#10;&#9;&#9;&#9;&#9;&#9;&#9;&#9;l-55.9-55.9l-2.7-2.7c-1.3-1.3-3.5-1.3-4.9,0l-2.7,2.7l-55.9,55.9l-55.9-55.9l-2.7-2.7c-1.3-1.3-3.5-1.3-4.9,0l-2.7,2.7&#10;&#9;&#9;&#9;&#9;&#9;&#9;&#9;l-55.9,55.9l-55.9-55.9l-2.7-2.7c-1.3-1.3-3.5-1.3-4.9,0l-2.7,2.7l-55.9,55.9l-55.9-55.9l-2.7-2.7c-1.3-1.3-3.5-1.3-4.9,0&#10;&#9;&#9;&#9;&#9;&#9;&#9;&#9;l-2.7,2.7l-55.9,55.9l-55.9-55.9l-2.7-2.7c-1.3-1.3-3.5-1.3-4.9,0l-2.7,2.7L1159,1320l-55.9-55.9l-2.7-2.7&#10;&#9;&#9;&#9;&#9;&#9;&#9;&#9;c-1.3-1.3-3.5-1.3-4.9,0l-2.7,2.7L1037,1320l-55.9-55.9l-2.7-2.7c-1.3-1.3-3.5-1.3-4.9,0l-2.7,2.7l-53.9,53.9v10.3l55.9-55.9&#10;&#9;&#9;&#9;&#9;&#9;&#9;&#9;c1.7-1.7,4.4-1.7,6.1,0l52.8,52.8l-0.1,0.1l5.1,5.1l0.1-0.1l0.1,0.1l5.1-5.1l-0.1-0.1l52.8-52.8c1.7-1.7,4.4-1.7,6.1,0&#10;&#9;&#9;&#9;&#9;&#9;&#9;&#9;l52.8,52.8l-0.1,0.1l5.1,5.1l0.1-0.1l0.1,0.1l5.1-5.1l-0.1-0.1l52.8-52.8c1.7-1.7,4.4-1.7,6.1,0l52.8,52.8l-0.1,0.1l5.1,5.1&#10;&#9;&#9;&#9;&#9;&#9;&#9;&#9;l0.1-0.1l0.1,0.1l5.1-5.1l-0.1-0.1l52.8-52.8c1.7-1.7,4.4-1.7,6.1,0l52.8,52.8l-0.1,0.1l5.1,5.1l0.1-0.1l0.1,0.1l5.1-5.1&#10;&#9;&#9;&#9;&#9;&#9;&#9;&#9;l-0.1-0.1l52.8-52.8c1.7-1.7,4.4-1.7,6.1,0l52.8,52.8l-0.1,0.1l5.1,5.1l0.1-0.1l0.1,0.1l5.1-5.1l-0.1-0.1l52.8-52.8&#10;&#9;&#9;&#9;&#9;&#9;&#9;&#9;c1.7-1.7,4.4-1.7,6.1,0l52.8,52.8l-0.1,0.1l5.1,5.1l0.1-0.1l0.1,0.1l5.1-5.1l-0.1-0.1l52.8-52.8c1.7-1.7,4.4-1.7,6.1,0&#10;&#9;&#9;&#9;&#9;&#9;&#9;&#9;l52.8,52.8l-0.1,0.1l5.1,5.1l0.1-0.1l0.1,0.1l5.1-5.1l-0.1-0.1l52.8-52.8c1.7-1.7,4.4-1.7,6.1,0l52.8,52.8l-0.1,0.1l5.1,5.1&#10;&#9;&#9;&#9;&#9;&#9;&#9;&#9;l0.1-0.1l0.1,0.1l5.1-5.1l-0.1-0.1l52.8-52.8c1.7-1.7,4.4-1.7,6.1,0l52.8,52.8l-0.1,0.1l5.1,5.1l0.1-0.1l0.1,0.1l5.1-5.1&#10;&#9;&#9;&#9;&#9;&#9;&#9;&#9;l-0.1-0.1l52.8-52.8C2072.9,1270.6,2075.7,1270.6,2077.4,1272.2z" style="fill: rgb(191, 154, 140);"/>
						<path class="st56" d="M2077.4,1216l55.1,55.1v-10.3l-53-53l-2.7-2.7c-1.3-1.3-3.5-1.3-4.9,0l-2.7,2.7l-55.9,55.9l-55.9-55.9&#10;&#9;&#9;&#9;&#9;&#9;&#9;&#9;l-2.7-2.7c-1.3-1.3-3.5-1.3-4.9,0l-2.7,2.7l-55.9,55.9l-55.9-55.9l-2.7-2.7c-1.3-1.3-3.5-1.3-4.9,0l-2.7,2.7l-55.9,55.9&#10;&#9;&#9;&#9;&#9;&#9;&#9;&#9;l-55.9-55.9l-2.7-2.7c-1.3-1.3-3.5-1.3-4.9,0l-2.7,2.7l-55.9,55.9l-55.9-55.9l-2.7-2.7c-1.3-1.3-3.5-1.3-4.9,0l-2.7,2.7&#10;&#9;&#9;&#9;&#9;&#9;&#9;&#9;l-55.9,55.9l-55.9-55.9l-2.7-2.7c-1.3-1.3-3.5-1.3-4.9,0l-2.7,2.7l-55.9,55.9l-55.9-55.9l-2.7-2.7c-1.3-1.3-3.5-1.3-4.9,0&#10;&#9;&#9;&#9;&#9;&#9;&#9;&#9;l-2.7,2.7l-55.9,55.9l-55.9-55.9l-2.7-2.7c-1.3-1.3-3.5-1.3-4.9,0l-2.7,2.7l-55.9,55.9l-55.9-55.9l-2.7-2.7&#10;&#9;&#9;&#9;&#9;&#9;&#9;&#9;c-1.3-1.3-3.5-1.3-4.9,0l-2.7,2.7l-55.9,55.9l-55.9-55.9l-2.7-2.7c-1.3-1.3-3.5-1.3-4.9,0l-2.7,2.7l-53.9,53.9v10.3l55.9-55.9&#10;&#9;&#9;&#9;&#9;&#9;&#9;&#9;c1.7-1.7,4.4-1.7,6.1,0l52.8,52.8l-0.1,0.1l5.1,5.1l0.1-0.1l0.1,0.1l5.1-5.1l-0.1-0.1l52.8-52.8c1.7-1.7,4.4-1.7,6.1,0&#10;&#9;&#9;&#9;&#9;&#9;&#9;&#9;l52.8,52.8l-0.1,0.1l5.1,5.1l0.1-0.1l0.1,0.1l5.1-5.1l-0.1-0.1l52.8-52.8c1.7-1.7,4.4-1.7,6.1,0l52.8,52.8l-0.1,0.1l5.1,5.1&#10;&#9;&#9;&#9;&#9;&#9;&#9;&#9;l0.1-0.1l0.1,0.1l5.1-5.1l-0.1-0.1l52.8-52.8c1.7-1.7,4.4-1.7,6.1,0l52.8,52.8l-0.1,0.1l5.1,5.1l0.1-0.1l0.1,0.1l5.1-5.1&#10;&#9;&#9;&#9;&#9;&#9;&#9;&#9;l-0.1-0.1l52.8-52.8c1.7-1.7,4.4-1.7,6.1,0l52.8,52.8l-0.1,0.1l5.1,5.1l0.1-0.1l0.1,0.1l5.1-5.1l-0.1-0.1l52.8-52.8&#10;&#9;&#9;&#9;&#9;&#9;&#9;&#9;c1.7-1.7,4.4-1.7,6.1,0l52.8,52.8l-0.1,0.1l5.1,5.1l0.1-0.1l0.1,0.1l5.1-5.1l-0.1-0.1l52.8-52.8c1.7-1.7,4.4-1.7,6.1,0&#10;&#9;&#9;&#9;&#9;&#9;&#9;&#9;l52.8,52.8l-0.1,0.1l5.1,5.1l0.1-0.1l0.1,0.1l5.1-5.1l-0.1-0.1l52.8-52.8c1.7-1.7,4.4-1.7,6.1,0l52.8,52.8l-0.1,0.1l5.1,5.1&#10;&#9;&#9;&#9;&#9;&#9;&#9;&#9;l0.1-0.1l0.1,0.1l5.1-5.1l-0.1-0.1l52.8-52.8c1.7-1.7,4.4-1.7,6.1,0l52.8,52.8l-0.1,0.1l5.1,5.1l0.1-0.1l0.1,0.1l5.1-5.1&#10;&#9;&#9;&#9;&#9;&#9;&#9;&#9;l-0.1-0.1l52.8-52.8C2072.9,1214.3,2075.7,1214.3,2077.4,1216z" style="fill: rgb(191, 154, 140);"/>
					</g>
					<g>
						<path d="M 1034.199951 1016.299988 H 1039.799951 V 1528.5 H 1034.199951 V 1016.299988 Z" class="st57" style="fill: rgb(165, 125, 113);"/>
						<path d="M 1156.400024 1016.299988 H 1162.000024 V 1528.5 H 1156.400024 V 1016.299988 Z" class="st57" style="fill: rgb(165, 125, 113);"/>
						<path d="M 1278.300049 1016.299988 H 1283.900049 V 1528.5 H 1278.300049 V 1016.299988 Z" class="st57" style="fill: rgb(165, 125, 113);"/>
						<path d="M 1399.900024 1016.299988 H 1405.500024 V 1528.5 H 1399.900024 V 1016.299988 Z" class="st57" style="fill: rgb(165, 125, 113);"/>
						<path d="M 1521.900024 1016.299988 H 1527.500024 V 1528.5 H 1521.900024 V 1016.299988 Z" class="st57" style="fill: rgb(165, 125, 113);"/>
						<path d="M 1643.800049 1016.299988 H 1649.400049 V 1528.5 H 1643.800049 V 1016.299988 Z" class="st57" style="fill: rgb(165, 125, 113);"/>
						<path d="M 1766 1016.299988 H 1771.6 V 1528.5 H 1766 V 1016.299988 Z" class="st57" style="fill: rgb(165, 125, 113);"/>
						<path d="M 1888.400024 1016.299988 H 1894.000024 V 1528.5 H 1888.400024 V 1016.299988 Z" class="st57" style="fill: rgb(165, 125, 113);"/>
						<path d="M 2010.599976 1016.299988 H 2016.199975 V 1528.5 H 2010.599976 V 1016.299988 Z" class="st57" style="fill: rgb(165, 125, 113);"/>
					</g>
					<path class="st58" d="M2145.5,1016.3c16.1,0,29.1-13,29.1-29.1v0c0-16.1-13-29.1-29.1-29.1H903.9c-16.1,0-29.1,13-29.1,29.1v0&#10;&#9;&#9;&#9;&#9;&#9;&#9;c0,16.1,13,29.1,29.1,29.1H2145.5z" style="fill: rgb(211, 170, 156);"/>
					<path class="st59" d="M2032.2,1016.3c16.1,0,29.1-13,29.1-29.1v0c0-16.1-13-29.1-29.1-29.1h-850.4c-16.1,0-29.1,13-29.1,29.1v0&#10;&#9;&#9;&#9;&#9;&#9;&#9;c0,16.1,13,29.1,29.1,29.1H2032.2z" style="fill: rgb(219, 179, 169);"/>
					<path class="st60" d="M1922.7,1016.3c16.1,0,29.1-13,29.1-29.1s-13-29.1-29.1-29.1h-274.4c-16.1,0-29.1,13-29.1,29.1&#10;&#9;&#9;&#9;&#9;&#9;&#9;s13,29.1,29.1,29.1H1922.7z" style="fill: rgb(229, 190, 183);"/>
				</g><linearGradient id="SVGID_26_" gradientUnits="userSpaceOnUse" x1="635.6652" y1="884.3337" x2="692.6241" y2="1293.5938">
						<stop offset="0.2831" style="stop-color:#F1C413"/>
						<stop offset="0.9133" style="stop-color:#5AC890"/>
						<stop offset="1" style="stop-color:#45C9A1"/>
					</linearGradient><path class="st61" d="M579.3,1111.1c1.2,17.7,9.8,31.7,19.3,46.2c4.8,7.3,9.5,14.7,12,23.2c2.2,7.4,2.6,15.2,2.4,22.9&#10;&#9;&#9;&#9;&#9;&#9;&#9;c-0.5,15.5-3.8,30.8-4.2,46.4c-0.4,15.9,2.9,31.7,12.4,44.8c20.4,28.1,56.7,36.4,89.5,30.9c16.8-2.8,34.5-7.9,47.7-19.2&#10;&#9;&#9;&#9;&#9;&#9;&#9;c11.7-10.1,17.5-24.3,17.7-39.6c0.5-35.4-25.6-61.1-48.3-84.9c-12.6-13.2-25.1-27.4-31.5-44.8c-3.1-8.4-4.4-17-3.8-25.9&#10;&#9;&#9;&#9;&#9;&#9;&#9;c0.5-8.3,2.3-16.4,3.2-24.7c0.9-8.4,1.1-16.8-1.1-25.1c-2.1-7.7-6.4-14.7-11.4-20.9c-10.5-13-23.9-23.6-30-39.6&#10;&#9;&#9;&#9;&#9;&#9;&#9;c-6.2-16.3-6.8-34.1-11.2-50.9c-3.5-13.6-11.9-35.7-28.9-36.2c-7.3-0.2-13.6,4.1-15.7,11.1c-0.4,1.5-0.3,2.7,0.2,3.7&#10;&#9;&#9;&#9;&#9;&#9;&#9;c-16.4,23.9-9.5,57.5-7.3,84.8c1.4,17.5-1.3,33.9-5.1,50.9C581.9,1079.6,578.2,1095.3,579.3,1111.1z" style="fill: url('#SVGID_26_');" transform="matrix(1, 0, 0, 1, 0, 0)"/><path class="st62" d="M676.9,1077.5c0.7-7.1-10.1-9.5-10.9-2.4c-2.7,25.7-9.1,50.8-19.1,74.5c-2.7-12.6-4.9-25.3-6.7-38&#10;&#9;&#9;&#9;&#9;&#9;&#9;c-4.5-31.7-6.7-63.6-8.8-95.5c-0.5-7.1-11.6-6.7-11.1,0.5c3.8,56.2,7.7,113.1,23.9,167.4c8,26.8,19.6,52.1,33.5,76.3&#10;&#9;&#9;&#9;&#9;&#9;&#9;c0.1,0.2,0.3,0.5,0.4,0.7c-10.4-5.7-20.9-11.4-31.3-17.1c-6.3-3.4-11.3,6.5-5.1,9.9c13,7.1,26,14.2,39.1,21.3&#10;&#9;&#9;&#9;&#9;&#9;&#9;c2.1,1.1,4,0.8,5.5-0.3c11.3,18.9,23.1,37.6,32.7,57.4c12.8,26.4,21.7,55.1,20,84.7c-0.4,7.2,10.7,6.6,11.1-0.5&#10;&#9;&#9;&#9;&#9;&#9;&#9;c3.2-54.4-27.2-102.2-54-146.9c-14.4-24-27.6-48.4-36.8-74.9c-3.2-9.1-5.9-18.3-8.3-27.7c0.3-0.4,0.6-0.8,0.9-1.3&#10;&#9;&#9;&#9;&#9;&#9;&#9;C665.1,1137.9,673.6,1108.1,676.9,1077.5z" style="fill: rgb(86, 219, 174);" transform="matrix(1, 0, 0, 1, 0, 0)"/><linearGradient id="SVGID_27_" gradientUnits="userSpaceOnUse" x1="694.1453" y1="1019.2336" x2="851.3597" y2="1243.5577">
						<stop offset="0.2831" style="stop-color:#F1C413"/>
						<stop offset="0.4884" style="stop-color:#DEC522"/>
						<stop offset="0.9313" style="stop-color:#45C9A1"/>
					</linearGradient><path class="st63" d="M741.9,1198.9c-6.5,10.6-13.4,21-15.3,33.6c-3.8,25.7,9.1,49.1,24.3,68.7c3.6,4.6,7.3,9,11,13.5&#10;&#9;&#9;&#9;&#9;&#9;&#9;c0.2,2.6,2.4,5.2,5.7,4.3c21.2-5.7,35.3-24,43.4-43.5c9.9-23.8,10.8-50.2,20.1-74.2c8.6-22.2,23.9-43.1,22.6-68&#10;&#9;&#9;&#9;&#9;&#9;&#9;c-1.1-21.6-13-40.2-20.5-59.9c-3.5-9.4-6.2-19.3-5.1-29.4c1.3-11.1,8.5-22.9,1.1-33.5c-7.9-11.3-21.5-5-31.2-0.2&#10;&#9;&#9;&#9;&#9;&#9;&#9;c-10.3,5.1-20.6,10.6-29.2,18.3c-40,35.7-11.4,91.6-15,136.2C752.8,1177.4,748.4,1188.3,741.9,1198.9z" style="fill: url('#SVGID_27_');" transform="matrix(1, 0, 0, 1, 0, 0)"/><path class="st62" d="M765,1258.7c-2-4.3-4.3-8.4-7-12.3c-3.3-4.9-11.3-0.3-8,4.7c5,7.4,8.6,15.3,11,23.8&#10;&#9;&#9;&#9;&#9;&#9;&#9;c-5.7,25.1-9.5,50.5-7.7,76.4c1.6,23.2,7.6,46.1,20,65.9c3.1,5,11.1,0.4,8-4.7c-22.2-35.9-22.2-80.2-14.5-120.4&#10;&#9;&#9;&#9;&#9;&#9;&#9;c0.8-4,1.6-8,2.5-12c1.2-1,1.9-2.6,1.5-4.6c-0.1-0.3-0.2-0.6-0.2-0.9c3.2-13.6,6.9-27,10.5-40.5c0.5-0.2,1-0.6,1.5-1.1&#10;&#9;&#9;&#9;&#9;&#9;&#9;c17.4-18.7,32.1-39.8,43.5-62.7c2.6-5.3-5.3-10-8-4.7c-8.7,17.6-19.3,34-31.7,49.1c5-19.3,9.5-38.7,11.7-58.6&#10;&#9;&#9;&#9;&#9;&#9;&#9;c2.8-25.2,1.9-51.1-5.8-75.4c-1.8-5.6-10.7-3.2-8.9,2.5c5.1,16.1,7.1,32.5,6.9,48.9c-2.3-4.9-4.5-9.7-6.8-14.6&#10;&#9;&#9;&#9;&#9;&#9;&#9;c-2.5-5.4-10.5-0.7-8,4.7c4.6,9.8,9.2,19.6,13.7,29.4c-2.2,22.7-7.6,45.2-13.4,67C772.2,1232,768.4,1245.3,765,1258.7z" style="fill: rgb(86, 219, 174);" transform="matrix(1, 0, 0, 1, 0, 0)"/><linearGradient id="SVGID_28_" gradientUnits="userSpaceOnUse" x1="748.9014" y1="1349.4127" x2="748.9014" y2="1520.557">
						<stop offset="0.2267" style="stop-color:#E6E7E8"/>
						<stop offset="0.4668" style="stop-color:#DEDFE0"/>
						<stop offset="0.8434" style="stop-color:#C7C9CB"/>
						<stop offset="1" style="stop-color:#BCBEC0"/>
					</linearGradient><path class="st64" d="M712.2,1522.4h36.7h36.7c8.5,0,15.9-6.1,18.2-15l29.9-114.4c3.4-13.2-5.6-26.3-18.2-26.3h-66.6h-66.6&#10;&#9;&#9;&#9;&#9;&#9;&#9;c-12.6,0-21.7,13.1-18.2,26.3l29.9,114.4C696.3,1516.3,703.7,1522.4,712.2,1522.4z" style="fill: url('#SVGID_28_');" transform="matrix(1, 0, 0, 1, 0, 0)"/><path class="st57" d="M1192.7,621.6c7.6,0,13.8-6.2,13.8-13.8s-6.2-13.8-13.8-13.8H863.3c-7.6,0-13.8,6.2-13.8,13.8&#10;&#9;&#9;&#9;&#9;&#9;s6.2,13.8,13.8,13.8H1192.7z" style="fill: rgb(165, 125, 113);" transform="matrix(1, 0, 0, 1, 0, 0)"/><path class="st57" d="M1195.5,480.4c7.6,0,13.8-6.2,13.8-13.8v0c0-7.6-6.2-13.8-13.8-13.8H866.1c-7.6,0-13.8,6.2-13.8,13.8v0&#10;&#9;&#9;&#9;&#9;&#9;c0,7.6,6.2,13.8,13.8,13.8H1195.5z" style="fill: rgb(165, 125, 113);" transform="matrix(1, 0, 0, 1, 0, 0)"/><path class="st4" d="M1054.6,480.4c7.6,0,13.8-6.2,13.8-13.8v0c0-7.6-6.2-13.8-13.8-13.8H890.6c-7.6,0-13.8,6.2-13.8,13.8v0&#10;&#9;&#9;&#9;&#9;&#9;c0,7.6,6.2,13.8,13.8,13.8H1054.6z" style="fill: rgb(181, 139, 129);" transform="matrix(1, 0, 0, 1, 0, 0)"/><path class="st4" d="M1165.3,621.6c7.6,0,13.8-6.2,13.8-13.8s-6.2-13.8-13.8-13.8h-163.9c-7.6,0-13.8,6.2-13.8,13.8&#10;&#9;&#9;&#9;&#9;&#9;s6.2,13.8,13.8,13.8H1165.3z" style="fill: rgb(181, 139, 129);" transform="matrix(1, 0, 0, 1, 0, 0)"/><g transform="matrix(1, 0, 0, 1, 0, 0)">
						<path class="st65" d="M956.1,504.6h-39.4c-2,0-3.7,1.7-3.7,3.7v8.6h46.8v-8.6C959.8,506.3,958.1,504.6,956.1,504.6z" style="fill: rgb(114, 131, 160);"/>
						<linearGradient id="SVGID_29_" gradientUnits="userSpaceOnUse" x1="936.3887" y1="491.9835" x2="936.3887" y2="572.8687">
							<stop offset="0.5419" style="stop-color:#5A6B8C"/>
							<stop offset="0.6794" style="stop-color:#546484"/>
							<stop offset="0.8953" style="stop-color:#44516D"/>
							<stop offset="1" style="stop-color:#3A4560"/>
						</linearGradient>
						<path class="st66" d="M936.4,593.9h32.4c5,0,8.8-4.6,7.8-9.5l-12.5-64.9c-0.7-3.8-4-6.5-7.8-6.5h-19.9h-19.9&#10;&#9;&#9;&#9;&#9;&#9;&#9;&#9;c-3.8,0-7.1,2.7-7.8,6.5l-12.5,64.9c-0.9,4.9,2.8,9.5,7.8,9.5H936.4z" style="fill: url('#SVGID_29_');"/>
						<path d="M 951.500025 540.700012 A 15.1 15.1 0 0 1 936.400024 555.800013 A 15.1 15.1 0 0 1 921.300024 540.700012 A 15.1 15.1 0 0 1 936.400024 525.600012 A 15.1 15.1 0 0 1 951.500025 540.700012 Z" class="st67" style="fill: rgb(101, 121, 153);"/>
						<path d="M 949.700025 540.700012 A 13.3 13.3 0 0 1 936.400024 554.000012 A 13.3 13.3 0 0 1 923.100024 540.700012 A 13.3 13.3 0 0 1 936.400024 527.400012 A 13.3 13.3 0 0 1 949.700025 540.700012 Z" class="st68" style="fill: rgb(227, 237, 252);"/>
					</g><g transform="matrix(1, 0, 0, 1, 0, 0)">
						<path class="st65" d="M1049.5,504.8h-39.4c-2,0-3.7,1.7-3.7,3.7v8.6h46.8v-8.6C1053.2,506.5,1051.6,504.8,1049.5,504.8z" style="fill: rgb(114, 131, 160);"/>
						<linearGradient id="SVGID_30_" gradientUnits="userSpaceOnUse" x1="1029.8384" y1="492.1796" x2="1029.8384" y2="573.0648">
							<stop offset="0.5419" style="stop-color:#5A6B8C"/>
							<stop offset="0.6794" style="stop-color:#546484"/>
							<stop offset="0.8953" style="stop-color:#44516D"/>
							<stop offset="1" style="stop-color:#3A4560"/>
						</linearGradient>
						<path class="st69" d="M1029.8,594.1h32.4c5,0,8.8-4.6,7.8-9.5l-12.5-64.9c-0.7-3.8-4-6.5-7.8-6.5h-19.9h-19.9&#10;&#9;&#9;&#9;&#9;&#9;&#9;&#9;c-3.8,0-7.1,2.7-7.8,6.5l-12.5,64.9c-0.9,4.9,2.8,9.5,7.8,9.5H1029.8z" style="fill: url('#SVGID_30_');"/>
						<path d="M 1044.900049 540.900024 A 15.1 15.1 0 0 1 1029.800049 556.000025 A 15.1 15.1 0 0 1 1014.700048 540.900024 A 15.1 15.1 0 0 1 1029.800049 525.800024 A 15.1 15.1 0 0 1 1044.900049 540.900024 Z" class="st67" style="fill: rgb(101, 121, 153);"/>
						
							<path d="M 1043.100049 540.900024 A 13.3 13.3 0 0 1 1029.800049 554.200025 A 13.3 13.3 0 0 1 1016.500049 540.900024 A 13.3 13.3 0 0 1 1029.800049 527.600024 A 13.3 13.3 0 0 1 1043.100049 540.900024 Z" transform="matrix(0.9239 -0.3827 0.3827 0.9239 -128.614 435.2778)" class="st68" style="fill: rgb(227, 237, 252);"/>
					</g><g transform="matrix(1, 0, 0, 1, 0, 0)">
						<path class="st65" d="M1143,505h-39.4c-2,0-3.7,1.7-3.7,3.7v8.6h46.8v-8.6C1146.7,506.7,1145,505,1143,505z" style="fill: rgb(114, 131, 160);"/>
						<linearGradient id="SVGID_31_" gradientUnits="userSpaceOnUse" x1="1123.2881" y1="492.3758" x2="1123.2881" y2="573.261">
							<stop offset="0.5419" style="stop-color:#5A6B8C"/>
							<stop offset="0.6794" style="stop-color:#546484"/>
							<stop offset="0.8953" style="stop-color:#44516D"/>
							<stop offset="1" style="stop-color:#3A4560"/>
						</linearGradient>
						<path class="st70" d="M1123.3,594.3h32.4c5,0,8.8-4.6,7.8-9.5l-12.5-64.9c-0.7-3.8-4-6.5-7.8-6.5h-19.9h-19.9&#10;&#9;&#9;&#9;&#9;&#9;&#9;&#9;c-3.8,0-7.1,2.7-7.8,6.5l-12.5,64.9c-0.9,4.9,2.8,9.5,7.8,9.5H1123.3z" style="fill: url('#SVGID_31_');"/>
						<path d="M 1138.400049 541.099976 A 15.1 15.1 0 0 1 1123.300049 556.199976 A 15.1 15.1 0 0 1 1108.200048 541.099976 A 15.1 15.1 0 0 1 1123.300049 525.999975 A 15.1 15.1 0 0 1 1138.400049 541.099976 Z" class="st67" style="fill: rgb(101, 121, 153);"/>
						<path d="M 1136.600049 541.099976 A 13.3 13.3 0 0 1 1123.300049 554.399976 A 13.3 13.3 0 0 1 1110.000049 541.099976 A 13.3 13.3 0 0 1 1123.300049 527.799975 A 13.3 13.3 0 0 1 1136.600049 541.099976 Z" class="st68" style="fill: rgb(227, 237, 252);"/>
					</g><g transform="matrix(1, 0, 0, 1, 0, 0)">
						<linearGradient id="SVGID_32_" gradientUnits="userSpaceOnUse" x1="1137.7382" y1="381.0488" x2="1137.7382" y2="438.7137">
							<stop offset="0.5205" style="stop-color:#FFD45A"/>
							<stop offset="1" style="stop-color:#F1C413"/>
						</linearGradient>
						<path class="st71" d="M1156.1,452.7c5.8,0,10.4-4.7,10.4-10.4v-54.1c0-3.3-2.7-6-6-6h-45.7c-3.3,0-6,2.7-6,6v54.1&#10;&#9;&#9;&#9;&#9;&#9;&#9;&#9;c0,5.8,4.7,10.4,10.4,10.4H1156.1z" style="fill: url('#SVGID_32_');"/>
						<linearGradient id="SVGID_33_" gradientUnits="userSpaceOnUse" x1="1115.9928" y1="413.2209" x2="1093.6563" y2="413.2209">
							<stop offset="0.5205" style="stop-color:#FFD45A"/>
							<stop offset="1" style="stop-color:#F1C413"/>
						</linearGradient>
						<path class="st72" d="M1108.9,402.6v-10.5c-9.9,1.7-17.7,10.3-17.9,20.9c-0.1,10.7,7.8,19.4,17.9,21.2v-10.4&#10;&#9;&#9;&#9;&#9;&#9;&#9;&#9;c-4.5-1.5-7.9-5.4-7.8-10.8C1101.2,407.7,1104.5,404.1,1108.9,402.6z" style="fill: url('#SVGID_33_');"/>
						<path class="st33" d="M1160.5,409.5c-0.1-5.3-0.2-10.7-0.3-16c-0.1-2.9-4.6-2.9-4.6,0c0.1,5.3,0.2,10.7,0.3,16&#10;&#9;&#9;&#9;&#9;&#9;&#9;&#9;C1156,412.4,1160.6,412.4,1160.5,409.5z" style="fill: rgb(252, 221, 144);"/>
						<path class="st33" d="M1160.4,418.6c0-0.8,0-1.6,0-2.4c0-1.3-1-2.2-2.3-2.3c-1.2-0.1-2.3,1.1-2.3,2.3c0,0.8,0,1.6,0,2.4&#10;&#9;&#9;&#9;&#9;&#9;&#9;&#9;c0,1.3,1,2.2,2.3,2.3C1159.3,421,1160.4,419.8,1160.4,418.6z" style="fill: rgb(252, 221, 144);"/>
					</g><linearGradient id="SVGID_34_" gradientUnits="userSpaceOnUse" x1="1072.4048" y1="381.0488" x2="1072.4048" y2="438.7137">
							<stop offset="0.5205" style="stop-color:#FFD45A"/>
							<stop offset="1" style="stop-color:#F1C413"/>
						</linearGradient><path class="st73" d="M1090.8,452.7c5.8,0,10.4-4.7,10.4-10.4v-54.1c0-3.3-2.7-6-6-6h-45.7c-3.3,0-6,2.7-6,6v54.1&#10;&#9;&#9;&#9;&#9;&#9;&#9;&#9;c0,5.8,4.7,10.4,10.4,10.4H1090.8z" style="fill: url('#SVGID_34_');" transform="matrix(1, 0, 0, 1, 0, 0)"/><linearGradient id="SVGID_35_" gradientUnits="userSpaceOnUse" x1="1050.6595" y1="413.2209" x2="1028.323" y2="413.2209">
							<stop offset="0.5205" style="stop-color:#FFD45A"/>
							<stop offset="1" style="stop-color:#F1C413"/>
						</linearGradient><path class="st74" d="M1043.6,402.6v-10.5c-9.9,1.7-17.7,10.3-17.9,20.9c-0.1,10.7,7.8,19.4,17.9,21.2v-10.4&#10;&#9;&#9;&#9;&#9;&#9;&#9;&#9;c-4.5-1.5-7.9-5.4-7.8-10.8C1035.9,407.7,1039.2,404.1,1043.6,402.6z" style="fill: url('#SVGID_35_');" transform="matrix(1, 0, 0, 1, 0, 0)"/><path class="st33" d="M1095.2,409.5c-0.1-5.3-0.2-10.7-0.3-16c-0.1-2.9-4.6-2.9-4.6,0c0.1,5.3,0.2,10.7,0.3,16&#10;&#9;&#9;&#9;&#9;&#9;&#9;&#9;C1090.7,412.4,1095.2,412.4,1095.2,409.5z" style="fill: rgb(252, 221, 144);" transform="matrix(1, 0, 0, 1, 0, 0)"/><path class="st33" d="M1095,418.6c0-0.8,0-1.6,0-2.4c0-1.3-1-2.2-2.3-2.3c-1.2-0.1-2.3,1.1-2.3,2.3c0,0.8,0,1.6,0,2.4&#10;&#9;&#9;&#9;&#9;&#9;&#9;&#9;c0,1.3,1,2.2,2.3,2.3C1094,421,1095,419.8,1095,418.6z" style="fill: rgb(252, 221, 144);" transform="matrix(1, 0, 0, 1, 0, 0)"/><linearGradient id="SVGID_36_" gradientUnits="userSpaceOnUse" x1="1007.0714" y1="381.0488" x2="1007.0715" y2="438.7137">
							<stop offset="0.5205" style="stop-color:#FFD45A"/>
							<stop offset="1" style="stop-color:#F1C413"/>
						</linearGradient><path class="st75" d="M1025.5,452.7c5.8,0,10.4-4.7,10.4-10.4v-54.1c0-3.3-2.7-6-6-6h-45.7c-3.3,0-6,2.7-6,6v54.1&#10;&#9;&#9;&#9;&#9;&#9;&#9;&#9;c0,5.8,4.7,10.4,10.4,10.4H1025.5z" style="fill: url('#SVGID_36_');" transform="matrix(1, 0, 0, 1, 0, 0)"/><linearGradient id="SVGID_37_" gradientUnits="userSpaceOnUse" x1="985.3261" y1="413.2209" x2="962.9897" y2="413.2209">
							<stop offset="0.5205" style="stop-color:#FFD45A"/>
							<stop offset="1" style="stop-color:#F1C413"/>
						</linearGradient><path class="st76" d="M978.2,402.6v-10.5c-9.9,1.7-17.7,10.3-17.9,20.9c-0.1,10.7,7.8,19.4,17.9,21.2v-10.4&#10;&#9;&#9;&#9;&#9;&#9;&#9;&#9;c-4.5-1.5-7.9-5.4-7.8-10.8C970.5,407.7,973.8,404.1,978.2,402.6z" style="fill: url('#SVGID_37_');" transform="matrix(1, 0, 0, 1, 0, 0)"/><path class="st33" d="M1029.8,409.5c-0.1-5.3-0.2-10.7-0.3-16c-0.1-2.9-4.6-2.9-4.6,0c0.1,5.3,0.2,10.7,0.3,16&#10;&#9;&#9;&#9;&#9;&#9;&#9;&#9;C1025.3,412.4,1029.9,412.4,1029.8,409.5z" style="fill: rgb(252, 221, 144);" transform="matrix(1, 0, 0, 1, 0, 0)"/><path class="st33" d="M1029.7,418.6c0-0.8,0-1.6,0-2.4c0-1.3-1-2.2-2.3-2.3c-1.2-0.1-2.3,1.1-2.3,2.3c0,0.8,0,1.6,0,2.4&#10;&#9;&#9;&#9;&#9;&#9;&#9;&#9;c0,1.3,1,2.2,2.3,2.3C1028.7,421,1029.7,419.8,1029.7,418.6z" style="fill: rgb(252, 221, 144);" transform="matrix(1, 0, 0, 1, 0, 0)"/><linearGradient id="SVGID_38_" gradientUnits="userSpaceOnUse" x1="941.7382" y1="381.0488" x2="941.7382" y2="438.7137">
							<stop offset="0.5205" style="stop-color:#FFD45A"/>
							<stop offset="1" style="stop-color:#F1C413"/>
						</linearGradient><path class="st77" d="M960.1,452.7c5.8,0,10.4-4.7,10.4-10.4v-54.1c0-3.3-2.7-6-6-6h-45.7c-3.3,0-6,2.7-6,6v54.1&#10;&#9;&#9;&#9;&#9;&#9;&#9;&#9;c0,5.8,4.7,10.4,10.4,10.4H960.1z" style="fill: url('#SVGID_38_');" transform="matrix(1, 0, 0, 1, 0, 0)"/><linearGradient id="SVGID_39_" gradientUnits="userSpaceOnUse" x1="919.9928" y1="413.2209" x2="897.6564" y2="413.2209">
							<stop offset="0.5205" style="stop-color:#FFD45A"/>
							<stop offset="1" style="stop-color:#F1C413"/>
						</linearGradient><path class="st78" d="M912.9,402.6v-10.5c-9.9,1.7-17.7,10.3-17.9,20.9c-0.1,10.7,7.8,19.4,17.9,21.2v-10.4&#10;&#9;&#9;&#9;&#9;&#9;&#9;&#9;c-4.5-1.5-7.9-5.4-7.8-10.8C905.2,407.7,908.5,404.1,912.9,402.6z" style="fill: url('#SVGID_39_');" transform="matrix(1, 0, 0, 1, 0, 0)"/><path class="st33" d="M964.5,409.5c-0.1-5.3-0.2-10.7-0.3-16c-0.1-2.9-4.6-2.9-4.6,0c0.1,5.3,0.2,10.7,0.3,16&#10;&#9;&#9;&#9;&#9;&#9;&#9;&#9;C960,412.4,964.6,412.4,964.5,409.5z" style="fill: rgb(252, 221, 144);" transform="matrix(1, 0, 0, 1, 0, 0)"/><path class="st33" d="M964.4,418.6c0-0.8,0-1.6,0-2.4c0-1.3-1-2.2-2.3-2.3c-1.2-0.1-2.3,1.1-2.3,2.3c0,0.8,0,1.6,0,2.4&#10;&#9;&#9;&#9;&#9;&#9;&#9;&#9;c0,1.3,1,2.2,2.3,2.3C963.3,421,964.4,419.8,964.4,418.6z" style="fill: rgb(252, 221, 144);" transform="matrix(1, 0, 0, 1, 0, 0)"/>
</svg>